%TF.GenerationSoftware,KiCad,Pcbnew,(5.99.0-2965-g3673c2369)*%
%TF.CreationDate,2020-08-26T16:55:04+03:00*%
%TF.ProjectId,cara-de-pelusa,63617261-2d64-4652-9d70-656c7573612e,rev?*%
%TF.SameCoordinates,Original*%
%TF.FileFunction,Legend,Bot*%
%TF.FilePolarity,Positive*%
%FSLAX46Y46*%
G04 Gerber Fmt 4.6, Leading zero omitted, Abs format (unit mm)*
G04 Created by KiCad (PCBNEW (5.99.0-2965-g3673c2369)) date 2020-08-26 16:55:04*
%MOMM*%
%LPD*%
G01*
G04 APERTURE LIST*
%ADD10C,0.127000*%
%ADD11C,0.150000*%
%ADD12C,0.200000*%
%ADD13C,0.081280*%
%ADD14C,0.100000*%
%ADD15C,0.120000*%
%ADD16O,2.250000X2.250000*%
%ADD17O,1.930400X1.930400*%
%ADD18R,1.930400X1.930400*%
%ADD19O,1.600000X1.600000*%
%ADD20C,1.600000*%
%ADD21C,1.800000*%
%ADD22R,1.800000X1.800000*%
%ADD23O,2.200000X2.200000*%
%ADD24R,2.200000X2.200000*%
%ADD25R,1.600000X1.600000*%
G04 APERTURE END LIST*
D10*
X99926000Y-73132190D02*
X100492666Y-73132190D01*
X100559333Y-73099809D01*
X100592666Y-73067428D01*
X100626000Y-73002666D01*
X100626000Y-72905523D01*
X100592666Y-72840761D01*
X100359333Y-73132190D02*
X100392666Y-73067428D01*
X100392666Y-72937904D01*
X100359333Y-72873142D01*
X100326000Y-72840761D01*
X100259333Y-72808380D01*
X100059333Y-72808380D01*
X99992666Y-72840761D01*
X99959333Y-72873142D01*
X99926000Y-72937904D01*
X99926000Y-73067428D01*
X99959333Y-73132190D01*
X100392666Y-73456000D02*
X99926000Y-73456000D01*
X99692666Y-73456000D02*
X99726000Y-73423619D01*
X99759333Y-73456000D01*
X99726000Y-73488380D01*
X99692666Y-73456000D01*
X99759333Y-73456000D01*
X99926000Y-73682666D02*
X99926000Y-73941714D01*
X99692666Y-73779809D02*
X100292666Y-73779809D01*
X100359333Y-73812190D01*
X100392666Y-73876952D01*
X100392666Y-73941714D01*
X100392666Y-74168380D02*
X99692666Y-74168380D01*
X100392666Y-74459809D02*
X100026000Y-74459809D01*
X99959333Y-74427428D01*
X99926000Y-74362666D01*
X99926000Y-74265523D01*
X99959333Y-74200761D01*
X99992666Y-74168380D01*
X99926000Y-75075047D02*
X100392666Y-75075047D01*
X99926000Y-74783619D02*
X100292666Y-74783619D01*
X100359333Y-74816000D01*
X100392666Y-74880761D01*
X100392666Y-74977904D01*
X100359333Y-75042666D01*
X100326000Y-75075047D01*
X100392666Y-75398857D02*
X99692666Y-75398857D01*
X99959333Y-75398857D02*
X99926000Y-75463619D01*
X99926000Y-75593142D01*
X99959333Y-75657904D01*
X99992666Y-75690285D01*
X100059333Y-75722666D01*
X100259333Y-75722666D01*
X100326000Y-75690285D01*
X100359333Y-75657904D01*
X100392666Y-75593142D01*
X100392666Y-75463619D01*
X100359333Y-75398857D01*
X100326000Y-76014095D02*
X100359333Y-76046476D01*
X100392666Y-76014095D01*
X100359333Y-75981714D01*
X100326000Y-76014095D01*
X100392666Y-76014095D01*
X100359333Y-76629333D02*
X100392666Y-76564571D01*
X100392666Y-76435047D01*
X100359333Y-76370285D01*
X100326000Y-76337904D01*
X100259333Y-76305523D01*
X100059333Y-76305523D01*
X99992666Y-76337904D01*
X99959333Y-76370285D01*
X99926000Y-76435047D01*
X99926000Y-76564571D01*
X99959333Y-76629333D01*
X100392666Y-77017904D02*
X100359333Y-76953142D01*
X100326000Y-76920761D01*
X100259333Y-76888380D01*
X100059333Y-76888380D01*
X99992666Y-76920761D01*
X99959333Y-76953142D01*
X99926000Y-77017904D01*
X99926000Y-77115047D01*
X99959333Y-77179809D01*
X99992666Y-77212190D01*
X100059333Y-77244571D01*
X100259333Y-77244571D01*
X100326000Y-77212190D01*
X100359333Y-77179809D01*
X100392666Y-77115047D01*
X100392666Y-77017904D01*
X100392666Y-77536000D02*
X99926000Y-77536000D01*
X99992666Y-77536000D02*
X99959333Y-77568380D01*
X99926000Y-77633142D01*
X99926000Y-77730285D01*
X99959333Y-77795047D01*
X100026000Y-77827428D01*
X100392666Y-77827428D01*
X100026000Y-77827428D02*
X99959333Y-77859809D01*
X99926000Y-77924571D01*
X99926000Y-78021714D01*
X99959333Y-78086476D01*
X100026000Y-78118857D01*
X100392666Y-78118857D01*
X99659333Y-78928380D02*
X100559333Y-78345523D01*
X100392666Y-79155047D02*
X99926000Y-79155047D01*
X100059333Y-79155047D02*
X99992666Y-79187428D01*
X99959333Y-79219809D01*
X99926000Y-79284571D01*
X99926000Y-79349333D01*
X100392666Y-79673142D02*
X100359333Y-79608380D01*
X100326000Y-79576000D01*
X100259333Y-79543619D01*
X100059333Y-79543619D01*
X99992666Y-79576000D01*
X99959333Y-79608380D01*
X99926000Y-79673142D01*
X99926000Y-79770285D01*
X99959333Y-79835047D01*
X99992666Y-79867428D01*
X100059333Y-79899809D01*
X100259333Y-79899809D01*
X100326000Y-79867428D01*
X100359333Y-79835047D01*
X100392666Y-79770285D01*
X100392666Y-79673142D01*
X100359333Y-80482666D02*
X100392666Y-80417904D01*
X100392666Y-80288380D01*
X100359333Y-80223619D01*
X100326000Y-80191238D01*
X100259333Y-80158857D01*
X100059333Y-80158857D01*
X99992666Y-80191238D01*
X99959333Y-80223619D01*
X99926000Y-80288380D01*
X99926000Y-80417904D01*
X99959333Y-80482666D01*
X100392666Y-80774095D02*
X99692666Y-80774095D01*
X100126000Y-80838857D02*
X100392666Y-81033142D01*
X99926000Y-81033142D02*
X100192666Y-80774095D01*
X100392666Y-81421714D02*
X100359333Y-81356952D01*
X100326000Y-81324571D01*
X100259333Y-81292190D01*
X100059333Y-81292190D01*
X99992666Y-81324571D01*
X99959333Y-81356952D01*
X99926000Y-81421714D01*
X99926000Y-81518857D01*
X99959333Y-81583619D01*
X99992666Y-81616000D01*
X100059333Y-81648380D01*
X100259333Y-81648380D01*
X100326000Y-81616000D01*
X100359333Y-81583619D01*
X100392666Y-81518857D01*
X100392666Y-81421714D01*
X100392666Y-82036952D02*
X100359333Y-81972190D01*
X100292666Y-81939809D01*
X99692666Y-81939809D01*
X100392666Y-82587428D02*
X100026000Y-82587428D01*
X99959333Y-82555047D01*
X99926000Y-82490285D01*
X99926000Y-82360761D01*
X99959333Y-82296000D01*
X100359333Y-82587428D02*
X100392666Y-82522666D01*
X100392666Y-82360761D01*
X100359333Y-82296000D01*
X100292666Y-82263619D01*
X100226000Y-82263619D01*
X100159333Y-82296000D01*
X100126000Y-82360761D01*
X100126000Y-82522666D01*
X100092666Y-82587428D01*
X99659333Y-83396952D02*
X100559333Y-82814095D01*
X100359333Y-83915047D02*
X100392666Y-83850285D01*
X100392666Y-83720761D01*
X100359333Y-83656000D01*
X100326000Y-83623619D01*
X100259333Y-83591238D01*
X100059333Y-83591238D01*
X99992666Y-83623619D01*
X99959333Y-83656000D01*
X99926000Y-83720761D01*
X99926000Y-83850285D01*
X99959333Y-83915047D01*
X100392666Y-84497904D02*
X100026000Y-84497904D01*
X99959333Y-84465523D01*
X99926000Y-84400761D01*
X99926000Y-84271238D01*
X99959333Y-84206476D01*
X100359333Y-84497904D02*
X100392666Y-84433142D01*
X100392666Y-84271238D01*
X100359333Y-84206476D01*
X100292666Y-84174095D01*
X100226000Y-84174095D01*
X100159333Y-84206476D01*
X100126000Y-84271238D01*
X100126000Y-84433142D01*
X100092666Y-84497904D01*
X100392666Y-84821714D02*
X99926000Y-84821714D01*
X100059333Y-84821714D02*
X99992666Y-84854095D01*
X99959333Y-84886476D01*
X99926000Y-84951238D01*
X99926000Y-85016000D01*
X100392666Y-85534095D02*
X100026000Y-85534095D01*
X99959333Y-85501714D01*
X99926000Y-85436952D01*
X99926000Y-85307428D01*
X99959333Y-85242666D01*
X100359333Y-85534095D02*
X100392666Y-85469333D01*
X100392666Y-85307428D01*
X100359333Y-85242666D01*
X100292666Y-85210285D01*
X100226000Y-85210285D01*
X100159333Y-85242666D01*
X100126000Y-85307428D01*
X100126000Y-85469333D01*
X100092666Y-85534095D01*
X100126000Y-85857904D02*
X100126000Y-86376000D01*
X100392666Y-86991238D02*
X99692666Y-86991238D01*
X100359333Y-86991238D02*
X100392666Y-86926476D01*
X100392666Y-86796952D01*
X100359333Y-86732190D01*
X100326000Y-86699809D01*
X100259333Y-86667428D01*
X100059333Y-86667428D01*
X99992666Y-86699809D01*
X99959333Y-86732190D01*
X99926000Y-86796952D01*
X99926000Y-86926476D01*
X99959333Y-86991238D01*
X100359333Y-87574095D02*
X100392666Y-87509333D01*
X100392666Y-87379809D01*
X100359333Y-87315047D01*
X100292666Y-87282666D01*
X100026000Y-87282666D01*
X99959333Y-87315047D01*
X99926000Y-87379809D01*
X99926000Y-87509333D01*
X99959333Y-87574095D01*
X100026000Y-87606476D01*
X100092666Y-87606476D01*
X100159333Y-87282666D01*
X100126000Y-87897904D02*
X100126000Y-88416000D01*
X99926000Y-88739809D02*
X100626000Y-88739809D01*
X99959333Y-88739809D02*
X99926000Y-88804571D01*
X99926000Y-88934095D01*
X99959333Y-88998857D01*
X99992666Y-89031238D01*
X100059333Y-89063619D01*
X100259333Y-89063619D01*
X100326000Y-89031238D01*
X100359333Y-88998857D01*
X100392666Y-88934095D01*
X100392666Y-88804571D01*
X100359333Y-88739809D01*
X100359333Y-89614095D02*
X100392666Y-89549333D01*
X100392666Y-89419809D01*
X100359333Y-89355047D01*
X100292666Y-89322666D01*
X100026000Y-89322666D01*
X99959333Y-89355047D01*
X99926000Y-89419809D01*
X99926000Y-89549333D01*
X99959333Y-89614095D01*
X100026000Y-89646476D01*
X100092666Y-89646476D01*
X100159333Y-89322666D01*
X100392666Y-90035047D02*
X100359333Y-89970285D01*
X100292666Y-89937904D01*
X99692666Y-89937904D01*
X99926000Y-90585523D02*
X100392666Y-90585523D01*
X99926000Y-90294095D02*
X100292666Y-90294095D01*
X100359333Y-90326476D01*
X100392666Y-90391238D01*
X100392666Y-90488380D01*
X100359333Y-90553142D01*
X100326000Y-90585523D01*
X100359333Y-90876952D02*
X100392666Y-90941714D01*
X100392666Y-91071238D01*
X100359333Y-91136000D01*
X100292666Y-91168380D01*
X100259333Y-91168380D01*
X100192666Y-91136000D01*
X100159333Y-91071238D01*
X100159333Y-90974095D01*
X100126000Y-90909333D01*
X100059333Y-90876952D01*
X100026000Y-90876952D01*
X99959333Y-90909333D01*
X99926000Y-90974095D01*
X99926000Y-91071238D01*
X99959333Y-91136000D01*
X100392666Y-91751238D02*
X100026000Y-91751238D01*
X99959333Y-91718857D01*
X99926000Y-91654095D01*
X99926000Y-91524571D01*
X99959333Y-91459809D01*
X100359333Y-91751238D02*
X100392666Y-91686476D01*
X100392666Y-91524571D01*
X100359333Y-91459809D01*
X100292666Y-91427428D01*
X100226000Y-91427428D01*
X100159333Y-91459809D01*
X100126000Y-91524571D01*
X100126000Y-91686476D01*
X100092666Y-91751238D01*
D11*
X88349500Y-90116571D02*
X88159023Y-90649904D01*
X87968547Y-90116571D01*
X87511404Y-89849904D02*
X87435214Y-89849904D01*
X87359023Y-89888000D01*
X87320928Y-89926095D01*
X87282833Y-90002285D01*
X87244738Y-90154666D01*
X87244738Y-90345142D01*
X87282833Y-90497523D01*
X87320928Y-90573714D01*
X87359023Y-90611809D01*
X87435214Y-90649904D01*
X87511404Y-90649904D01*
X87587595Y-90611809D01*
X87625690Y-90573714D01*
X87663785Y-90497523D01*
X87701880Y-90345142D01*
X87701880Y-90154666D01*
X87663785Y-90002285D01*
X87625690Y-89926095D01*
X87587595Y-89888000D01*
X87511404Y-89849904D01*
X86901880Y-90573714D02*
X86863785Y-90611809D01*
X86901880Y-90649904D01*
X86939976Y-90611809D01*
X86901880Y-90573714D01*
X86901880Y-90649904D01*
X86101880Y-90649904D02*
X86559023Y-90649904D01*
X86330452Y-90649904D02*
X86330452Y-89849904D01*
X86406642Y-89964190D01*
X86482833Y-90040380D01*
X86559023Y-90078476D01*
X93873309Y-91214095D02*
X93835214Y-91176000D01*
X93759023Y-91137904D01*
X93568547Y-91137904D01*
X93492357Y-91176000D01*
X93454261Y-91214095D01*
X93416166Y-91290285D01*
X93416166Y-91366476D01*
X93454261Y-91480761D01*
X93911404Y-91937904D01*
X93416166Y-91937904D01*
X92920928Y-91137904D02*
X92844738Y-91137904D01*
X92768547Y-91176000D01*
X92730452Y-91214095D01*
X92692357Y-91290285D01*
X92654261Y-91442666D01*
X92654261Y-91633142D01*
X92692357Y-91785523D01*
X92730452Y-91861714D01*
X92768547Y-91899809D01*
X92844738Y-91937904D01*
X92920928Y-91937904D01*
X92997119Y-91899809D01*
X93035214Y-91861714D01*
X93073309Y-91785523D01*
X93111404Y-91633142D01*
X93111404Y-91442666D01*
X93073309Y-91290285D01*
X93035214Y-91214095D01*
X92997119Y-91176000D01*
X92920928Y-91137904D01*
X92349500Y-91214095D02*
X92311404Y-91176000D01*
X92235214Y-91137904D01*
X92044738Y-91137904D01*
X91968547Y-91176000D01*
X91930452Y-91214095D01*
X91892357Y-91290285D01*
X91892357Y-91366476D01*
X91930452Y-91480761D01*
X92387595Y-91937904D01*
X91892357Y-91937904D01*
X91397119Y-91137904D02*
X91320928Y-91137904D01*
X91244738Y-91176000D01*
X91206642Y-91214095D01*
X91168547Y-91290285D01*
X91130452Y-91442666D01*
X91130452Y-91633142D01*
X91168547Y-91785523D01*
X91206642Y-91861714D01*
X91244738Y-91899809D01*
X91320928Y-91937904D01*
X91397119Y-91937904D01*
X91473309Y-91899809D01*
X91511404Y-91861714D01*
X91549500Y-91785523D01*
X91587595Y-91633142D01*
X91587595Y-91442666D01*
X91549500Y-91290285D01*
X91511404Y-91214095D01*
X91473309Y-91176000D01*
X91397119Y-91137904D01*
X90787595Y-91633142D02*
X90178071Y-91633142D01*
X89644738Y-91137904D02*
X89568547Y-91137904D01*
X89492357Y-91176000D01*
X89454261Y-91214095D01*
X89416166Y-91290285D01*
X89378071Y-91442666D01*
X89378071Y-91633142D01*
X89416166Y-91785523D01*
X89454261Y-91861714D01*
X89492357Y-91899809D01*
X89568547Y-91937904D01*
X89644738Y-91937904D01*
X89720928Y-91899809D01*
X89759023Y-91861714D01*
X89797119Y-91785523D01*
X89835214Y-91633142D01*
X89835214Y-91442666D01*
X89797119Y-91290285D01*
X89759023Y-91214095D01*
X89720928Y-91176000D01*
X89644738Y-91137904D01*
X88920928Y-91480761D02*
X88997119Y-91442666D01*
X89035214Y-91404571D01*
X89073309Y-91328380D01*
X89073309Y-91290285D01*
X89035214Y-91214095D01*
X88997119Y-91176000D01*
X88920928Y-91137904D01*
X88768547Y-91137904D01*
X88692357Y-91176000D01*
X88654261Y-91214095D01*
X88616166Y-91290285D01*
X88616166Y-91328380D01*
X88654261Y-91404571D01*
X88692357Y-91442666D01*
X88768547Y-91480761D01*
X88920928Y-91480761D01*
X88997119Y-91518857D01*
X89035214Y-91556952D01*
X89073309Y-91633142D01*
X89073309Y-91785523D01*
X89035214Y-91861714D01*
X88997119Y-91899809D01*
X88920928Y-91937904D01*
X88768547Y-91937904D01*
X88692357Y-91899809D01*
X88654261Y-91861714D01*
X88616166Y-91785523D01*
X88616166Y-91633142D01*
X88654261Y-91556952D01*
X88692357Y-91518857D01*
X88768547Y-91480761D01*
X88273309Y-91633142D02*
X87663785Y-91633142D01*
X87320928Y-91214095D02*
X87282833Y-91176000D01*
X87206642Y-91137904D01*
X87016166Y-91137904D01*
X86939976Y-91176000D01*
X86901880Y-91214095D01*
X86863785Y-91290285D01*
X86863785Y-91366476D01*
X86901880Y-91480761D01*
X87359023Y-91937904D01*
X86863785Y-91937904D01*
X86178071Y-91137904D02*
X86330452Y-91137904D01*
X86406642Y-91176000D01*
X86444738Y-91214095D01*
X86520928Y-91328380D01*
X86559023Y-91480761D01*
X86559023Y-91785523D01*
X86520928Y-91861714D01*
X86482833Y-91899809D01*
X86406642Y-91937904D01*
X86254261Y-91937904D01*
X86178071Y-91899809D01*
X86139976Y-91861714D01*
X86101880Y-91785523D01*
X86101880Y-91595047D01*
X86139976Y-91518857D01*
X86178071Y-91480761D01*
X86254261Y-91442666D01*
X86406642Y-91442666D01*
X86482833Y-91480761D01*
X86520928Y-91518857D01*
X86559023Y-91595047D01*
D12*
X114010380Y-89364285D02*
X114062761Y-89426190D01*
X114219904Y-89488095D01*
X114324666Y-89488095D01*
X114481809Y-89426190D01*
X114586571Y-89302380D01*
X114638952Y-89178571D01*
X114691333Y-88930952D01*
X114691333Y-88745238D01*
X114638952Y-88497619D01*
X114586571Y-88373809D01*
X114481809Y-88250000D01*
X114324666Y-88188095D01*
X114219904Y-88188095D01*
X114062761Y-88250000D01*
X114010380Y-88311904D01*
X113067523Y-89488095D02*
X113067523Y-88807142D01*
X113119904Y-88683333D01*
X113224666Y-88621428D01*
X113434190Y-88621428D01*
X113538952Y-88683333D01*
X113067523Y-89426190D02*
X113172285Y-89488095D01*
X113434190Y-89488095D01*
X113538952Y-89426190D01*
X113591333Y-89302380D01*
X113591333Y-89178571D01*
X113538952Y-89054761D01*
X113434190Y-88992857D01*
X113172285Y-88992857D01*
X113067523Y-88930952D01*
X112543714Y-89488095D02*
X112543714Y-88621428D01*
X112543714Y-88869047D02*
X112491333Y-88745238D01*
X112438952Y-88683333D01*
X112334190Y-88621428D01*
X112229428Y-88621428D01*
X111391333Y-89488095D02*
X111391333Y-88807142D01*
X111443714Y-88683333D01*
X111548476Y-88621428D01*
X111758000Y-88621428D01*
X111862761Y-88683333D01*
X111391333Y-89426190D02*
X111496095Y-89488095D01*
X111758000Y-89488095D01*
X111862761Y-89426190D01*
X111915142Y-89302380D01*
X111915142Y-89178571D01*
X111862761Y-89054761D01*
X111758000Y-88992857D01*
X111496095Y-88992857D01*
X111391333Y-88930952D01*
X109558000Y-89488095D02*
X109558000Y-88188095D01*
X109558000Y-89426190D02*
X109662761Y-89488095D01*
X109872285Y-89488095D01*
X109977047Y-89426190D01*
X110029428Y-89364285D01*
X110081809Y-89240476D01*
X110081809Y-88869047D01*
X110029428Y-88745238D01*
X109977047Y-88683333D01*
X109872285Y-88621428D01*
X109662761Y-88621428D01*
X109558000Y-88683333D01*
X108615142Y-89426190D02*
X108719904Y-89488095D01*
X108929428Y-89488095D01*
X109034190Y-89426190D01*
X109086571Y-89302380D01*
X109086571Y-88807142D01*
X109034190Y-88683333D01*
X108929428Y-88621428D01*
X108719904Y-88621428D01*
X108615142Y-88683333D01*
X108562761Y-88807142D01*
X108562761Y-88930952D01*
X109086571Y-89054761D01*
X107253238Y-89488095D02*
X107253238Y-88188095D01*
X106834190Y-88188095D01*
X106729428Y-88250000D01*
X106677047Y-88311904D01*
X106624666Y-88435714D01*
X106624666Y-88621428D01*
X106677047Y-88745238D01*
X106729428Y-88807142D01*
X106834190Y-88869047D01*
X107253238Y-88869047D01*
X105734190Y-89426190D02*
X105838952Y-89488095D01*
X106048476Y-89488095D01*
X106153238Y-89426190D01*
X106205619Y-89302380D01*
X106205619Y-88807142D01*
X106153238Y-88683333D01*
X106048476Y-88621428D01*
X105838952Y-88621428D01*
X105734190Y-88683333D01*
X105681809Y-88807142D01*
X105681809Y-88930952D01*
X106205619Y-89054761D01*
X105053238Y-89488095D02*
X105158000Y-89426190D01*
X105210380Y-89302380D01*
X105210380Y-88188095D01*
X104162761Y-88621428D02*
X104162761Y-89488095D01*
X104634190Y-88621428D02*
X104634190Y-89302380D01*
X104581809Y-89426190D01*
X104477047Y-89488095D01*
X104319904Y-89488095D01*
X104215142Y-89426190D01*
X104162761Y-89364285D01*
X103691333Y-89426190D02*
X103586571Y-89488095D01*
X103377047Y-89488095D01*
X103272285Y-89426190D01*
X103219904Y-89302380D01*
X103219904Y-89240476D01*
X103272285Y-89116666D01*
X103377047Y-89054761D01*
X103534190Y-89054761D01*
X103638952Y-88992857D01*
X103691333Y-88869047D01*
X103691333Y-88807142D01*
X103638952Y-88683333D01*
X103534190Y-88621428D01*
X103377047Y-88621428D01*
X103272285Y-88683333D01*
X102277047Y-89488095D02*
X102277047Y-88807142D01*
X102329428Y-88683333D01*
X102434190Y-88621428D01*
X102643714Y-88621428D01*
X102748476Y-88683333D01*
X102277047Y-89426190D02*
X102381809Y-89488095D01*
X102643714Y-89488095D01*
X102748476Y-89426190D01*
X102800857Y-89302380D01*
X102800857Y-89178571D01*
X102748476Y-89054761D01*
X102643714Y-88992857D01*
X102381809Y-88992857D01*
X102277047Y-88930952D01*
D13*
%TO.C,RV4*%
X109540523Y-84510638D02*
X109862257Y-84051019D01*
X110092066Y-84510638D02*
X110092066Y-83545438D01*
X109724371Y-83545438D01*
X109632447Y-83591400D01*
X109586485Y-83637361D01*
X109540523Y-83729285D01*
X109540523Y-83867171D01*
X109586485Y-83959095D01*
X109632447Y-84005057D01*
X109724371Y-84051019D01*
X110092066Y-84051019D01*
X109264752Y-83545438D02*
X108943019Y-84510638D01*
X108621285Y-83545438D01*
X107885895Y-83867171D02*
X107885895Y-84510638D01*
X108115704Y-83499476D02*
X108345514Y-84188904D01*
X107748009Y-84188904D01*
D14*
X112902476Y-76904904D02*
X112635809Y-77704904D01*
X112369142Y-76904904D01*
X111988190Y-77704904D02*
X112064380Y-77666809D01*
X112102476Y-77628714D01*
X112140571Y-77552523D01*
X112140571Y-77323952D01*
X112102476Y-77247761D01*
X112064380Y-77209666D01*
X111988190Y-77171571D01*
X111873904Y-77171571D01*
X111797714Y-77209666D01*
X111759619Y-77247761D01*
X111721523Y-77323952D01*
X111721523Y-77552523D01*
X111759619Y-77628714D01*
X111797714Y-77666809D01*
X111873904Y-77704904D01*
X111988190Y-77704904D01*
X111264380Y-77704904D02*
X111340571Y-77666809D01*
X111378666Y-77590619D01*
X111378666Y-76904904D01*
X110616761Y-77171571D02*
X110616761Y-77704904D01*
X110959619Y-77171571D02*
X110959619Y-77590619D01*
X110921523Y-77666809D01*
X110845333Y-77704904D01*
X110731047Y-77704904D01*
X110654857Y-77666809D01*
X110616761Y-77628714D01*
X110235809Y-77704904D02*
X110235809Y-77171571D01*
X110235809Y-77247761D02*
X110197714Y-77209666D01*
X110121523Y-77171571D01*
X110007238Y-77171571D01*
X109931047Y-77209666D01*
X109892952Y-77285857D01*
X109892952Y-77704904D01*
X109892952Y-77285857D02*
X109854857Y-77209666D01*
X109778666Y-77171571D01*
X109664380Y-77171571D01*
X109588190Y-77209666D01*
X109550095Y-77285857D01*
X109550095Y-77704904D01*
X108864380Y-77666809D02*
X108940571Y-77704904D01*
X109092952Y-77704904D01*
X109169142Y-77666809D01*
X109207238Y-77590619D01*
X109207238Y-77285857D01*
X109169142Y-77209666D01*
X109092952Y-77171571D01*
X108940571Y-77171571D01*
X108864380Y-77209666D01*
X108826285Y-77285857D01*
X108826285Y-77362047D01*
X109207238Y-77438238D01*
X107912000Y-77476333D02*
X107531047Y-77476333D01*
X107988190Y-77704904D02*
X107721523Y-76904904D01*
X107454857Y-77704904D01*
X106807238Y-76904904D02*
X107188190Y-76904904D01*
X107226285Y-77285857D01*
X107188190Y-77247761D01*
X107112000Y-77209666D01*
X106921523Y-77209666D01*
X106845333Y-77247761D01*
X106807238Y-77285857D01*
X106769142Y-77362047D01*
X106769142Y-77552523D01*
X106807238Y-77628714D01*
X106845333Y-77666809D01*
X106921523Y-77704904D01*
X107112000Y-77704904D01*
X107188190Y-77666809D01*
X107226285Y-77628714D01*
X106273904Y-76904904D02*
X106197714Y-76904904D01*
X106121523Y-76943000D01*
X106083428Y-76981095D01*
X106045333Y-77057285D01*
X106007238Y-77209666D01*
X106007238Y-77400142D01*
X106045333Y-77552523D01*
X106083428Y-77628714D01*
X106121523Y-77666809D01*
X106197714Y-77704904D01*
X106273904Y-77704904D01*
X106350095Y-77666809D01*
X106388190Y-77628714D01*
X106426285Y-77552523D01*
X106464380Y-77400142D01*
X106464380Y-77209666D01*
X106426285Y-77057285D01*
X106388190Y-76981095D01*
X106350095Y-76943000D01*
X106273904Y-76904904D01*
X105512000Y-76904904D02*
X105435809Y-76904904D01*
X105359619Y-76943000D01*
X105321523Y-76981095D01*
X105283428Y-77057285D01*
X105245333Y-77209666D01*
X105245333Y-77400142D01*
X105283428Y-77552523D01*
X105321523Y-77628714D01*
X105359619Y-77666809D01*
X105435809Y-77704904D01*
X105512000Y-77704904D01*
X105588190Y-77666809D01*
X105626285Y-77628714D01*
X105664380Y-77552523D01*
X105702476Y-77400142D01*
X105702476Y-77209666D01*
X105664380Y-77057285D01*
X105626285Y-76981095D01*
X105588190Y-76943000D01*
X105512000Y-76904904D01*
X104902476Y-77704904D02*
X104902476Y-76904904D01*
X104826285Y-77400142D02*
X104597714Y-77704904D01*
X104597714Y-77171571D02*
X104902476Y-77476333D01*
X104065285Y-76425428D02*
X104408142Y-76425428D01*
X104236714Y-76425428D02*
X104236714Y-75825428D01*
X104293857Y-75911142D01*
X104351000Y-75968285D01*
X104408142Y-75996857D01*
D13*
%TO.C,RV1*%
X91633523Y-84510638D02*
X91955257Y-84051019D01*
X92185066Y-84510638D02*
X92185066Y-83545438D01*
X91817371Y-83545438D01*
X91725447Y-83591400D01*
X91679485Y-83637361D01*
X91633523Y-83729285D01*
X91633523Y-83867171D01*
X91679485Y-83959095D01*
X91725447Y-84005057D01*
X91817371Y-84051019D01*
X92185066Y-84051019D01*
X91357752Y-83545438D02*
X91036019Y-84510638D01*
X90714285Y-83545438D01*
X89886971Y-84510638D02*
X90438514Y-84510638D01*
X90162742Y-84510638D02*
X90162742Y-83545438D01*
X90254666Y-83683323D01*
X90346590Y-83775247D01*
X90438514Y-83821209D01*
D14*
X92474761Y-78174857D02*
X92741428Y-78174857D01*
X92741428Y-78593904D02*
X92741428Y-77793904D01*
X92360476Y-77793904D01*
X91712857Y-78060571D02*
X91712857Y-78593904D01*
X92055714Y-78060571D02*
X92055714Y-78479619D01*
X92017619Y-78555809D01*
X91941428Y-78593904D01*
X91827142Y-78593904D01*
X91750952Y-78555809D01*
X91712857Y-78517714D01*
X91408095Y-78060571D02*
X90989047Y-78060571D01*
X91408095Y-78593904D01*
X90989047Y-78593904D01*
X90760476Y-78060571D02*
X90341428Y-78060571D01*
X90760476Y-78593904D01*
X90341428Y-78593904D01*
X89160476Y-78174857D02*
X89046190Y-78212952D01*
X89008095Y-78251047D01*
X88970000Y-78327238D01*
X88970000Y-78441523D01*
X89008095Y-78517714D01*
X89046190Y-78555809D01*
X89122380Y-78593904D01*
X89427142Y-78593904D01*
X89427142Y-77793904D01*
X89160476Y-77793904D01*
X89084285Y-77832000D01*
X89046190Y-77870095D01*
X89008095Y-77946285D01*
X89008095Y-78022476D01*
X89046190Y-78098666D01*
X89084285Y-78136761D01*
X89160476Y-78174857D01*
X89427142Y-78174857D01*
X88208095Y-78593904D02*
X88665238Y-78593904D01*
X88436666Y-78593904D02*
X88436666Y-77793904D01*
X88512857Y-77908190D01*
X88589047Y-77984380D01*
X88665238Y-78022476D01*
X87865238Y-78593904D02*
X87865238Y-77793904D01*
X87789047Y-78289142D02*
X87560476Y-78593904D01*
X87560476Y-78060571D02*
X87865238Y-78365333D01*
X86285285Y-76425428D02*
X86628142Y-76425428D01*
X86456714Y-76425428D02*
X86456714Y-75825428D01*
X86513857Y-75911142D01*
X86571000Y-75968285D01*
X86628142Y-75996857D01*
D11*
%TO.C,J3*%
X99313904Y-71189904D02*
X99047238Y-71989904D01*
X98780571Y-71189904D01*
X98513904Y-71685142D02*
X97904380Y-71685142D01*
X98209142Y-71989904D02*
X98209142Y-71380380D01*
X101701523Y-71228000D02*
X101777714Y-71189904D01*
X101892000Y-71189904D01*
X102006285Y-71228000D01*
X102082476Y-71304190D01*
X102120571Y-71380380D01*
X102158666Y-71532761D01*
X102158666Y-71647047D01*
X102120571Y-71799428D01*
X102082476Y-71875619D01*
X102006285Y-71951809D01*
X101892000Y-71989904D01*
X101815809Y-71989904D01*
X101701523Y-71951809D01*
X101663428Y-71913714D01*
X101663428Y-71647047D01*
X101815809Y-71647047D01*
X101320571Y-71989904D02*
X101320571Y-71189904D01*
X100863428Y-71989904D01*
X100863428Y-71189904D01*
X100482476Y-71989904D02*
X100482476Y-71189904D01*
X100292000Y-71189904D01*
X100177714Y-71228000D01*
X100101523Y-71304190D01*
X100063428Y-71380380D01*
X100025333Y-71532761D01*
X100025333Y-71647047D01*
X100063428Y-71799428D01*
X100101523Y-71875619D01*
X100177714Y-71951809D01*
X100292000Y-71989904D01*
X100482476Y-71989904D01*
%TO.C,J2*%
X104662500Y-98367904D02*
X104510119Y-98367904D01*
X104433928Y-98406000D01*
X104357738Y-98482190D01*
X104319642Y-98634571D01*
X104319642Y-98901238D01*
X104357738Y-99053619D01*
X104433928Y-99129809D01*
X104510119Y-99167904D01*
X104662500Y-99167904D01*
X104738690Y-99129809D01*
X104814880Y-99053619D01*
X104852976Y-98901238D01*
X104852976Y-98634571D01*
X104814880Y-98482190D01*
X104738690Y-98406000D01*
X104662500Y-98367904D01*
X103976785Y-98367904D02*
X103976785Y-99015523D01*
X103938690Y-99091714D01*
X103900595Y-99129809D01*
X103824404Y-99167904D01*
X103672023Y-99167904D01*
X103595833Y-99129809D01*
X103557738Y-99091714D01*
X103519642Y-99015523D01*
X103519642Y-98367904D01*
X103252976Y-98367904D02*
X102795833Y-98367904D01*
X103024404Y-99167904D02*
X103024404Y-98367904D01*
X102008214Y-99129809D02*
X101893928Y-99167904D01*
X101703452Y-99167904D01*
X101627261Y-99129809D01*
X101589166Y-99091714D01*
X101551071Y-99015523D01*
X101551071Y-98939333D01*
X101589166Y-98863142D01*
X101627261Y-98825047D01*
X101703452Y-98786952D01*
X101855833Y-98748857D01*
X101932023Y-98710761D01*
X101970119Y-98672666D01*
X102008214Y-98596476D01*
X102008214Y-98520285D01*
X101970119Y-98444095D01*
X101932023Y-98406000D01*
X101855833Y-98367904D01*
X101665357Y-98367904D01*
X101551071Y-98406000D01*
X101284404Y-98367904D02*
X101093928Y-99167904D01*
X100941547Y-98596476D01*
X100789166Y-99167904D01*
X100598690Y-98367904D01*
X99392023Y-98406000D02*
X99468214Y-98367904D01*
X99582500Y-98367904D01*
X99696785Y-98406000D01*
X99772976Y-98482190D01*
X99811071Y-98558380D01*
X99849166Y-98710761D01*
X99849166Y-98825047D01*
X99811071Y-98977428D01*
X99772976Y-99053619D01*
X99696785Y-99129809D01*
X99582500Y-99167904D01*
X99506309Y-99167904D01*
X99392023Y-99129809D01*
X99353928Y-99091714D01*
X99353928Y-98825047D01*
X99506309Y-98825047D01*
X99011071Y-99167904D02*
X99011071Y-98367904D01*
X98553928Y-99167904D01*
X98553928Y-98367904D01*
X98172976Y-99167904D02*
X98172976Y-98367904D01*
X97982500Y-98367904D01*
X97868214Y-98406000D01*
X97792023Y-98482190D01*
X97753928Y-98558380D01*
X97715833Y-98710761D01*
X97715833Y-98825047D01*
X97753928Y-98977428D01*
X97792023Y-99053619D01*
X97868214Y-99129809D01*
X97982500Y-99167904D01*
X98172976Y-99167904D01*
X96661547Y-99167904D02*
X96661547Y-98367904D01*
X96280595Y-99167904D02*
X96280595Y-98367904D01*
X95823452Y-99167904D01*
X95823452Y-98367904D01*
%TO.C,J1*%
X110337523Y-98406000D02*
X110413714Y-98367904D01*
X110528000Y-98367904D01*
X110642285Y-98406000D01*
X110718476Y-98482190D01*
X110756571Y-98558380D01*
X110794666Y-98710761D01*
X110794666Y-98825047D01*
X110756571Y-98977428D01*
X110718476Y-99053619D01*
X110642285Y-99129809D01*
X110528000Y-99167904D01*
X110451809Y-99167904D01*
X110337523Y-99129809D01*
X110299428Y-99091714D01*
X110299428Y-98825047D01*
X110451809Y-98825047D01*
X109956571Y-99167904D02*
X109956571Y-98367904D01*
X109499428Y-99167904D01*
X109499428Y-98367904D01*
X109118476Y-99167904D02*
X109118476Y-98367904D01*
X108928000Y-98367904D01*
X108813714Y-98406000D01*
X108737523Y-98482190D01*
X108699428Y-98558380D01*
X108661333Y-98710761D01*
X108661333Y-98825047D01*
X108699428Y-98977428D01*
X108737523Y-99053619D01*
X108813714Y-99129809D01*
X108928000Y-99167904D01*
X109118476Y-99167904D01*
X107949904Y-98367904D02*
X107683238Y-99167904D01*
X107416571Y-98367904D01*
X107149904Y-98863142D02*
X106540380Y-98863142D01*
X106845142Y-99167904D02*
X106845142Y-98558380D01*
%TO.C,D2*%
X100814095Y-97643904D02*
X100814095Y-96843904D01*
X100576000Y-96843904D01*
X100433142Y-96882000D01*
X100337904Y-96958190D01*
X100290285Y-97034380D01*
X100242666Y-97186761D01*
X100242666Y-97301047D01*
X100290285Y-97453428D01*
X100337904Y-97529619D01*
X100433142Y-97605809D01*
X100576000Y-97643904D01*
X100814095Y-97643904D01*
X99861714Y-96920095D02*
X99814095Y-96882000D01*
X99718857Y-96843904D01*
X99480761Y-96843904D01*
X99385523Y-96882000D01*
X99337904Y-96920095D01*
X99290285Y-96996285D01*
X99290285Y-97072476D01*
X99337904Y-97186761D01*
X99909333Y-97643904D01*
X99290285Y-97643904D01*
D10*
X98582142Y-93362428D02*
X98582142Y-92762428D01*
X98239285Y-93362428D02*
X98496428Y-93019571D01*
X98239285Y-92762428D02*
X98582142Y-93105285D01*
D14*
X100276790Y-94293571D02*
X100276790Y-94055476D01*
X99776790Y-94055476D01*
X100014885Y-94460238D02*
X100014885Y-94626904D01*
X100276790Y-94698333D02*
X100276790Y-94460238D01*
X99776790Y-94460238D01*
X99776790Y-94698333D01*
X100276790Y-94912619D02*
X99776790Y-94912619D01*
X99776790Y-95031666D01*
X99800600Y-95103095D01*
X99848219Y-95150714D01*
X99895838Y-95174523D01*
X99991076Y-95198333D01*
X100062504Y-95198333D01*
X100157742Y-95174523D01*
X100205361Y-95150714D01*
X100252980Y-95103095D01*
X100276790Y-95031666D01*
X100276790Y-94912619D01*
D10*
%TO.C,RV4*%
X104775000Y-76708000D02*
X103759000Y-77724000D01*
X103759000Y-77724000D02*
X103759000Y-81153000D01*
X103759000Y-86868000D02*
X103759000Y-83693000D01*
X113919000Y-77724000D02*
X113919000Y-81153000D01*
X113919000Y-86868000D02*
X113919000Y-83693000D01*
X109474000Y-82423000D02*
G75*
G03*
X109474000Y-82423000I-635000J0D01*
G01*
X112903000Y-74168000D02*
X112903000Y-76708000D01*
X104775000Y-74168000D02*
X112903000Y-74168000D01*
X104775000Y-76708000D02*
X104775000Y-74168000D01*
X112903000Y-76708000D02*
X104775000Y-76708000D01*
X108839000Y-82803000D02*
X108839000Y-82073000D01*
X109204000Y-82438000D02*
X108474000Y-82438000D01*
X113919000Y-77724000D02*
X112903000Y-76708000D01*
X113919000Y-86868000D02*
X113284000Y-87503000D01*
X104394000Y-87503000D02*
X103759000Y-86868000D01*
X113284000Y-87503000D02*
X104394000Y-87503000D01*
X112014000Y-82438000D02*
G75*
G03*
X112014000Y-82438000I-3175000J0D01*
G01*
%TO.C,RV1*%
X86995000Y-76708000D02*
X85979000Y-77724000D01*
X85979000Y-77724000D02*
X85979000Y-81153000D01*
X85979000Y-86868000D02*
X85979000Y-83693000D01*
X96139000Y-77724000D02*
X96139000Y-81153000D01*
X96139000Y-86868000D02*
X96139000Y-83693000D01*
X91694000Y-82423000D02*
G75*
G03*
X91694000Y-82423000I-635000J0D01*
G01*
X95123000Y-74168000D02*
X95123000Y-76708000D01*
X86995000Y-74168000D02*
X95123000Y-74168000D01*
X86995000Y-76708000D02*
X86995000Y-74168000D01*
X95123000Y-76708000D02*
X86995000Y-76708000D01*
X91059000Y-82803000D02*
X91059000Y-82073000D01*
X91424000Y-82438000D02*
X90694000Y-82438000D01*
X96139000Y-77724000D02*
X95123000Y-76708000D01*
X96139000Y-86868000D02*
X95504000Y-87503000D01*
X86614000Y-87503000D02*
X85979000Y-86868000D01*
X95504000Y-87503000D02*
X86614000Y-87503000D01*
X94234000Y-82438000D02*
G75*
G03*
X94234000Y-82438000I-3175000J0D01*
G01*
%TO.C,J3*%
X102489000Y-68453000D02*
X97409000Y-68453000D01*
X97409000Y-70993000D02*
X102489000Y-70993000D01*
X102489000Y-70993000D02*
X102489000Y-68453000D01*
X97409000Y-70993000D02*
X97409000Y-68453000D01*
X97409000Y-72263000D02*
X102489000Y-72263000D01*
X102489000Y-72263000D02*
X102489000Y-70993000D01*
X97409000Y-72263000D02*
X97409000Y-70993000D01*
%TO.C,J2*%
X94972500Y-99441000D02*
X94972500Y-98171000D01*
X105132500Y-99441000D02*
X105132500Y-98171000D01*
X94972500Y-98171000D02*
X105132500Y-98171000D01*
X94972500Y-101981000D02*
X94972500Y-99441000D01*
X105132500Y-101981000D02*
X105132500Y-99441000D01*
X94972500Y-101981000D02*
X105132500Y-101981000D01*
X105132500Y-99441000D02*
X94972500Y-99441000D01*
%TO.C,J1*%
X106045000Y-99441000D02*
X106045000Y-98171000D01*
X111125000Y-99441000D02*
X111125000Y-98171000D01*
X106045000Y-98171000D02*
X111125000Y-98171000D01*
X106045000Y-101981000D02*
X106045000Y-99441000D01*
X111125000Y-101981000D02*
X111125000Y-99441000D01*
X106045000Y-101981000D02*
X111125000Y-101981000D01*
X111125000Y-99441000D02*
X106045000Y-99441000D01*
D15*
%TO.C,D2*%
X101748334Y-95693607D02*
G75*
G02*
X98806000Y-96189800I-1697655J1094939D01*
G01*
X101117130Y-93535163D02*
G75*
G03*
X99035039Y-93535000I-1041130J-1079837D01*
G01*
X101117130Y-95694837D02*
G75*
G02*
X99035039Y-95695000I-1041130J1079837D01*
G01*
X101748334Y-93536393D02*
G75*
G03*
X98806000Y-93141800I-1639431J-1057386D01*
G01*
X98755200Y-96139000D02*
X98755200Y-95695000D01*
X98806000Y-93497400D02*
X98806000Y-93141800D01*
%TD*%
%LPC*%
D16*
%TO.C,RV4*%
X103839000Y-82438000D03*
X113839000Y-82438000D03*
D17*
X111379000Y-75438000D03*
X108839000Y-75438000D03*
D18*
X106299000Y-75438000D03*
%TD*%
D16*
%TO.C,RV1*%
X86059000Y-82438000D03*
X96059000Y-82438000D03*
D17*
X93599000Y-75438000D03*
X91059000Y-75438000D03*
D18*
X88519000Y-75438000D03*
%TD*%
D17*
%TO.C,RV5*%
X108839000Y-81534000D03*
X106299000Y-84074000D03*
X108839000Y-86614000D03*
%TD*%
D19*
%TO.C,R6*%
X113919000Y-100965000D03*
D20*
X113919000Y-93345000D03*
%TD*%
D19*
%TO.C,R5*%
X111252000Y-96647000D03*
D20*
X103632000Y-96647000D03*
%TD*%
D19*
%TO.C,R4*%
X92710000Y-88900000D03*
D20*
X92710000Y-81280000D03*
%TD*%
D19*
%TO.C,R3*%
X89408000Y-88900000D03*
D20*
X89408000Y-81280000D03*
%TD*%
D19*
%TO.C,R2*%
X86360000Y-78613000D03*
D20*
X93980000Y-78613000D03*
%TD*%
D19*
%TO.C,R1*%
X86233000Y-87757000D03*
D20*
X86233000Y-95377000D03*
%TD*%
D17*
%TO.C,Q2*%
X102743000Y-91059000D03*
X105283000Y-91059000D03*
X107823000Y-91059000D03*
D18*
X110363000Y-91059000D03*
%TD*%
D17*
%TO.C,Q1*%
X88900000Y-93599000D03*
X91440000Y-93599000D03*
X93980000Y-93599000D03*
D18*
X96520000Y-93599000D03*
%TD*%
D17*
%TO.C,J3*%
X101219000Y-69723000D03*
D18*
X98679000Y-69723000D03*
%TD*%
D17*
%TO.C,J2*%
X103862500Y-100711000D03*
X101322500Y-100711000D03*
X98782500Y-100711000D03*
D18*
X96242500Y-100711000D03*
%TD*%
D17*
%TO.C,J1*%
X109855000Y-100711000D03*
D18*
X107315000Y-100711000D03*
%TD*%
D21*
%TO.C,D2*%
X101346000Y-94615000D03*
D22*
X98806000Y-94615000D03*
%TD*%
D23*
%TO.C,D1*%
X98298000Y-74676000D03*
D24*
X98298000Y-84836000D03*
%TD*%
D20*
%TO.C,C7*%
X101727000Y-79295000D03*
X101727000Y-74295000D03*
%TD*%
%TO.C,C6*%
X113919000Y-85805000D03*
X113919000Y-90805000D03*
%TD*%
%TO.C,C5*%
X107148000Y-71120000D03*
D25*
X104648000Y-71120000D03*
%TD*%
D20*
%TO.C,C4*%
X96473000Y-87884000D03*
X101473000Y-87884000D03*
%TD*%
%TO.C,C3*%
X112950000Y-78740000D03*
X107950000Y-78740000D03*
%TD*%
%TO.C,C2*%
X94956000Y-71120000D03*
D25*
X92456000Y-71120000D03*
%TD*%
D20*
%TO.C,C1*%
X86527000Y-99314000D03*
D25*
X89027000Y-99314000D03*
%TD*%
M02*
