%TF.GenerationSoftware,KiCad,Pcbnew,6.0.0+dfsg1-2*%
%TF.CreationDate,2022-01-11T20:57:40+02:00*%
%TF.ProjectId,cara-de-pelusa,63617261-2d64-4652-9d70-656c7573612e,rev?*%
%TF.SameCoordinates,Original*%
%TF.FileFunction,Legend,Top*%
%TF.FilePolarity,Positive*%
%FSLAX46Y46*%
G04 Gerber Fmt 4.6, Leading zero omitted, Abs format (unit mm)*
G04 Created by KiCad (PCBNEW 6.0.0+dfsg1-2) date 2022-01-11 20:57:40*
%MOMM*%
%LPD*%
G01*
G04 APERTURE LIST*
%ADD10C,0.150000*%
%ADD11C,0.081280*%
%ADD12C,0.100000*%
%ADD13C,0.127000*%
%ADD14C,0.120000*%
%ADD15C,0.152400*%
%ADD16C,0.304800*%
%ADD17R,1.930400X1.930400*%
%ADD18O,1.930400X1.930400*%
%ADD19R,1.600000X1.600000*%
%ADD20C,1.600000*%
%ADD21O,1.600000X1.600000*%
%ADD22O,2.250000X2.250000*%
%ADD23R,2.200000X2.200000*%
%ADD24O,2.200000X2.200000*%
%ADD25R,1.800000X1.800000*%
%ADD26C,1.800000*%
G04 APERTURE END LIST*
D10*
%TO.C,J3*%
X97917095Y-71189904D02*
X98183761Y-71989904D01*
X98450428Y-71189904D01*
X98717095Y-71685142D02*
X99326619Y-71685142D01*
X99021857Y-71989904D02*
X99021857Y-71380380D01*
X100482476Y-71228000D02*
X100406285Y-71189904D01*
X100292000Y-71189904D01*
X100177714Y-71228000D01*
X100101523Y-71304190D01*
X100063428Y-71380380D01*
X100025333Y-71532761D01*
X100025333Y-71647047D01*
X100063428Y-71799428D01*
X100101523Y-71875619D01*
X100177714Y-71951809D01*
X100292000Y-71989904D01*
X100368190Y-71989904D01*
X100482476Y-71951809D01*
X100520571Y-71913714D01*
X100520571Y-71647047D01*
X100368190Y-71647047D01*
X100863428Y-71989904D02*
X100863428Y-71189904D01*
X101320571Y-71989904D01*
X101320571Y-71189904D01*
X101701523Y-71989904D02*
X101701523Y-71189904D01*
X101892000Y-71189904D01*
X102006285Y-71228000D01*
X102082476Y-71304190D01*
X102120571Y-71380380D01*
X102158666Y-71532761D01*
X102158666Y-71647047D01*
X102120571Y-71799428D01*
X102082476Y-71875619D01*
X102006285Y-71951809D01*
X101892000Y-71989904D01*
X101701523Y-71989904D01*
%TO.C,C5*%
X109307333Y-73128142D02*
X109259714Y-73175761D01*
X109116857Y-73223380D01*
X109021619Y-73223380D01*
X108878761Y-73175761D01*
X108783523Y-73080523D01*
X108735904Y-72985285D01*
X108688285Y-72794809D01*
X108688285Y-72651952D01*
X108735904Y-72461476D01*
X108783523Y-72366238D01*
X108878761Y-72271000D01*
X109021619Y-72223380D01*
X109116857Y-72223380D01*
X109259714Y-72271000D01*
X109307333Y-72318619D01*
X110212095Y-72223380D02*
X109735904Y-72223380D01*
X109688285Y-72699571D01*
X109735904Y-72651952D01*
X109831142Y-72604333D01*
X110069238Y-72604333D01*
X110164476Y-72651952D01*
X110212095Y-72699571D01*
X110259714Y-72794809D01*
X110259714Y-73032904D01*
X110212095Y-73128142D01*
X110164476Y-73175761D01*
X110069238Y-73223380D01*
X109831142Y-73223380D01*
X109735904Y-73175761D01*
X109688285Y-73128142D01*
%TO.C,R2*%
X90003333Y-79065380D02*
X89670000Y-78589190D01*
X89431904Y-79065380D02*
X89431904Y-78065380D01*
X89812857Y-78065380D01*
X89908095Y-78113000D01*
X89955714Y-78160619D01*
X90003333Y-78255857D01*
X90003333Y-78398714D01*
X89955714Y-78493952D01*
X89908095Y-78541571D01*
X89812857Y-78589190D01*
X89431904Y-78589190D01*
X90384285Y-78160619D02*
X90431904Y-78113000D01*
X90527142Y-78065380D01*
X90765238Y-78065380D01*
X90860476Y-78113000D01*
X90908095Y-78160619D01*
X90955714Y-78255857D01*
X90955714Y-78351095D01*
X90908095Y-78493952D01*
X90336666Y-79065380D01*
X90955714Y-79065380D01*
%TO.C,R6*%
X114371380Y-97321666D02*
X113895190Y-97655000D01*
X114371380Y-97893095D02*
X113371380Y-97893095D01*
X113371380Y-97512142D01*
X113419000Y-97416904D01*
X113466619Y-97369285D01*
X113561857Y-97321666D01*
X113704714Y-97321666D01*
X113799952Y-97369285D01*
X113847571Y-97416904D01*
X113895190Y-97512142D01*
X113895190Y-97893095D01*
X113371380Y-96464523D02*
X113371380Y-96655000D01*
X113419000Y-96750238D01*
X113466619Y-96797857D01*
X113609476Y-96893095D01*
X113799952Y-96940714D01*
X114180904Y-96940714D01*
X114276142Y-96893095D01*
X114323761Y-96845476D01*
X114371380Y-96750238D01*
X114371380Y-96559761D01*
X114323761Y-96464523D01*
X114276142Y-96416904D01*
X114180904Y-96369285D01*
X113942809Y-96369285D01*
X113847571Y-96416904D01*
X113799952Y-96464523D01*
X113752333Y-96559761D01*
X113752333Y-96750238D01*
X113799952Y-96845476D01*
X113847571Y-96893095D01*
X113942809Y-96940714D01*
%TO.C,R1*%
X86685380Y-91733666D02*
X86209190Y-92067000D01*
X86685380Y-92305095D02*
X85685380Y-92305095D01*
X85685380Y-91924142D01*
X85733000Y-91828904D01*
X85780619Y-91781285D01*
X85875857Y-91733666D01*
X86018714Y-91733666D01*
X86113952Y-91781285D01*
X86161571Y-91828904D01*
X86209190Y-91924142D01*
X86209190Y-92305095D01*
X86685380Y-90781285D02*
X86685380Y-91352714D01*
X86685380Y-91067000D02*
X85685380Y-91067000D01*
X85828238Y-91162238D01*
X85923476Y-91257476D01*
X85971095Y-91352714D01*
%TO.C,R4*%
X93162380Y-85256666D02*
X92686190Y-85590000D01*
X93162380Y-85828095D02*
X92162380Y-85828095D01*
X92162380Y-85447142D01*
X92210000Y-85351904D01*
X92257619Y-85304285D01*
X92352857Y-85256666D01*
X92495714Y-85256666D01*
X92590952Y-85304285D01*
X92638571Y-85351904D01*
X92686190Y-85447142D01*
X92686190Y-85828095D01*
X92495714Y-84399523D02*
X93162380Y-84399523D01*
X92114761Y-84637619D02*
X92829047Y-84875714D01*
X92829047Y-84256666D01*
%TO.C,C6*%
X114276142Y-88471666D02*
X114323761Y-88519285D01*
X114371380Y-88662142D01*
X114371380Y-88757380D01*
X114323761Y-88900238D01*
X114228523Y-88995476D01*
X114133285Y-89043095D01*
X113942809Y-89090714D01*
X113799952Y-89090714D01*
X113609476Y-89043095D01*
X113514238Y-88995476D01*
X113419000Y-88900238D01*
X113371380Y-88757380D01*
X113371380Y-88662142D01*
X113419000Y-88519285D01*
X113466619Y-88471666D01*
X113371380Y-87614523D02*
X113371380Y-87805000D01*
X113419000Y-87900238D01*
X113466619Y-87947857D01*
X113609476Y-88043095D01*
X113799952Y-88090714D01*
X114180904Y-88090714D01*
X114276142Y-88043095D01*
X114323761Y-87995476D01*
X114371380Y-87900238D01*
X114371380Y-87709761D01*
X114323761Y-87614523D01*
X114276142Y-87566904D01*
X114180904Y-87519285D01*
X113942809Y-87519285D01*
X113847571Y-87566904D01*
X113799952Y-87614523D01*
X113752333Y-87709761D01*
X113752333Y-87900238D01*
X113799952Y-87995476D01*
X113847571Y-88043095D01*
X113942809Y-88090714D01*
%TO.C,RV5*%
X112085380Y-84034238D02*
X111609190Y-84367571D01*
X112085380Y-84605666D02*
X111085380Y-84605666D01*
X111085380Y-84224714D01*
X111133000Y-84129476D01*
X111180619Y-84081857D01*
X111275857Y-84034238D01*
X111418714Y-84034238D01*
X111513952Y-84081857D01*
X111561571Y-84129476D01*
X111609190Y-84224714D01*
X111609190Y-84605666D01*
X111085380Y-83748523D02*
X112085380Y-83415190D01*
X111085380Y-83081857D01*
X111085380Y-82272333D02*
X111085380Y-82748523D01*
X111561571Y-82796142D01*
X111513952Y-82748523D01*
X111466333Y-82653285D01*
X111466333Y-82415190D01*
X111513952Y-82319952D01*
X111561571Y-82272333D01*
X111656809Y-82224714D01*
X111894904Y-82224714D01*
X111990142Y-82272333D01*
X112037761Y-82319952D01*
X112085380Y-82415190D01*
X112085380Y-82653285D01*
X112037761Y-82748523D01*
X111990142Y-82796142D01*
D11*
X106634038Y-86587777D02*
X106634038Y-87139320D01*
X106634038Y-86863548D02*
X105668838Y-86863548D01*
X105806723Y-86955472D01*
X105898647Y-87047396D01*
X105944609Y-87139320D01*
D12*
%TO.C,RV1*%
X86688714Y-76552428D02*
X86345857Y-76552428D01*
X86517285Y-76552428D02*
X86517285Y-75952428D01*
X86460142Y-76038142D01*
X86403000Y-76095285D01*
X86345857Y-76123857D01*
D10*
%TO.C,R3*%
X89860380Y-85256666D02*
X89384190Y-85590000D01*
X89860380Y-85828095D02*
X88860380Y-85828095D01*
X88860380Y-85447142D01*
X88908000Y-85351904D01*
X88955619Y-85304285D01*
X89050857Y-85256666D01*
X89193714Y-85256666D01*
X89288952Y-85304285D01*
X89336571Y-85351904D01*
X89384190Y-85447142D01*
X89384190Y-85828095D01*
X88860380Y-84923333D02*
X88860380Y-84304285D01*
X89241333Y-84637619D01*
X89241333Y-84494761D01*
X89288952Y-84399523D01*
X89336571Y-84351904D01*
X89431809Y-84304285D01*
X89669904Y-84304285D01*
X89765142Y-84351904D01*
X89812761Y-84399523D01*
X89860380Y-84494761D01*
X89860380Y-84780476D01*
X89812761Y-84875714D01*
X89765142Y-84923333D01*
%TO.C,C7*%
X102084142Y-76961666D02*
X102131761Y-77009285D01*
X102179380Y-77152142D01*
X102179380Y-77247380D01*
X102131761Y-77390238D01*
X102036523Y-77485476D01*
X101941285Y-77533095D01*
X101750809Y-77580714D01*
X101607952Y-77580714D01*
X101417476Y-77533095D01*
X101322238Y-77485476D01*
X101227000Y-77390238D01*
X101179380Y-77247380D01*
X101179380Y-77152142D01*
X101227000Y-77009285D01*
X101274619Y-76961666D01*
X101179380Y-76628333D02*
X101179380Y-75961666D01*
X102179380Y-76390238D01*
%TO.C,D1*%
X98750380Y-80240095D02*
X97750380Y-80240095D01*
X97750380Y-80002000D01*
X97798000Y-79859142D01*
X97893238Y-79763904D01*
X97988476Y-79716285D01*
X98178952Y-79668666D01*
X98321809Y-79668666D01*
X98512285Y-79716285D01*
X98607523Y-79763904D01*
X98702761Y-79859142D01*
X98750380Y-80002000D01*
X98750380Y-80240095D01*
X98750380Y-78716285D02*
X98750380Y-79287714D01*
X98750380Y-79002000D02*
X97750380Y-79002000D01*
X97893238Y-79097238D01*
X97988476Y-79192476D01*
X98036095Y-79287714D01*
X99639380Y-83319904D02*
X98639380Y-83319904D01*
X99639380Y-82748476D02*
X99067952Y-83177047D01*
X98639380Y-82748476D02*
X99210809Y-83319904D01*
%TO.C,Q2*%
X106231309Y-88722095D02*
X106155119Y-88684000D01*
X106078928Y-88607809D01*
X105964642Y-88493523D01*
X105888452Y-88455428D01*
X105812261Y-88455428D01*
X105850357Y-88645904D02*
X105774166Y-88607809D01*
X105697976Y-88531619D01*
X105659880Y-88379238D01*
X105659880Y-88112571D01*
X105697976Y-87960190D01*
X105774166Y-87884000D01*
X105850357Y-87845904D01*
X106002738Y-87845904D01*
X106078928Y-87884000D01*
X106155119Y-87960190D01*
X106193214Y-88112571D01*
X106193214Y-88379238D01*
X106155119Y-88531619D01*
X106078928Y-88607809D01*
X106002738Y-88645904D01*
X105850357Y-88645904D01*
X106497976Y-87922095D02*
X106536071Y-87884000D01*
X106612261Y-87845904D01*
X106802738Y-87845904D01*
X106878928Y-87884000D01*
X106917023Y-87922095D01*
X106955119Y-87998285D01*
X106955119Y-88074476D01*
X106917023Y-88188761D01*
X106459880Y-88645904D01*
X106955119Y-88645904D01*
X102444571Y-92525857D02*
X102711238Y-92525857D01*
X102825523Y-92944904D02*
X102444571Y-92944904D01*
X102444571Y-92144904D01*
X102825523Y-92144904D01*
X110661428Y-89592142D02*
X110394761Y-89592142D01*
X110280476Y-89173095D02*
X110661428Y-89173095D01*
X110661428Y-89973095D01*
X110280476Y-89973095D01*
X108007142Y-92525857D02*
X108121428Y-92563952D01*
X108159523Y-92602047D01*
X108197619Y-92678238D01*
X108197619Y-92792523D01*
X108159523Y-92868714D01*
X108121428Y-92906809D01*
X108045238Y-92944904D01*
X107740476Y-92944904D01*
X107740476Y-92144904D01*
X108007142Y-92144904D01*
X108083333Y-92183000D01*
X108121428Y-92221095D01*
X108159523Y-92297285D01*
X108159523Y-92373476D01*
X108121428Y-92449666D01*
X108083333Y-92487761D01*
X108007142Y-92525857D01*
X107740476Y-92525857D01*
X104908380Y-89249285D02*
X104946476Y-89211190D01*
X105060761Y-89173095D01*
X105136952Y-89173095D01*
X105251238Y-89211190D01*
X105327428Y-89287380D01*
X105365523Y-89363571D01*
X105403619Y-89515952D01*
X105403619Y-89630238D01*
X105365523Y-89782619D01*
X105327428Y-89858809D01*
X105251238Y-89935000D01*
X105136952Y-89973095D01*
X105060761Y-89973095D01*
X104946476Y-89935000D01*
X104908380Y-89896904D01*
X107765857Y-89592142D02*
X107651571Y-89554047D01*
X107613476Y-89515952D01*
X107575380Y-89439761D01*
X107575380Y-89325476D01*
X107613476Y-89249285D01*
X107651571Y-89211190D01*
X107727761Y-89173095D01*
X108032523Y-89173095D01*
X108032523Y-89973095D01*
X107765857Y-89973095D01*
X107689666Y-89935000D01*
X107651571Y-89896904D01*
X107613476Y-89820714D01*
X107613476Y-89744523D01*
X107651571Y-89668333D01*
X107689666Y-89630238D01*
X107765857Y-89592142D01*
X108032523Y-89592142D01*
X105530619Y-92868714D02*
X105492523Y-92906809D01*
X105378238Y-92944904D01*
X105302047Y-92944904D01*
X105187761Y-92906809D01*
X105111571Y-92830619D01*
X105073476Y-92754428D01*
X105035380Y-92602047D01*
X105035380Y-92487761D01*
X105073476Y-92335380D01*
X105111571Y-92259190D01*
X105187761Y-92183000D01*
X105302047Y-92144904D01*
X105378238Y-92144904D01*
X105492523Y-92183000D01*
X105530619Y-92221095D01*
%TO.C,C1*%
X91146333Y-98147142D02*
X91098714Y-98194761D01*
X90955857Y-98242380D01*
X90860619Y-98242380D01*
X90717761Y-98194761D01*
X90622523Y-98099523D01*
X90574904Y-98004285D01*
X90527285Y-97813809D01*
X90527285Y-97670952D01*
X90574904Y-97480476D01*
X90622523Y-97385238D01*
X90717761Y-97290000D01*
X90860619Y-97242380D01*
X90955857Y-97242380D01*
X91098714Y-97290000D01*
X91146333Y-97337619D01*
X92098714Y-98242380D02*
X91527285Y-98242380D01*
X91813000Y-98242380D02*
X91813000Y-97242380D01*
X91717761Y-97385238D01*
X91622523Y-97480476D01*
X91527285Y-97528095D01*
%TO.C,J2*%
X103062500Y-98367904D02*
X103214880Y-98367904D01*
X103291071Y-98406000D01*
X103367261Y-98482190D01*
X103405357Y-98634571D01*
X103405357Y-98901238D01*
X103367261Y-99053619D01*
X103291071Y-99129809D01*
X103214880Y-99167904D01*
X103062500Y-99167904D01*
X102986309Y-99129809D01*
X102910119Y-99053619D01*
X102872023Y-98901238D01*
X102872023Y-98634571D01*
X102910119Y-98482190D01*
X102986309Y-98406000D01*
X103062500Y-98367904D01*
X103748214Y-98367904D02*
X103748214Y-99015523D01*
X103786309Y-99091714D01*
X103824404Y-99129809D01*
X103900595Y-99167904D01*
X104052976Y-99167904D01*
X104129166Y-99129809D01*
X104167261Y-99091714D01*
X104205357Y-99015523D01*
X104205357Y-98367904D01*
X104472023Y-98367904D02*
X104929166Y-98367904D01*
X104700595Y-99167904D02*
X104700595Y-98367904D01*
X100636785Y-99129809D02*
X100751071Y-99167904D01*
X100941547Y-99167904D01*
X101017738Y-99129809D01*
X101055833Y-99091714D01*
X101093928Y-99015523D01*
X101093928Y-98939333D01*
X101055833Y-98863142D01*
X101017738Y-98825047D01*
X100941547Y-98786952D01*
X100789166Y-98748857D01*
X100712976Y-98710761D01*
X100674880Y-98672666D01*
X100636785Y-98596476D01*
X100636785Y-98520285D01*
X100674880Y-98444095D01*
X100712976Y-98406000D01*
X100789166Y-98367904D01*
X100979642Y-98367904D01*
X101093928Y-98406000D01*
X101360595Y-98367904D02*
X101551071Y-99167904D01*
X101703452Y-98596476D01*
X101855833Y-99167904D01*
X102046309Y-98367904D01*
X95823452Y-99167904D02*
X95823452Y-98367904D01*
X96204404Y-99167904D02*
X96204404Y-98367904D01*
X96661547Y-99167904D01*
X96661547Y-98367904D01*
X98172976Y-98406000D02*
X98096785Y-98367904D01*
X97982500Y-98367904D01*
X97868214Y-98406000D01*
X97792023Y-98482190D01*
X97753928Y-98558380D01*
X97715833Y-98710761D01*
X97715833Y-98825047D01*
X97753928Y-98977428D01*
X97792023Y-99053619D01*
X97868214Y-99129809D01*
X97982500Y-99167904D01*
X98058690Y-99167904D01*
X98172976Y-99129809D01*
X98211071Y-99091714D01*
X98211071Y-98825047D01*
X98058690Y-98825047D01*
X98553928Y-99167904D02*
X98553928Y-98367904D01*
X99011071Y-99167904D01*
X99011071Y-98367904D01*
X99392023Y-99167904D02*
X99392023Y-98367904D01*
X99582500Y-98367904D01*
X99696785Y-98406000D01*
X99772976Y-98482190D01*
X99811071Y-98558380D01*
X99849166Y-98710761D01*
X99849166Y-98825047D01*
X99811071Y-98977428D01*
X99772976Y-99053619D01*
X99696785Y-99129809D01*
X99582500Y-99167904D01*
X99392023Y-99167904D01*
%TO.C,C3*%
X110283333Y-79097142D02*
X110235714Y-79144761D01*
X110092857Y-79192380D01*
X109997619Y-79192380D01*
X109854761Y-79144761D01*
X109759523Y-79049523D01*
X109711904Y-78954285D01*
X109664285Y-78763809D01*
X109664285Y-78620952D01*
X109711904Y-78430476D01*
X109759523Y-78335238D01*
X109854761Y-78240000D01*
X109997619Y-78192380D01*
X110092857Y-78192380D01*
X110235714Y-78240000D01*
X110283333Y-78287619D01*
X110616666Y-78192380D02*
X111235714Y-78192380D01*
X110902380Y-78573333D01*
X111045238Y-78573333D01*
X111140476Y-78620952D01*
X111188095Y-78668571D01*
X111235714Y-78763809D01*
X111235714Y-79001904D01*
X111188095Y-79097142D01*
X111140476Y-79144761D01*
X111045238Y-79192380D01*
X110759523Y-79192380D01*
X110664285Y-79144761D01*
X110616666Y-79097142D01*
%TO.C,C2*%
X90130333Y-73255142D02*
X90082714Y-73302761D01*
X89939857Y-73350380D01*
X89844619Y-73350380D01*
X89701761Y-73302761D01*
X89606523Y-73207523D01*
X89558904Y-73112285D01*
X89511285Y-72921809D01*
X89511285Y-72778952D01*
X89558904Y-72588476D01*
X89606523Y-72493238D01*
X89701761Y-72398000D01*
X89844619Y-72350380D01*
X89939857Y-72350380D01*
X90082714Y-72398000D01*
X90130333Y-72445619D01*
X90511285Y-72445619D02*
X90558904Y-72398000D01*
X90654142Y-72350380D01*
X90892238Y-72350380D01*
X90987476Y-72398000D01*
X91035095Y-72445619D01*
X91082714Y-72540857D01*
X91082714Y-72636095D01*
X91035095Y-72778952D01*
X90463666Y-73350380D01*
X91082714Y-73350380D01*
%TO.C,Q1*%
X92388309Y-91135095D02*
X92312119Y-91097000D01*
X92235928Y-91020809D01*
X92121642Y-90906523D01*
X92045452Y-90868428D01*
X91969261Y-90868428D01*
X92007357Y-91058904D02*
X91931166Y-91020809D01*
X91854976Y-90944619D01*
X91816880Y-90792238D01*
X91816880Y-90525571D01*
X91854976Y-90373190D01*
X91931166Y-90297000D01*
X92007357Y-90258904D01*
X92159738Y-90258904D01*
X92235928Y-90297000D01*
X92312119Y-90373190D01*
X92350214Y-90525571D01*
X92350214Y-90792238D01*
X92312119Y-90944619D01*
X92235928Y-91020809D01*
X92159738Y-91058904D01*
X92007357Y-91058904D01*
X93112119Y-91058904D02*
X92654976Y-91058904D01*
X92883547Y-91058904D02*
X92883547Y-90258904D01*
X92807357Y-90373190D01*
X92731166Y-90449380D01*
X92654976Y-90487476D01*
X91687619Y-95408714D02*
X91649523Y-95446809D01*
X91535238Y-95484904D01*
X91459047Y-95484904D01*
X91344761Y-95446809D01*
X91268571Y-95370619D01*
X91230476Y-95294428D01*
X91192380Y-95142047D01*
X91192380Y-95027761D01*
X91230476Y-94875380D01*
X91268571Y-94799190D01*
X91344761Y-94723000D01*
X91459047Y-94684904D01*
X91535238Y-94684904D01*
X91649523Y-94723000D01*
X91687619Y-94761095D01*
X88601571Y-95065857D02*
X88868238Y-95065857D01*
X88982523Y-95484904D02*
X88601571Y-95484904D01*
X88601571Y-94684904D01*
X88982523Y-94684904D01*
X96818428Y-92132142D02*
X96551761Y-92132142D01*
X96437476Y-91713095D02*
X96818428Y-91713095D01*
X96818428Y-92513095D01*
X96437476Y-92513095D01*
X91065380Y-91789285D02*
X91103476Y-91751190D01*
X91217761Y-91713095D01*
X91293952Y-91713095D01*
X91408238Y-91751190D01*
X91484428Y-91827380D01*
X91522523Y-91903571D01*
X91560619Y-92055952D01*
X91560619Y-92170238D01*
X91522523Y-92322619D01*
X91484428Y-92398809D01*
X91408238Y-92475000D01*
X91293952Y-92513095D01*
X91217761Y-92513095D01*
X91103476Y-92475000D01*
X91065380Y-92436904D01*
X94164142Y-95065857D02*
X94278428Y-95103952D01*
X94316523Y-95142047D01*
X94354619Y-95218238D01*
X94354619Y-95332523D01*
X94316523Y-95408714D01*
X94278428Y-95446809D01*
X94202238Y-95484904D01*
X93897476Y-95484904D01*
X93897476Y-94684904D01*
X94164142Y-94684904D01*
X94240333Y-94723000D01*
X94278428Y-94761095D01*
X94316523Y-94837285D01*
X94316523Y-94913476D01*
X94278428Y-94989666D01*
X94240333Y-95027761D01*
X94164142Y-95065857D01*
X93897476Y-95065857D01*
X93922857Y-92132142D02*
X93808571Y-92094047D01*
X93770476Y-92055952D01*
X93732380Y-91979761D01*
X93732380Y-91865476D01*
X93770476Y-91789285D01*
X93808571Y-91751190D01*
X93884761Y-91713095D01*
X94189523Y-91713095D01*
X94189523Y-92513095D01*
X93922857Y-92513095D01*
X93846666Y-92475000D01*
X93808571Y-92436904D01*
X93770476Y-92360714D01*
X93770476Y-92284523D01*
X93808571Y-92208333D01*
X93846666Y-92170238D01*
X93922857Y-92132142D01*
X94189523Y-92132142D01*
%TO.C,C4*%
X98806333Y-88241142D02*
X98758714Y-88288761D01*
X98615857Y-88336380D01*
X98520619Y-88336380D01*
X98377761Y-88288761D01*
X98282523Y-88193523D01*
X98234904Y-88098285D01*
X98187285Y-87907809D01*
X98187285Y-87764952D01*
X98234904Y-87574476D01*
X98282523Y-87479238D01*
X98377761Y-87384000D01*
X98520619Y-87336380D01*
X98615857Y-87336380D01*
X98758714Y-87384000D01*
X98806333Y-87431619D01*
X99663476Y-87669714D02*
X99663476Y-88336380D01*
X99425380Y-87288761D02*
X99187285Y-88003047D01*
X99806333Y-88003047D01*
%TO.C,J1*%
X106553095Y-98367904D02*
X106819761Y-99167904D01*
X107086428Y-98367904D01*
X107353095Y-98863142D02*
X107962619Y-98863142D01*
X107657857Y-99167904D02*
X107657857Y-98558380D01*
X109245476Y-98406000D02*
X109169285Y-98367904D01*
X109055000Y-98367904D01*
X108940714Y-98406000D01*
X108864523Y-98482190D01*
X108826428Y-98558380D01*
X108788333Y-98710761D01*
X108788333Y-98825047D01*
X108826428Y-98977428D01*
X108864523Y-99053619D01*
X108940714Y-99129809D01*
X109055000Y-99167904D01*
X109131190Y-99167904D01*
X109245476Y-99129809D01*
X109283571Y-99091714D01*
X109283571Y-98825047D01*
X109131190Y-98825047D01*
X109626428Y-99167904D02*
X109626428Y-98367904D01*
X110083571Y-99167904D01*
X110083571Y-98367904D01*
X110464523Y-99167904D02*
X110464523Y-98367904D01*
X110655000Y-98367904D01*
X110769285Y-98406000D01*
X110845476Y-98482190D01*
X110883571Y-98558380D01*
X110921666Y-98710761D01*
X110921666Y-98825047D01*
X110883571Y-98977428D01*
X110845476Y-99053619D01*
X110769285Y-99129809D01*
X110655000Y-99167904D01*
X110464523Y-99167904D01*
%TO.C,R5*%
X107275333Y-97099380D02*
X106942000Y-96623190D01*
X106703904Y-97099380D02*
X106703904Y-96099380D01*
X107084857Y-96099380D01*
X107180095Y-96147000D01*
X107227714Y-96194619D01*
X107275333Y-96289857D01*
X107275333Y-96432714D01*
X107227714Y-96527952D01*
X107180095Y-96575571D01*
X107084857Y-96623190D01*
X106703904Y-96623190D01*
X108180095Y-96099380D02*
X107703904Y-96099380D01*
X107656285Y-96575571D01*
X107703904Y-96527952D01*
X107799142Y-96480333D01*
X108037238Y-96480333D01*
X108132476Y-96527952D01*
X108180095Y-96575571D01*
X108227714Y-96670809D01*
X108227714Y-96908904D01*
X108180095Y-97004142D01*
X108132476Y-97051761D01*
X108037238Y-97099380D01*
X107799142Y-97099380D01*
X107703904Y-97051761D01*
X107656285Y-97004142D01*
D12*
%TO.C,RV4*%
X104468714Y-76552428D02*
X104125857Y-76552428D01*
X104297285Y-76552428D02*
X104297285Y-75952428D01*
X104240142Y-76038142D01*
X104183000Y-76095285D01*
X104125857Y-76123857D01*
D13*
%TO.C,J3*%
X97409000Y-70993000D02*
X97409000Y-68453000D01*
X97409000Y-72263000D02*
X97409000Y-70993000D01*
X102489000Y-72263000D02*
X97409000Y-72263000D01*
X97409000Y-68453000D02*
X102489000Y-68453000D01*
X102489000Y-70993000D02*
X97409000Y-70993000D01*
X102489000Y-72263000D02*
X102489000Y-70993000D01*
X102489000Y-70993000D02*
X102489000Y-68453000D01*
D14*
%TO.C,C5*%
X107779000Y-69335000D02*
X107779000Y-70080000D01*
X107459000Y-72160000D02*
X107459000Y-73185000D01*
X106298000Y-68570000D02*
X106298000Y-70080000D01*
X107019000Y-68791000D02*
X107019000Y-70080000D01*
X107419000Y-72160000D02*
X107419000Y-73215000D01*
X107699000Y-72160000D02*
X107699000Y-72984000D01*
X107139000Y-72160000D02*
X107139000Y-73388000D01*
X106939000Y-68755000D02*
X106939000Y-70080000D01*
X106458000Y-68600000D02*
X106458000Y-70080000D01*
X106578000Y-72160000D02*
X106578000Y-73611000D01*
X107379000Y-68998000D02*
X107379000Y-70080000D01*
X107779000Y-72160000D02*
X107779000Y-72905000D01*
X108179000Y-69869000D02*
X108179000Y-70080000D01*
X107179000Y-72160000D02*
X107179000Y-73367000D01*
X106058000Y-68544000D02*
X106058000Y-73696000D01*
X108099000Y-72160000D02*
X108099000Y-72503000D01*
X106619000Y-68640000D02*
X106619000Y-70080000D01*
X106538000Y-72160000D02*
X106538000Y-73621000D01*
X106819000Y-68706000D02*
X106819000Y-70080000D01*
X107019000Y-72160000D02*
X107019000Y-73449000D01*
X107619000Y-69183000D02*
X107619000Y-70080000D01*
X108339000Y-70205000D02*
X108339000Y-72035000D01*
X106979000Y-68772000D02*
X106979000Y-70080000D01*
X106178000Y-72160000D02*
X106178000Y-73685000D01*
X107939000Y-69515000D02*
X107939000Y-70080000D01*
X108419000Y-70443000D02*
X108419000Y-71797000D01*
X107539000Y-72160000D02*
X107539000Y-73124000D01*
X107419000Y-69025000D02*
X107419000Y-70080000D01*
X108379000Y-70315000D02*
X108379000Y-71925000D01*
X106018000Y-68542000D02*
X106018000Y-73698000D01*
X106699000Y-72160000D02*
X106699000Y-73575000D01*
X106659000Y-72160000D02*
X106659000Y-73588000D01*
X106899000Y-68738000D02*
X106899000Y-70080000D01*
X106178000Y-68555000D02*
X106178000Y-70080000D01*
X107659000Y-72160000D02*
X107659000Y-73021000D01*
X106979000Y-72160000D02*
X106979000Y-73468000D01*
X105898000Y-68540000D02*
X105898000Y-73700000D01*
X107219000Y-68896000D02*
X107219000Y-70080000D01*
X105978000Y-68541000D02*
X105978000Y-73699000D01*
X107979000Y-69566000D02*
X107979000Y-70080000D01*
X107579000Y-72160000D02*
X107579000Y-73091000D01*
X106418000Y-72160000D02*
X106418000Y-73648000D01*
X108099000Y-69737000D02*
X108099000Y-70080000D01*
X106538000Y-68619000D02*
X106538000Y-70080000D01*
X107379000Y-72160000D02*
X107379000Y-73242000D01*
X107579000Y-69149000D02*
X107579000Y-70080000D01*
X107899000Y-72160000D02*
X107899000Y-72773000D01*
X108059000Y-69677000D02*
X108059000Y-70080000D01*
X106338000Y-72160000D02*
X106338000Y-73663000D01*
X106338000Y-68577000D02*
X106338000Y-70080000D01*
X107539000Y-69116000D02*
X107539000Y-70080000D01*
X106779000Y-72160000D02*
X106779000Y-73548000D01*
X106498000Y-72160000D02*
X106498000Y-73631000D01*
X106699000Y-68665000D02*
X106699000Y-70080000D01*
X107179000Y-68873000D02*
X107179000Y-70080000D01*
X107059000Y-68810000D02*
X107059000Y-70080000D01*
X108059000Y-72160000D02*
X108059000Y-72563000D01*
X106258000Y-68564000D02*
X106258000Y-70080000D01*
X106298000Y-72160000D02*
X106298000Y-73670000D01*
X107739000Y-69294000D02*
X107739000Y-70080000D01*
X106739000Y-68678000D02*
X106739000Y-70080000D01*
X104398000Y-69723000D02*
X104898000Y-69723000D01*
X106458000Y-72160000D02*
X106458000Y-73640000D01*
X106779000Y-68692000D02*
X106779000Y-70080000D01*
X108299000Y-70109000D02*
X108299000Y-72131000D01*
X107939000Y-72160000D02*
X107939000Y-72725000D01*
X106859000Y-72160000D02*
X106859000Y-73518000D01*
X106578000Y-68629000D02*
X106578000Y-70080000D01*
X106418000Y-68592000D02*
X106418000Y-70080000D01*
X108139000Y-69801000D02*
X108139000Y-70080000D01*
X106218000Y-68559000D02*
X106218000Y-70080000D01*
X107219000Y-72160000D02*
X107219000Y-73344000D01*
X108019000Y-72160000D02*
X108019000Y-72620000D01*
X107659000Y-69219000D02*
X107659000Y-70080000D01*
X107459000Y-69055000D02*
X107459000Y-70080000D01*
X106939000Y-72160000D02*
X106939000Y-73485000D01*
X107299000Y-68945000D02*
X107299000Y-70080000D01*
X107619000Y-72160000D02*
X107619000Y-73057000D01*
X106619000Y-72160000D02*
X106619000Y-73600000D01*
X106138000Y-72160000D02*
X106138000Y-73689000D01*
X107859000Y-72160000D02*
X107859000Y-72819000D01*
X106498000Y-68609000D02*
X106498000Y-70080000D01*
X107979000Y-72160000D02*
X107979000Y-72674000D01*
X105938000Y-68540000D02*
X105938000Y-73700000D01*
X108019000Y-69620000D02*
X108019000Y-70080000D01*
X107259000Y-68920000D02*
X107259000Y-70080000D01*
X107699000Y-69256000D02*
X107699000Y-70080000D01*
X107739000Y-72160000D02*
X107739000Y-72946000D01*
X107339000Y-72160000D02*
X107339000Y-73269000D01*
X106819000Y-72160000D02*
X106819000Y-73534000D01*
X107339000Y-68971000D02*
X107339000Y-70080000D01*
X106138000Y-68551000D02*
X106138000Y-70080000D01*
X107059000Y-72160000D02*
X107059000Y-73430000D01*
X107499000Y-69085000D02*
X107499000Y-70080000D01*
X106098000Y-68547000D02*
X106098000Y-73693000D01*
X108259000Y-70022000D02*
X108259000Y-72218000D01*
X107819000Y-72160000D02*
X107819000Y-72863000D01*
X106659000Y-68652000D02*
X106659000Y-70080000D01*
X107819000Y-69377000D02*
X107819000Y-70080000D01*
X106218000Y-72160000D02*
X106218000Y-73681000D01*
X106378000Y-72160000D02*
X106378000Y-73656000D01*
X104648000Y-69473000D02*
X104648000Y-69973000D01*
X106859000Y-68722000D02*
X106859000Y-70080000D01*
X108219000Y-69942000D02*
X108219000Y-72298000D01*
X107139000Y-68852000D02*
X107139000Y-70080000D01*
X107299000Y-72160000D02*
X107299000Y-73295000D01*
X107099000Y-72160000D02*
X107099000Y-73410000D01*
X107499000Y-72160000D02*
X107499000Y-73155000D01*
X107259000Y-72160000D02*
X107259000Y-73320000D01*
X108139000Y-72160000D02*
X108139000Y-72439000D01*
X108179000Y-72160000D02*
X108179000Y-72371000D01*
X107099000Y-68830000D02*
X107099000Y-70080000D01*
X106378000Y-68584000D02*
X106378000Y-70080000D01*
X107899000Y-69467000D02*
X107899000Y-70080000D01*
X108499000Y-70836000D02*
X108499000Y-71404000D01*
X106899000Y-72160000D02*
X106899000Y-73502000D01*
X107859000Y-69421000D02*
X107859000Y-70080000D01*
X108459000Y-70602000D02*
X108459000Y-71638000D01*
X106258000Y-72160000D02*
X106258000Y-73676000D01*
X106739000Y-72160000D02*
X106739000Y-73562000D01*
X108518000Y-71120000D02*
G75*
G03*
X108518000Y-71120000I-2620000J0D01*
G01*
%TO.C,R2*%
X86900000Y-79983000D02*
X86900000Y-79653000D01*
X93440000Y-79653000D02*
X93440000Y-79983000D01*
X93440000Y-79983000D02*
X86900000Y-79983000D01*
X86900000Y-77243000D02*
X86900000Y-77573000D01*
X93440000Y-77243000D02*
X86900000Y-77243000D01*
X93440000Y-77573000D02*
X93440000Y-77243000D01*
%TO.C,R6*%
X115289000Y-93885000D02*
X115289000Y-100425000D01*
X112549000Y-93885000D02*
X112549000Y-100425000D01*
X112549000Y-100425000D02*
X112879000Y-100425000D01*
X115289000Y-100425000D02*
X114959000Y-100425000D01*
X114959000Y-93885000D02*
X115289000Y-93885000D01*
X112879000Y-93885000D02*
X112549000Y-93885000D01*
%TO.C,R1*%
X87603000Y-88297000D02*
X87273000Y-88297000D01*
X84863000Y-94837000D02*
X84863000Y-88297000D01*
X85193000Y-94837000D02*
X84863000Y-94837000D01*
X87273000Y-94837000D02*
X87603000Y-94837000D01*
X87603000Y-94837000D02*
X87603000Y-88297000D01*
X84863000Y-88297000D02*
X85193000Y-88297000D01*
%TO.C,R4*%
X91340000Y-88360000D02*
X91670000Y-88360000D01*
X94080000Y-81820000D02*
X94080000Y-88360000D01*
X91340000Y-81820000D02*
X91340000Y-88360000D01*
X93750000Y-81820000D02*
X94080000Y-81820000D01*
X94080000Y-88360000D02*
X93750000Y-88360000D01*
X91670000Y-81820000D02*
X91340000Y-81820000D01*
%TO.C,C6*%
X115289000Y-92025000D02*
X115289000Y-84585000D01*
X112549000Y-84585000D02*
X115289000Y-84585000D01*
X112549000Y-92025000D02*
X112549000Y-84585000D01*
X112549000Y-92025000D02*
X115289000Y-92025000D01*
D15*
%TO.C,RV5*%
X108458000Y-85979000D02*
X109220000Y-85979000D01*
X105410000Y-87249000D02*
X105664000Y-87503000D01*
X110744000Y-83693000D02*
X109601000Y-83693000D01*
D16*
X107188000Y-82296000D02*
X106934000Y-82042000D01*
D15*
X112268000Y-80899000D02*
X112014000Y-80645000D01*
X105410000Y-80899000D02*
X105664000Y-80645000D01*
X108458000Y-83312000D02*
X108077000Y-83693000D01*
X108077000Y-84455000D02*
X108458000Y-84836000D01*
D16*
X107188000Y-85979000D02*
X106934000Y-86233000D01*
D15*
X105410000Y-80899000D02*
X105410000Y-87249000D01*
X106934000Y-83693000D02*
X106934000Y-84455000D01*
X108077000Y-83693000D02*
X106934000Y-83693000D01*
X109601000Y-83693000D02*
X109220000Y-83312000D01*
X109220000Y-82169000D02*
X108458000Y-82169000D01*
X109601000Y-84455000D02*
X110744000Y-84455000D01*
X112268000Y-87249000D02*
X112268000Y-80899000D01*
X108458000Y-82169000D02*
X108458000Y-83312000D01*
X112014000Y-80645000D02*
X105664000Y-80645000D01*
X106934000Y-84455000D02*
X108077000Y-84455000D01*
X110744000Y-84455000D02*
X110744000Y-83693000D01*
X109220000Y-85979000D02*
X109220000Y-84836000D01*
X112268000Y-87249000D02*
X112014000Y-87503000D01*
X109220000Y-83312000D02*
X109220000Y-82169000D01*
X108458000Y-84836000D02*
X108458000Y-85979000D01*
X109601000Y-84455000D02*
X109220000Y-84836000D01*
X105664000Y-87503000D02*
X112014000Y-87503000D01*
D13*
X110810500Y-84074000D02*
G75*
G03*
X110810500Y-84074000I-1971500J0D01*
G01*
%TO.C,RV1*%
X95123000Y-74168000D02*
X86995000Y-74168000D01*
X86995000Y-74168000D02*
X86995000Y-76708000D01*
X95123000Y-76708000D02*
X95123000Y-74168000D01*
X86995000Y-76708000D02*
X95123000Y-76708000D01*
D14*
%TO.C,R3*%
X88038000Y-81820000D02*
X88038000Y-88360000D01*
X90778000Y-81820000D02*
X90778000Y-88360000D01*
X88038000Y-88360000D02*
X88368000Y-88360000D01*
X90778000Y-88360000D02*
X90448000Y-88360000D01*
X88368000Y-81820000D02*
X88038000Y-81820000D01*
X90448000Y-81820000D02*
X90778000Y-81820000D01*
%TO.C,C7*%
X103097000Y-73075000D02*
X103097000Y-80515000D01*
X103097000Y-80515000D02*
X100357000Y-80515000D01*
X100357000Y-73075000D02*
X100357000Y-80515000D01*
X103097000Y-73075000D02*
X100357000Y-73075000D01*
%TO.C,D1*%
X98298000Y-76016000D02*
X98298000Y-77036000D01*
X96828000Y-82476000D02*
X99768000Y-82476000D01*
X96828000Y-81696000D02*
X99768000Y-81696000D01*
X99768000Y-82476000D02*
X99768000Y-77036000D01*
X96828000Y-81576000D02*
X99768000Y-81576000D01*
X99768000Y-77036000D02*
X96828000Y-77036000D01*
X96828000Y-81456000D02*
X99768000Y-81456000D01*
X98298000Y-83496000D02*
X98298000Y-82476000D01*
X96828000Y-77036000D02*
X96828000Y-82476000D01*
D15*
%TO.C,Q2*%
X103651700Y-93091017D02*
X106913700Y-93091017D01*
X109454300Y-89026983D02*
X106192300Y-89026983D01*
X106251900Y-89103217D02*
G75*
G03*
X104313500Y-89103217I-969200J-2209800D01*
G01*
X106192299Y-89026982D02*
G75*
G03*
X106854400Y-93014783I1631301J-1778018D01*
G01*
X106913701Y-93091018D02*
G75*
G03*
X106251600Y-89103217I-1631301J1778018D01*
G01*
X106854100Y-93014783D02*
G75*
G03*
X108792500Y-93014783I969200J2209800D01*
G01*
X108792199Y-93014782D02*
G75*
G03*
X109454300Y-89026983I-969199J2209782D01*
G01*
X104313801Y-89103218D02*
G75*
G03*
X103651700Y-93091017I969199J-2209782D01*
G01*
D14*
%TO.C,C1*%
X87697000Y-101893000D02*
X87697000Y-96735000D01*
X87257000Y-101842000D02*
X87257000Y-100354000D01*
X85736000Y-98274000D02*
X85736000Y-97709000D01*
X85216000Y-99832000D02*
X85216000Y-98796000D01*
X86216000Y-101379000D02*
X86216000Y-100354000D01*
X87617000Y-101890000D02*
X87617000Y-96738000D01*
X85456000Y-100492000D02*
X85456000Y-98136000D01*
X86256000Y-101409000D02*
X86256000Y-100354000D01*
X86696000Y-101662000D02*
X86696000Y-100354000D01*
X86216000Y-98274000D02*
X86216000Y-97249000D01*
X85656000Y-100814000D02*
X85656000Y-100354000D01*
X86496000Y-101561000D02*
X86496000Y-100354000D01*
X86336000Y-101463000D02*
X86336000Y-100354000D01*
X86256000Y-98274000D02*
X86256000Y-97219000D01*
X87497000Y-101879000D02*
X87497000Y-100354000D01*
X86656000Y-101643000D02*
X86656000Y-100354000D01*
X87097000Y-98274000D02*
X87097000Y-96823000D01*
X89027000Y-100961000D02*
X89027000Y-100461000D01*
X87737000Y-101894000D02*
X87737000Y-96734000D01*
X87577000Y-101887000D02*
X87577000Y-96741000D01*
X85896000Y-101099000D02*
X85896000Y-100354000D01*
X87137000Y-98274000D02*
X87137000Y-96813000D01*
X87177000Y-98274000D02*
X87177000Y-96803000D01*
X86136000Y-98274000D02*
X86136000Y-97310000D01*
X87497000Y-98274000D02*
X87497000Y-96749000D01*
X86416000Y-101514000D02*
X86416000Y-100354000D01*
X86776000Y-98274000D02*
X86776000Y-96932000D01*
X86536000Y-101582000D02*
X86536000Y-100354000D01*
X85696000Y-100868000D02*
X85696000Y-100354000D01*
X86376000Y-98274000D02*
X86376000Y-97139000D01*
X85816000Y-98274000D02*
X85816000Y-97615000D01*
X85856000Y-101057000D02*
X85856000Y-100354000D01*
X86816000Y-98274000D02*
X86816000Y-96916000D01*
X85576000Y-100697000D02*
X85576000Y-100354000D01*
X87417000Y-98274000D02*
X87417000Y-96758000D01*
X87177000Y-101825000D02*
X87177000Y-100354000D01*
X86936000Y-101756000D02*
X86936000Y-100354000D01*
X86136000Y-101318000D02*
X86136000Y-100354000D01*
X87657000Y-101892000D02*
X87657000Y-96736000D01*
X86456000Y-101538000D02*
X86456000Y-100354000D01*
X86576000Y-98274000D02*
X86576000Y-97024000D01*
X85616000Y-98274000D02*
X85616000Y-97871000D01*
X87537000Y-98274000D02*
X87537000Y-96745000D01*
X85776000Y-98274000D02*
X85776000Y-97661000D01*
X86696000Y-98274000D02*
X86696000Y-96966000D01*
X85176000Y-99598000D02*
X85176000Y-99030000D01*
X86536000Y-98274000D02*
X86536000Y-97046000D01*
X85936000Y-101140000D02*
X85936000Y-100354000D01*
X85976000Y-101178000D02*
X85976000Y-100354000D01*
X87016000Y-101782000D02*
X87016000Y-100354000D01*
X86816000Y-101712000D02*
X86816000Y-100354000D01*
X85256000Y-99991000D02*
X85256000Y-98637000D01*
X85336000Y-100229000D02*
X85336000Y-98399000D01*
X86856000Y-98274000D02*
X86856000Y-96900000D01*
X85496000Y-98274000D02*
X85496000Y-98063000D01*
X86976000Y-98274000D02*
X86976000Y-96859000D01*
X85976000Y-98274000D02*
X85976000Y-97450000D01*
X86056000Y-98274000D02*
X86056000Y-97377000D01*
X85616000Y-100757000D02*
X85616000Y-100354000D01*
X86736000Y-101679000D02*
X86736000Y-100354000D01*
X86936000Y-98274000D02*
X86936000Y-96872000D01*
X86976000Y-101769000D02*
X86976000Y-100354000D01*
X87297000Y-98274000D02*
X87297000Y-96778000D01*
X86376000Y-101489000D02*
X86376000Y-100354000D01*
X87097000Y-101805000D02*
X87097000Y-100354000D01*
X86096000Y-98274000D02*
X86096000Y-97343000D01*
X85376000Y-100325000D02*
X85376000Y-98303000D01*
X86736000Y-98274000D02*
X86736000Y-96949000D01*
X86576000Y-101604000D02*
X86576000Y-100354000D01*
X87257000Y-98274000D02*
X87257000Y-96786000D01*
X86336000Y-98274000D02*
X86336000Y-97165000D01*
X85416000Y-100412000D02*
X85416000Y-98216000D01*
X86056000Y-101251000D02*
X86056000Y-100354000D01*
X86016000Y-98274000D02*
X86016000Y-97413000D01*
X86176000Y-101349000D02*
X86176000Y-100354000D01*
X86296000Y-101436000D02*
X86296000Y-100354000D01*
X86616000Y-98274000D02*
X86616000Y-97004000D01*
X85496000Y-100565000D02*
X85496000Y-100354000D01*
X85576000Y-98274000D02*
X85576000Y-97931000D01*
X86456000Y-98274000D02*
X86456000Y-97090000D01*
X86896000Y-101742000D02*
X86896000Y-100354000D01*
X85656000Y-98274000D02*
X85656000Y-97814000D01*
X87016000Y-98274000D02*
X87016000Y-96846000D01*
X87217000Y-98274000D02*
X87217000Y-96794000D01*
X86016000Y-101215000D02*
X86016000Y-100354000D01*
X86616000Y-101624000D02*
X86616000Y-100354000D01*
X86656000Y-98274000D02*
X86656000Y-96985000D01*
X87056000Y-98274000D02*
X87056000Y-96834000D01*
X85776000Y-100967000D02*
X85776000Y-100354000D01*
X85896000Y-98274000D02*
X85896000Y-97529000D01*
X85736000Y-100919000D02*
X85736000Y-100354000D01*
X87537000Y-101883000D02*
X87537000Y-100354000D01*
X86296000Y-98274000D02*
X86296000Y-97192000D01*
X87377000Y-101864000D02*
X87377000Y-100354000D01*
X85856000Y-98274000D02*
X85856000Y-97571000D01*
X87217000Y-101834000D02*
X87217000Y-100354000D01*
X87056000Y-101794000D02*
X87056000Y-100354000D01*
X85936000Y-98274000D02*
X85936000Y-97488000D01*
X87457000Y-101875000D02*
X87457000Y-100354000D01*
X87457000Y-98274000D02*
X87457000Y-96753000D01*
X86856000Y-101728000D02*
X86856000Y-100354000D01*
X85816000Y-101013000D02*
X85816000Y-100354000D01*
X85536000Y-100633000D02*
X85536000Y-100354000D01*
X87137000Y-101815000D02*
X87137000Y-100354000D01*
X89277000Y-100711000D02*
X88777000Y-100711000D01*
X87337000Y-101857000D02*
X87337000Y-100354000D01*
X85296000Y-100119000D02*
X85296000Y-98509000D01*
X85696000Y-98274000D02*
X85696000Y-97760000D01*
X86096000Y-101285000D02*
X86096000Y-100354000D01*
X87417000Y-101870000D02*
X87417000Y-100354000D01*
X87337000Y-98274000D02*
X87337000Y-96771000D01*
X86896000Y-98274000D02*
X86896000Y-96886000D01*
X86416000Y-98274000D02*
X86416000Y-97114000D01*
X86496000Y-98274000D02*
X86496000Y-97067000D01*
X87377000Y-98274000D02*
X87377000Y-96764000D01*
X87777000Y-101894000D02*
X87777000Y-96734000D01*
X86176000Y-98274000D02*
X86176000Y-97279000D01*
X86776000Y-101696000D02*
X86776000Y-100354000D01*
X87297000Y-101850000D02*
X87297000Y-100354000D01*
X85536000Y-98274000D02*
X85536000Y-97995000D01*
X90397000Y-99314000D02*
G75*
G03*
X90397000Y-99314000I-2620000J0D01*
G01*
D13*
%TO.C,J2*%
X105132500Y-101981000D02*
X94972500Y-101981000D01*
X94972500Y-101981000D02*
X94972500Y-99441000D01*
X105132500Y-98171000D02*
X94972500Y-98171000D01*
X105132500Y-99441000D02*
X105132500Y-98171000D01*
X94972500Y-99441000D02*
X105132500Y-99441000D01*
X94972500Y-99441000D02*
X94972500Y-98171000D01*
X105132500Y-101981000D02*
X105132500Y-99441000D01*
D14*
%TO.C,C3*%
X106730000Y-80110000D02*
X114170000Y-80110000D01*
X106730000Y-77370000D02*
X106730000Y-80110000D01*
X106730000Y-77370000D02*
X114170000Y-77370000D01*
X114170000Y-77370000D02*
X114170000Y-80110000D01*
%TO.C,C2*%
X93866000Y-68544000D02*
X93866000Y-73696000D01*
X94106000Y-68570000D02*
X94106000Y-70080000D01*
X95947000Y-72160000D02*
X95947000Y-72439000D01*
X94427000Y-68640000D02*
X94427000Y-70080000D01*
X95667000Y-69421000D02*
X95667000Y-70080000D01*
X94667000Y-72160000D02*
X94667000Y-73518000D01*
X94747000Y-68755000D02*
X94747000Y-70080000D01*
X94306000Y-68609000D02*
X94306000Y-70080000D01*
X95467000Y-72160000D02*
X95467000Y-73021000D01*
X95827000Y-69620000D02*
X95827000Y-70080000D01*
X93746000Y-68540000D02*
X93746000Y-73700000D01*
X94146000Y-72160000D02*
X94146000Y-73663000D01*
X94106000Y-72160000D02*
X94106000Y-73670000D01*
X92456000Y-69473000D02*
X92456000Y-69973000D01*
X95427000Y-69183000D02*
X95427000Y-70080000D01*
X94867000Y-72160000D02*
X94867000Y-73430000D01*
X95987000Y-69869000D02*
X95987000Y-70080000D01*
X95987000Y-72160000D02*
X95987000Y-72371000D01*
X95307000Y-72160000D02*
X95307000Y-73155000D01*
X96067000Y-70022000D02*
X96067000Y-72218000D01*
X94386000Y-72160000D02*
X94386000Y-73611000D01*
X94507000Y-68665000D02*
X94507000Y-70080000D01*
X94266000Y-72160000D02*
X94266000Y-73640000D01*
X94987000Y-72160000D02*
X94987000Y-73367000D01*
X95427000Y-72160000D02*
X95427000Y-73057000D01*
X95027000Y-68896000D02*
X95027000Y-70080000D01*
X96307000Y-70836000D02*
X96307000Y-71404000D01*
X93906000Y-68547000D02*
X93906000Y-73693000D01*
X94547000Y-72160000D02*
X94547000Y-73562000D01*
X95107000Y-68945000D02*
X95107000Y-70080000D01*
X93826000Y-68542000D02*
X93826000Y-73698000D01*
X94787000Y-72160000D02*
X94787000Y-73468000D01*
X94146000Y-68577000D02*
X94146000Y-70080000D01*
X95667000Y-72160000D02*
X95667000Y-72819000D01*
X94026000Y-68559000D02*
X94026000Y-70080000D01*
X95747000Y-72160000D02*
X95747000Y-72725000D01*
X95867000Y-69677000D02*
X95867000Y-70080000D01*
X94066000Y-68564000D02*
X94066000Y-70080000D01*
X95507000Y-69256000D02*
X95507000Y-70080000D01*
X93946000Y-72160000D02*
X93946000Y-73689000D01*
X94587000Y-72160000D02*
X94587000Y-73548000D01*
X95907000Y-72160000D02*
X95907000Y-72503000D01*
X94747000Y-72160000D02*
X94747000Y-73485000D01*
X95187000Y-68998000D02*
X95187000Y-70080000D01*
X94867000Y-68810000D02*
X94867000Y-70080000D01*
X95507000Y-72160000D02*
X95507000Y-72984000D01*
X95347000Y-72160000D02*
X95347000Y-73124000D01*
X95907000Y-69737000D02*
X95907000Y-70080000D01*
X95707000Y-69467000D02*
X95707000Y-70080000D01*
X94346000Y-68619000D02*
X94346000Y-70080000D01*
X95867000Y-72160000D02*
X95867000Y-72563000D01*
X95027000Y-72160000D02*
X95027000Y-73344000D01*
X95107000Y-72160000D02*
X95107000Y-73295000D01*
X95227000Y-69025000D02*
X95227000Y-70080000D01*
X95787000Y-69566000D02*
X95787000Y-70080000D01*
X95187000Y-72160000D02*
X95187000Y-73242000D01*
X96267000Y-70602000D02*
X96267000Y-71638000D01*
X94627000Y-72160000D02*
X94627000Y-73534000D01*
X95347000Y-69116000D02*
X95347000Y-70080000D01*
X95547000Y-72160000D02*
X95547000Y-72946000D01*
X95307000Y-69085000D02*
X95307000Y-70080000D01*
X93706000Y-68540000D02*
X93706000Y-73700000D01*
X95067000Y-72160000D02*
X95067000Y-73320000D01*
X94987000Y-68873000D02*
X94987000Y-70080000D01*
X93986000Y-68555000D02*
X93986000Y-70080000D01*
X94427000Y-72160000D02*
X94427000Y-73600000D01*
X95787000Y-72160000D02*
X95787000Y-72674000D01*
X95627000Y-72160000D02*
X95627000Y-72863000D01*
X94907000Y-68830000D02*
X94907000Y-70080000D01*
X95547000Y-69294000D02*
X95547000Y-70080000D01*
X93946000Y-68551000D02*
X93946000Y-70080000D01*
X95587000Y-69335000D02*
X95587000Y-70080000D01*
X94467000Y-68652000D02*
X94467000Y-70080000D01*
X94787000Y-68772000D02*
X94787000Y-70080000D01*
X93786000Y-68541000D02*
X93786000Y-73699000D01*
X94667000Y-68722000D02*
X94667000Y-70080000D01*
X94707000Y-68738000D02*
X94707000Y-70080000D01*
X95627000Y-69377000D02*
X95627000Y-70080000D01*
X96027000Y-69942000D02*
X96027000Y-72298000D01*
X96187000Y-70315000D02*
X96187000Y-71925000D01*
X94066000Y-72160000D02*
X94066000Y-73676000D01*
X95387000Y-69149000D02*
X95387000Y-70080000D01*
X94947000Y-68852000D02*
X94947000Y-70080000D01*
X94707000Y-72160000D02*
X94707000Y-73502000D01*
X92206000Y-69723000D02*
X92706000Y-69723000D01*
X94386000Y-68629000D02*
X94386000Y-70080000D01*
X94186000Y-68584000D02*
X94186000Y-70080000D01*
X94306000Y-72160000D02*
X94306000Y-73631000D01*
X94947000Y-72160000D02*
X94947000Y-73388000D01*
X94266000Y-68600000D02*
X94266000Y-70080000D01*
X94226000Y-68592000D02*
X94226000Y-70080000D01*
X96147000Y-70205000D02*
X96147000Y-72035000D01*
X95747000Y-69515000D02*
X95747000Y-70080000D01*
X94907000Y-72160000D02*
X94907000Y-73410000D01*
X96107000Y-70109000D02*
X96107000Y-72131000D01*
X95587000Y-72160000D02*
X95587000Y-72905000D01*
X94467000Y-72160000D02*
X94467000Y-73588000D01*
X95067000Y-68920000D02*
X95067000Y-70080000D01*
X95147000Y-68971000D02*
X95147000Y-70080000D01*
X95707000Y-72160000D02*
X95707000Y-72773000D01*
X95147000Y-72160000D02*
X95147000Y-73269000D01*
X94587000Y-68692000D02*
X94587000Y-70080000D01*
X93986000Y-72160000D02*
X93986000Y-73685000D01*
X95227000Y-72160000D02*
X95227000Y-73215000D01*
X94507000Y-72160000D02*
X94507000Y-73575000D01*
X95467000Y-69219000D02*
X95467000Y-70080000D01*
X94627000Y-68706000D02*
X94627000Y-70080000D01*
X94226000Y-72160000D02*
X94226000Y-73648000D01*
X95267000Y-72160000D02*
X95267000Y-73185000D01*
X95947000Y-69801000D02*
X95947000Y-70080000D01*
X96227000Y-70443000D02*
X96227000Y-71797000D01*
X94827000Y-68791000D02*
X94827000Y-70080000D01*
X95827000Y-72160000D02*
X95827000Y-72620000D01*
X95387000Y-72160000D02*
X95387000Y-73091000D01*
X94346000Y-72160000D02*
X94346000Y-73621000D01*
X94827000Y-72160000D02*
X94827000Y-73449000D01*
X94547000Y-68678000D02*
X94547000Y-70080000D01*
X94026000Y-72160000D02*
X94026000Y-73681000D01*
X95267000Y-69055000D02*
X95267000Y-70080000D01*
X94186000Y-72160000D02*
X94186000Y-73656000D01*
X96326000Y-71120000D02*
G75*
G03*
X96326000Y-71120000I-2620000J0D01*
G01*
D15*
%TO.C,Q1*%
X89808700Y-95631017D02*
X93070700Y-95631017D01*
X95611300Y-91566983D02*
X92349300Y-91566983D01*
X93070701Y-95631018D02*
G75*
G03*
X92408600Y-91643217I-1631301J1778018D01*
G01*
X94949199Y-95554782D02*
G75*
G03*
X95611300Y-91566983I-969199J2209782D01*
G01*
X92408900Y-91643217D02*
G75*
G03*
X90470500Y-91643217I-969200J-2209800D01*
G01*
X92349299Y-91566982D02*
G75*
G03*
X93011400Y-95554783I1631301J-1778018D01*
G01*
X90470801Y-91643218D02*
G75*
G03*
X89808700Y-95631017I969199J-2209782D01*
G01*
X93011100Y-95554783D02*
G75*
G03*
X94949500Y-95554783I969200J2209800D01*
G01*
D14*
%TO.C,C4*%
X102693000Y-89254000D02*
X95253000Y-89254000D01*
X95253000Y-89254000D02*
X95253000Y-86514000D01*
X102693000Y-89254000D02*
X102693000Y-86514000D01*
X102693000Y-86514000D02*
X95253000Y-86514000D01*
D13*
%TO.C,J1*%
X111125000Y-99441000D02*
X111125000Y-98171000D01*
X106045000Y-101981000D02*
X106045000Y-99441000D01*
X111125000Y-98171000D02*
X106045000Y-98171000D01*
X106045000Y-99441000D02*
X106045000Y-98171000D01*
X106045000Y-99441000D02*
X111125000Y-99441000D01*
X111125000Y-101981000D02*
X111125000Y-99441000D01*
X111125000Y-101981000D02*
X106045000Y-101981000D01*
D14*
%TO.C,R5*%
X104172000Y-97687000D02*
X104172000Y-98017000D01*
X104172000Y-95277000D02*
X110712000Y-95277000D01*
X110712000Y-95277000D02*
X110712000Y-95607000D01*
X104172000Y-95607000D02*
X104172000Y-95277000D01*
X110712000Y-98017000D02*
X110712000Y-97687000D01*
X104172000Y-98017000D02*
X110712000Y-98017000D01*
D13*
%TO.C,RV4*%
X112903000Y-74168000D02*
X104775000Y-74168000D01*
X104775000Y-74168000D02*
X104775000Y-76708000D01*
X112903000Y-76708000D02*
X112903000Y-74168000D01*
X104775000Y-76708000D02*
X112903000Y-76708000D01*
%TD*%
%LPC*%
D17*
%TO.C,J3*%
X98679000Y-69723000D03*
D18*
X101219000Y-69723000D03*
%TD*%
D19*
%TO.C,C5*%
X104648000Y-71120000D03*
D20*
X107148000Y-71120000D03*
%TD*%
%TO.C,R2*%
X93980000Y-78613000D03*
D21*
X86360000Y-78613000D03*
%TD*%
D20*
%TO.C,R6*%
X113919000Y-93345000D03*
D21*
X113919000Y-100965000D03*
%TD*%
D20*
%TO.C,R1*%
X86233000Y-95377000D03*
D21*
X86233000Y-87757000D03*
%TD*%
D20*
%TO.C,R4*%
X92710000Y-81280000D03*
D21*
X92710000Y-88900000D03*
%TD*%
D20*
%TO.C,C6*%
X113919000Y-90805000D03*
X113919000Y-85805000D03*
%TD*%
D18*
%TO.C,RV5*%
X108839000Y-86614000D03*
X106299000Y-84074000D03*
X108839000Y-81534000D03*
%TD*%
D22*
%TO.C,RV1*%
X86059000Y-82438000D03*
X96059000Y-82438000D03*
D17*
X88519000Y-75438000D03*
D18*
X91059000Y-75438000D03*
X93599000Y-75438000D03*
%TD*%
D20*
%TO.C,R3*%
X89408000Y-81280000D03*
D21*
X89408000Y-88900000D03*
%TD*%
D20*
%TO.C,C7*%
X101727000Y-74295000D03*
X101727000Y-79295000D03*
%TD*%
D23*
%TO.C,D1*%
X98298000Y-84836000D03*
D24*
X98298000Y-74676000D03*
%TD*%
D17*
%TO.C,Q2*%
X110363000Y-91059000D03*
D18*
X102743000Y-91059000D03*
X107823000Y-91059000D03*
X105283000Y-91059000D03*
%TD*%
D19*
%TO.C,C1*%
X89027000Y-99314000D03*
D20*
X86527000Y-99314000D03*
%TD*%
D17*
%TO.C,J2*%
X96242500Y-100711000D03*
D18*
X98782500Y-100711000D03*
X101322500Y-100711000D03*
X103862500Y-100711000D03*
%TD*%
D20*
%TO.C,C3*%
X107950000Y-78740000D03*
X112950000Y-78740000D03*
%TD*%
D19*
%TO.C,C2*%
X92456000Y-71120000D03*
D20*
X94956000Y-71120000D03*
%TD*%
D17*
%TO.C,Q1*%
X96520000Y-93599000D03*
D18*
X88900000Y-93599000D03*
X93980000Y-93599000D03*
X91440000Y-93599000D03*
%TD*%
D20*
%TO.C,C4*%
X101473000Y-87884000D03*
X96473000Y-87884000D03*
%TD*%
D17*
%TO.C,J1*%
X107315000Y-100711000D03*
D18*
X109855000Y-100711000D03*
%TD*%
D20*
%TO.C,R5*%
X103632000Y-96647000D03*
D21*
X111252000Y-96647000D03*
%TD*%
D22*
%TO.C,RV4*%
X113839000Y-82438000D03*
X103839000Y-82438000D03*
D17*
X106299000Y-75438000D03*
D18*
X108839000Y-75438000D03*
X111379000Y-75438000D03*
%TD*%
D25*
%TO.C,D2*%
X98806000Y-94615000D03*
D26*
X101346000Y-94615000D03*
%TD*%
M02*
