%TF.GenerationSoftware,KiCad,Pcbnew,(5.99.0-2965-g3673c2369)*%
%TF.CreationDate,2020-08-26T16:57:38+03:00*%
%TF.ProjectId,cara-de-pelusa,63617261-2d64-4652-9d70-656c7573612e,rev?*%
%TF.SameCoordinates,Original*%
%TF.FileFunction,Copper,L1,Top*%
%TF.FilePolarity,Positive*%
%FSLAX46Y46*%
G04 Gerber Fmt 4.6, Leading zero omitted, Abs format (unit mm)*
G04 Created by KiCad (PCBNEW (5.99.0-2965-g3673c2369)) date 2020-08-26 16:57:38*
%MOMM*%
%LPD*%
G01*
G04 APERTURE LIST*
%TA.AperFunction,ComponentPad*%
%ADD10O,2.250000X2.250000*%
%TD*%
%TA.AperFunction,ComponentPad*%
%ADD11O,1.930400X1.930400*%
%TD*%
%TA.AperFunction,ComponentPad*%
%ADD12R,1.930400X1.930400*%
%TD*%
%TA.AperFunction,ComponentPad*%
%ADD13O,1.600000X1.600000*%
%TD*%
%TA.AperFunction,ComponentPad*%
%ADD14C,1.600000*%
%TD*%
%TA.AperFunction,ComponentPad*%
%ADD15C,1.800000*%
%TD*%
%TA.AperFunction,ComponentPad*%
%ADD16R,1.800000X1.800000*%
%TD*%
%TA.AperFunction,ComponentPad*%
%ADD17O,2.200000X2.200000*%
%TD*%
%TA.AperFunction,ComponentPad*%
%ADD18R,2.200000X2.200000*%
%TD*%
%TA.AperFunction,ComponentPad*%
%ADD19R,1.600000X1.600000*%
%TD*%
%TA.AperFunction,ViaPad*%
%ADD20C,0.800000*%
%TD*%
%TA.AperFunction,Conductor*%
%ADD21C,0.381000*%
%TD*%
%TA.AperFunction,Conductor*%
%ADD22C,0.609600*%
%TD*%
G04 APERTURE END LIST*
D10*
%TO.P,RV4,*%
%TO.N,*%
X103839000Y-82438000D03*
X113839000Y-82438000D03*
D11*
%TO.P,RV4,3,3*%
%TO.N,GND*%
X111379000Y-75438000D03*
%TO.P,RV4,2,2*%
%TO.N,OUT*%
X108839000Y-75438000D03*
D12*
%TO.P,RV4,1,1*%
%TO.N,Net-(C3-Pad2)*%
X106299000Y-75438000D03*
%TD*%
D10*
%TO.P,RV1,*%
%TO.N,*%
X86059000Y-82438000D03*
X96059000Y-82438000D03*
D11*
%TO.P,RV1,3,3*%
%TO.N,GND*%
X93599000Y-75438000D03*
%TO.P,RV1,2,2*%
%TO.N,Net-(C2-Pad1)*%
X91059000Y-75438000D03*
D12*
%TO.P,RV1,1,1*%
%TO.N,Net-(Q2-Pad1)*%
X88519000Y-75438000D03*
%TD*%
D11*
%TO.P,RV5,3,3*%
%TO.N,Net-(C3-Pad1)*%
X108839000Y-81534000D03*
%TO.P,RV5,2,2*%
X106299000Y-84074000D03*
%TO.P,RV5,1,1*%
%TO.N,Net-(C6-Pad2)*%
X108839000Y-86614000D03*
%TD*%
D13*
%TO.P,R6,2*%
%TO.N,+9V*%
X113919000Y-100965000D03*
D14*
%TO.P,R6,1*%
%TO.N,Net-(D2-Pad2)*%
X113919000Y-93345000D03*
%TD*%
D13*
%TO.P,R5,2*%
%TO.N,GND*%
X111252000Y-96647000D03*
D14*
%TO.P,R5,1*%
%TO.N,OUT*%
X103632000Y-96647000D03*
%TD*%
D13*
%TO.P,R4,2*%
%TO.N,Net-(C3-Pad1)*%
X92710000Y-88900000D03*
D14*
%TO.P,R4,1*%
%TO.N,VCC*%
X92710000Y-81280000D03*
%TD*%
D13*
%TO.P,R3,2*%
%TO.N,Net-(C4-Pad2)*%
X89408000Y-88900000D03*
D14*
%TO.P,R3,1*%
%TO.N,VCC*%
X89408000Y-81280000D03*
%TD*%
D13*
%TO.P,R2,2*%
%TO.N,Net-(Q2-Pad1)*%
X86360000Y-78613000D03*
D14*
%TO.P,R2,1*%
%TO.N,Net-(C1-Pad1)*%
X93980000Y-78613000D03*
%TD*%
D13*
%TO.P,R1,2*%
%TO.N,GND*%
X86233000Y-87757000D03*
D14*
%TO.P,R1,1*%
%TO.N,IN*%
X86233000Y-95377000D03*
%TD*%
D11*
%TO.P,Q2,1,E*%
%TO.N,Net-(Q2-Pad1)*%
X102743000Y-91059000D03*
%TO.P,Q2,3,C*%
%TO.N,Net-(C6-Pad2)*%
X105283000Y-91059000D03*
%TO.P,Q2,2,B*%
%TO.N,Net-(C4-Pad2)*%
X107823000Y-91059000D03*
D12*
%TO.P,Q2,1,E*%
%TO.N,Net-(Q2-Pad1)*%
X110363000Y-91059000D03*
%TD*%
D11*
%TO.P,Q1,1,E*%
%TO.N,GND*%
X88900000Y-93599000D03*
%TO.P,Q1,3,C*%
%TO.N,Net-(C4-Pad2)*%
X91440000Y-93599000D03*
%TO.P,Q1,2,B*%
%TO.N,Net-(C1-Pad1)*%
X93980000Y-93599000D03*
D12*
%TO.P,Q1,1,E*%
%TO.N,GND*%
X96520000Y-93599000D03*
%TD*%
D11*
%TO.P,J3,2,Pin_2*%
%TO.N,GND*%
X101219000Y-69723000D03*
D12*
%TO.P,J3,1,Pin_1*%
%TO.N,+9V*%
X98679000Y-69723000D03*
%TD*%
D11*
%TO.P,J2,4,Pin_4*%
%TO.N,OUT*%
X103862500Y-100711000D03*
%TO.P,J2,3,Pin_3*%
%TO.N,LED-*%
X101322500Y-100711000D03*
%TO.P,J2,2,Pin_2*%
%TO.N,GND*%
X98782500Y-100711000D03*
D12*
%TO.P,J2,1,Pin_1*%
%TO.N,IN*%
X96242500Y-100711000D03*
%TD*%
D11*
%TO.P,J1,2,Pin_2*%
%TO.N,GND*%
X109855000Y-100711000D03*
D12*
%TO.P,J1,1,Pin_1*%
%TO.N,+9V*%
X107315000Y-100711000D03*
%TD*%
D15*
%TO.P,D2,2,A*%
%TO.N,Net-(D2-Pad2)*%
X101346000Y-94615000D03*
D16*
%TO.P,D2,1,K*%
%TO.N,LED-*%
X98806000Y-94615000D03*
%TD*%
D17*
%TO.P,D1,2,A*%
%TO.N,+9V*%
X98298000Y-74676000D03*
D18*
%TO.P,D1,1,K*%
%TO.N,VCC*%
X98298000Y-84836000D03*
%TD*%
D14*
%TO.P,C7,2*%
%TO.N,GND*%
X101727000Y-79295000D03*
%TO.P,C7,1*%
%TO.N,VCC*%
X101727000Y-74295000D03*
%TD*%
%TO.P,C6,2*%
%TO.N,Net-(C6-Pad2)*%
X113919000Y-85805000D03*
%TO.P,C6,1*%
%TO.N,Net-(C4-Pad2)*%
X113919000Y-90805000D03*
%TD*%
%TO.P,C5,2*%
%TO.N,GND*%
X107148000Y-71120000D03*
D19*
%TO.P,C5,1*%
%TO.N,VCC*%
X104648000Y-71120000D03*
%TD*%
D14*
%TO.P,C4,2*%
%TO.N,Net-(C4-Pad2)*%
X96473000Y-87884000D03*
%TO.P,C4,1*%
%TO.N,Net-(C1-Pad1)*%
X101473000Y-87884000D03*
%TD*%
%TO.P,C3,2*%
%TO.N,Net-(C3-Pad2)*%
X112950000Y-78740000D03*
%TO.P,C3,1*%
%TO.N,Net-(C3-Pad1)*%
X107950000Y-78740000D03*
%TD*%
%TO.P,C2,2*%
%TO.N,GND*%
X94956000Y-71120000D03*
D19*
%TO.P,C2,1*%
%TO.N,Net-(C2-Pad1)*%
X92456000Y-71120000D03*
%TD*%
D14*
%TO.P,C1,2*%
%TO.N,IN*%
X86527000Y-99314000D03*
D19*
%TO.P,C1,1*%
%TO.N,Net-(C1-Pad1)*%
X89027000Y-99314000D03*
%TD*%
D20*
%TO.N,GND*%
X112522000Y-90170000D03*
X100838000Y-83439000D03*
X85979000Y-75692000D03*
X85471000Y-101346000D03*
X112268000Y-93599000D03*
%TO.N,Net-(C4-Pad2)*%
X107061000Y-93472000D03*
X100076000Y-92710000D03*
%TO.N,Net-(C3-Pad1)*%
X101219000Y-84709000D03*
%TO.N,Net-(Q2-Pad1)*%
X98679000Y-91313000D03*
%TO.N,VCC*%
X96901000Y-72644000D03*
%TD*%
D21*
%TO.N,Net-(C4-Pad2)*%
X110010501Y-88928501D02*
X112493499Y-88928501D01*
X109982000Y-88900000D02*
X110010501Y-88928501D01*
X107823000Y-91059000D02*
X109982000Y-88900000D01*
X112493499Y-88928501D02*
X113919000Y-90354002D01*
X113919000Y-90354002D02*
X113919000Y-90805000D01*
X107061000Y-93472000D02*
X106661001Y-93072001D01*
X106661001Y-93072001D02*
X100438001Y-93072001D01*
X100438001Y-93072001D02*
X100076000Y-92710000D01*
%TO.N,Net-(C3-Pad1)*%
X101219000Y-84709000D02*
X105664000Y-84709000D01*
X105664000Y-84709000D02*
X106299000Y-84074000D01*
%TO.N,Net-(C1-Pad1)*%
X99695000Y-87884000D02*
X98443098Y-87884000D01*
X98443098Y-87884000D02*
X93980000Y-83420902D01*
X93980000Y-83420902D02*
X93980000Y-78613000D01*
%TO.N,Net-(Q2-Pad1)*%
X98679000Y-91313000D02*
X102489000Y-91313000D01*
X102489000Y-91313000D02*
X102743000Y-91059000D01*
%TO.N,Net-(C1-Pad1)*%
X93980000Y-93599000D02*
X99695000Y-87884000D01*
X99695000Y-87884000D02*
X101473000Y-87884000D01*
%TO.N,Net-(C4-Pad2)*%
X91440000Y-93599000D02*
X96473000Y-88566000D01*
X96473000Y-88566000D02*
X96473000Y-87884000D01*
D22*
%TO.N,VCC*%
X96901000Y-72644000D02*
X100076000Y-72644000D01*
X100076000Y-72644000D02*
X101727000Y-74295000D01*
D21*
%TO.N,Net-(D2-Pad2)*%
X101346000Y-94615000D02*
X112649000Y-94615000D01*
X112649000Y-94615000D02*
X113919000Y-93345000D01*
%TO.N,OUT*%
X103862500Y-100711000D02*
X103862500Y-96877500D01*
X103862500Y-96877500D02*
X103632000Y-96647000D01*
%TO.N,IN*%
X86527000Y-99314000D02*
X87924000Y-100711000D01*
X87924000Y-100711000D02*
X96242500Y-100711000D01*
X86527000Y-99314000D02*
X86527000Y-95671000D01*
X86527000Y-95671000D02*
X86233000Y-95377000D01*
%TO.N,Net-(C1-Pad1)*%
X89027000Y-99314000D02*
X93980000Y-94361000D01*
X93980000Y-94361000D02*
X93980000Y-93599000D01*
%TO.N,Net-(C4-Pad2)*%
X91440000Y-93599000D02*
X91440000Y-90932000D01*
X91440000Y-90932000D02*
X89408000Y-88900000D01*
%TO.N,LED-*%
X101322500Y-100711000D02*
X101322500Y-97131500D01*
X101322500Y-97131500D02*
X98806000Y-94615000D01*
%TO.N,Net-(C6-Pad2)*%
X105283000Y-91059000D02*
X108839000Y-87503000D01*
X108839000Y-87503000D02*
X108839000Y-86614000D01*
%TO.N,Net-(Q2-Pad1)*%
X102743000Y-91059000D02*
X104098701Y-92414701D01*
X104098701Y-92414701D02*
X109007299Y-92414701D01*
X109007299Y-92414701D02*
X110363000Y-91059000D01*
%TO.N,Net-(C6-Pad2)*%
X108839000Y-86614000D02*
X113110000Y-86614000D01*
X113110000Y-86614000D02*
X113919000Y-85805000D01*
%TO.N,Net-(C3-Pad1)*%
X106299000Y-84074000D02*
X108839000Y-81534000D01*
X108839000Y-81534000D02*
X108839000Y-79629000D01*
X108839000Y-79629000D02*
X107950000Y-78740000D01*
%TO.N,Net-(C3-Pad2)*%
X112950000Y-78740000D02*
X112950000Y-75002562D01*
X112029737Y-74082299D02*
X107654701Y-74082299D01*
X107654701Y-74082299D02*
X106299000Y-75438000D01*
X112950000Y-75002562D02*
X112029737Y-74082299D01*
%TO.N,Net-(Q2-Pad1)*%
X86360000Y-78613000D02*
X88519000Y-76454000D01*
X88519000Y-76454000D02*
X88519000Y-75438000D01*
%TO.N,Net-(C2-Pad1)*%
X91059000Y-75438000D02*
X91059000Y-72517000D01*
X91059000Y-72517000D02*
X92456000Y-71120000D01*
%TD*%
%TA.AperFunction,Conductor*%
%TO.N,GND*%
G36*
X114863155Y-94356385D02*
G01*
X114916066Y-94403723D01*
X114935001Y-94470154D01*
X114935001Y-99839846D01*
X114914999Y-99907967D01*
X114861343Y-99954460D01*
X114791069Y-99964564D01*
X114728009Y-99936367D01*
X114672104Y-99889457D01*
X114672101Y-99889455D01*
X114473901Y-99775024D01*
X114473892Y-99775020D01*
X114258833Y-99696745D01*
X114033433Y-99657000D01*
X113804567Y-99657000D01*
X113579167Y-99696745D01*
X113364108Y-99775020D01*
X113364099Y-99775024D01*
X113165899Y-99889455D01*
X113165896Y-99889457D01*
X112990572Y-100036572D01*
X112843457Y-100211896D01*
X112843455Y-100211899D01*
X112729024Y-100410099D01*
X112729020Y-100410108D01*
X112650745Y-100625167D01*
X112611000Y-100850567D01*
X112611000Y-101079433D01*
X112650745Y-101304833D01*
X112729020Y-101519892D01*
X112729022Y-101519895D01*
X112739474Y-101537999D01*
X112756212Y-101606995D01*
X112732992Y-101674087D01*
X112677185Y-101717974D01*
X112630355Y-101727000D01*
X111186004Y-101727000D01*
X111117883Y-101706998D01*
X111071390Y-101653342D01*
X111061286Y-101583068D01*
X111078001Y-101536105D01*
X111180229Y-101365968D01*
X111269411Y-101140721D01*
X111307402Y-100965000D01*
X109727000Y-100965000D01*
X109658879Y-100944998D01*
X109612386Y-100891342D01*
X109601000Y-100839000D01*
X109601000Y-100457000D01*
X110109000Y-100457000D01*
X111306280Y-100457000D01*
X111288710Y-100350876D01*
X111210639Y-100121545D01*
X111210637Y-100121540D01*
X111096172Y-99908063D01*
X111096163Y-99908049D01*
X110948357Y-99716121D01*
X110948356Y-99716119D01*
X110771184Y-99550904D01*
X110569410Y-99416845D01*
X110569408Y-99416844D01*
X110348452Y-99317543D01*
X110348454Y-99317543D01*
X110114239Y-99255661D01*
X110109000Y-99255165D01*
X110109000Y-100457000D01*
X109601000Y-100457000D01*
X109601000Y-99257003D01*
X109395739Y-99305904D01*
X109172419Y-99399779D01*
X108967431Y-99528867D01*
X108967425Y-99528872D01*
X108934577Y-99558035D01*
X108870356Y-99588304D01*
X108799965Y-99579048D01*
X108745753Y-99533205D01*
X108729216Y-99496423D01*
X108726927Y-99487881D01*
X108611774Y-99350646D01*
X108456626Y-99261071D01*
X108280199Y-99229963D01*
X106349802Y-99229963D01*
X106091881Y-99299073D01*
X105954646Y-99414226D01*
X105865071Y-99569374D01*
X105833963Y-99745801D01*
X105833963Y-101601000D01*
X105813961Y-101669121D01*
X105760305Y-101715614D01*
X105707963Y-101727000D01*
X105193504Y-101727000D01*
X105125383Y-101706998D01*
X105078890Y-101653342D01*
X105068786Y-101583068D01*
X105085501Y-101536105D01*
X105187729Y-101365968D01*
X105276909Y-101140727D01*
X105328101Y-100903949D01*
X105328101Y-100903944D01*
X105335778Y-100589878D01*
X105335777Y-100589874D01*
X105296212Y-100350883D01*
X105296212Y-100350881D01*
X105218141Y-100121548D01*
X105218137Y-100121540D01*
X105103672Y-99908063D01*
X105103663Y-99908049D01*
X104955857Y-99716121D01*
X104955856Y-99716119D01*
X104778684Y-99550904D01*
X104778680Y-99550900D01*
X104617273Y-99443662D01*
X104571602Y-99389304D01*
X104561000Y-99338714D01*
X104561000Y-97620607D01*
X104590479Y-97539616D01*
X104707539Y-97400110D01*
X104707545Y-97400101D01*
X104821976Y-97201901D01*
X104821980Y-97201892D01*
X104900255Y-96986833D01*
X104915390Y-96901000D01*
X109968609Y-96901000D01*
X109983745Y-96986834D01*
X110062020Y-97201892D01*
X110062024Y-97201901D01*
X110176455Y-97400101D01*
X110176457Y-97400104D01*
X110323572Y-97575428D01*
X110498896Y-97722543D01*
X110498899Y-97722545D01*
X110697099Y-97836976D01*
X110697108Y-97836980D01*
X110912166Y-97915255D01*
X110998000Y-97930391D01*
X110998000Y-96901000D01*
X111506000Y-96901000D01*
X111506000Y-97930391D01*
X111591834Y-97915255D01*
X111806892Y-97836980D01*
X111806901Y-97836976D01*
X112005101Y-97722545D01*
X112005104Y-97722543D01*
X112180428Y-97575428D01*
X112327543Y-97400104D01*
X112327545Y-97400101D01*
X112441976Y-97201901D01*
X112441980Y-97201892D01*
X112520255Y-96986834D01*
X112535391Y-96901000D01*
X111506000Y-96901000D01*
X110998000Y-96901000D01*
X109968609Y-96901000D01*
X104915390Y-96901000D01*
X104940000Y-96761433D01*
X104940000Y-96532567D01*
X104900255Y-96307167D01*
X104821980Y-96092108D01*
X104821976Y-96092099D01*
X104707545Y-95893899D01*
X104707543Y-95893896D01*
X104560428Y-95718572D01*
X104385104Y-95571457D01*
X104385101Y-95571455D01*
X104345548Y-95548619D01*
X104296555Y-95497237D01*
X104283119Y-95427523D01*
X104309505Y-95361612D01*
X104367337Y-95320430D01*
X104408548Y-95313500D01*
X110475452Y-95313500D01*
X110543573Y-95333502D01*
X110590066Y-95387158D01*
X110600170Y-95457432D01*
X110570676Y-95522012D01*
X110538452Y-95548619D01*
X110498899Y-95571455D01*
X110498896Y-95571457D01*
X110323572Y-95718572D01*
X110176457Y-95893896D01*
X110176455Y-95893899D01*
X110062024Y-96092099D01*
X110062020Y-96092108D01*
X109983745Y-96307166D01*
X109968609Y-96393000D01*
X112535391Y-96393000D01*
X112520255Y-96307166D01*
X112441980Y-96092108D01*
X112441976Y-96092099D01*
X112327545Y-95893899D01*
X112327543Y-95893896D01*
X112180428Y-95718572D01*
X112005104Y-95571457D01*
X112005101Y-95571455D01*
X111965548Y-95548619D01*
X111916555Y-95497237D01*
X111903119Y-95427523D01*
X111929505Y-95361612D01*
X111987337Y-95320430D01*
X112028548Y-95313500D01*
X112556635Y-95313500D01*
X112584442Y-95316607D01*
X112592405Y-95318409D01*
X112592408Y-95318409D01*
X112667632Y-95313742D01*
X112675434Y-95313500D01*
X112699149Y-95313500D01*
X112715244Y-95311194D01*
X112725311Y-95310163D01*
X112792106Y-95306020D01*
X112792103Y-95306020D01*
X112806737Y-95300737D01*
X112831661Y-95294523D01*
X112847056Y-95292318D01*
X112847062Y-95292316D01*
X112907994Y-95264613D01*
X112917359Y-95260800D01*
X112980299Y-95238078D01*
X112991838Y-95229540D01*
X113014631Y-95216128D01*
X113029199Y-95209504D01*
X113029205Y-95209500D01*
X113088201Y-95158665D01*
X113095504Y-95152830D01*
X113108931Y-95142895D01*
X113108939Y-95142888D01*
X113120744Y-95131083D01*
X113127592Y-95124725D01*
X113180774Y-95078901D01*
X113180775Y-95078900D01*
X113188000Y-95067753D01*
X113204637Y-95047190D01*
X113583287Y-94668541D01*
X113645599Y-94634516D01*
X113694261Y-94633551D01*
X113804566Y-94653000D01*
X114033433Y-94653000D01*
X114258833Y-94613255D01*
X114473892Y-94534980D01*
X114473901Y-94534976D01*
X114672101Y-94420545D01*
X114672104Y-94420543D01*
X114728009Y-94373633D01*
X114793050Y-94345168D01*
X114863155Y-94356385D01*
G37*
%TD.AperFunction*%
%TA.AperFunction,Conductor*%
G36*
X85298512Y-99809567D02*
G01*
X85334401Y-99861696D01*
X85337020Y-99868892D01*
X85337024Y-99868901D01*
X85451455Y-100067101D01*
X85451457Y-100067104D01*
X85598572Y-100242428D01*
X85773896Y-100389543D01*
X85773899Y-100389545D01*
X85972099Y-100503976D01*
X85972108Y-100503980D01*
X86187167Y-100582255D01*
X86412567Y-100622000D01*
X86641434Y-100622000D01*
X86751740Y-100602551D01*
X86822299Y-100610421D01*
X86862714Y-100637542D01*
X87364769Y-101139597D01*
X87382236Y-101161457D01*
X87386596Y-101168367D01*
X87443104Y-101218273D01*
X87448794Y-101223621D01*
X87465541Y-101240369D01*
X87465546Y-101240373D01*
X87478556Y-101250124D01*
X87486397Y-101256508D01*
X87536565Y-101300815D01*
X87550650Y-101307428D01*
X87572661Y-101320653D01*
X87585111Y-101329983D01*
X87585116Y-101329986D01*
X87647767Y-101353472D01*
X87657088Y-101357399D01*
X87717682Y-101385848D01*
X87731881Y-101387970D01*
X87757484Y-101394603D01*
X87772463Y-101400218D01*
X87850107Y-101405988D01*
X87859397Y-101407027D01*
X87875933Y-101409499D01*
X87875949Y-101409500D01*
X87892672Y-101409500D01*
X87902010Y-101409846D01*
X87971996Y-101415047D01*
X87984976Y-101412276D01*
X88011281Y-101409500D01*
X94635463Y-101409500D01*
X94703584Y-101429502D01*
X94750077Y-101483158D01*
X94761463Y-101535500D01*
X94761463Y-101601000D01*
X94741461Y-101669121D01*
X94687805Y-101715614D01*
X94635463Y-101727000D01*
X85216000Y-101727000D01*
X85147879Y-101706998D01*
X85101386Y-101653342D01*
X85090000Y-101601000D01*
X85090000Y-99904791D01*
X85110002Y-99836670D01*
X85163658Y-99790177D01*
X85233932Y-99780073D01*
X85298512Y-99809567D01*
G37*
%TD.AperFunction*%
%TA.AperFunction,Conductor*%
G36*
X96716121Y-93365002D02*
G01*
X96762614Y-93418658D01*
X96774000Y-93471000D01*
X96774000Y-95080037D01*
X97264163Y-95080037D01*
X97332284Y-95100039D01*
X97378777Y-95153695D01*
X97390163Y-95206037D01*
X97390163Y-95514998D01*
X97459273Y-95772920D01*
X97574426Y-95910154D01*
X97729574Y-95999729D01*
X97906001Y-96030837D01*
X99181820Y-96030837D01*
X99270915Y-96067742D01*
X100587096Y-97383924D01*
X100624001Y-97473019D01*
X100624000Y-99340248D01*
X100603998Y-99408369D01*
X100565143Y-99446868D01*
X100434931Y-99528867D01*
X100253771Y-99689708D01*
X100150047Y-99817797D01*
X100091633Y-99858149D01*
X100020676Y-99860515D01*
X99952299Y-99815382D01*
X99875857Y-99716121D01*
X99875856Y-99716119D01*
X99698684Y-99550904D01*
X99496910Y-99416845D01*
X99496908Y-99416844D01*
X99275952Y-99317543D01*
X99275954Y-99317543D01*
X99041739Y-99255661D01*
X99036500Y-99255165D01*
X99036500Y-100839000D01*
X99016498Y-100907121D01*
X98962842Y-100953614D01*
X98910500Y-100965000D01*
X98654500Y-100965000D01*
X98586379Y-100944998D01*
X98539886Y-100891342D01*
X98528500Y-100839000D01*
X98528500Y-99257003D01*
X98323239Y-99305904D01*
X98099919Y-99399779D01*
X97894931Y-99528867D01*
X97894925Y-99528872D01*
X97862077Y-99558035D01*
X97797856Y-99588304D01*
X97727465Y-99579048D01*
X97673253Y-99533205D01*
X97656716Y-99496423D01*
X97654427Y-99487881D01*
X97539274Y-99350646D01*
X97384126Y-99261071D01*
X97207699Y-99229963D01*
X95277302Y-99229963D01*
X95019381Y-99299073D01*
X94882146Y-99414226D01*
X94792571Y-99569374D01*
X94761463Y-99745801D01*
X94761463Y-99886500D01*
X94741461Y-99954621D01*
X94687805Y-100001114D01*
X94635463Y-100012500D01*
X90468837Y-100012500D01*
X90400716Y-99992498D01*
X90354223Y-99938842D01*
X90342837Y-99886500D01*
X90342837Y-99038180D01*
X90379742Y-98949085D01*
X94263010Y-95065817D01*
X94325909Y-95031665D01*
X94404790Y-95014899D01*
X94630340Y-94926506D01*
X94630348Y-94926502D01*
X94838420Y-94802467D01*
X94838426Y-94802462D01*
X94902346Y-94748446D01*
X94967287Y-94719754D01*
X95037431Y-94730727D01*
X95090507Y-94777880D01*
X95105381Y-94812074D01*
X95108073Y-94822120D01*
X95223226Y-94959354D01*
X95378374Y-95048929D01*
X95554801Y-95080037D01*
X96266000Y-95080037D01*
X96266000Y-93471000D01*
X96286002Y-93402879D01*
X96339658Y-93356386D01*
X96392000Y-93345000D01*
X96648000Y-93345000D01*
X96716121Y-93365002D01*
G37*
%TD.AperFunction*%
%TA.AperFunction,Conductor*%
G36*
X97080226Y-68574260D02*
G01*
X97148337Y-68594295D01*
X97194804Y-68647973D01*
X97204251Y-68722139D01*
X97197963Y-68757801D01*
X97197963Y-70688198D01*
X97267073Y-70946120D01*
X97382226Y-71083354D01*
X97537374Y-71172929D01*
X97713801Y-71204037D01*
X99644198Y-71204037D01*
X99902120Y-71134927D01*
X100039354Y-71019774D01*
X100103906Y-70907966D01*
X100155288Y-70858973D01*
X100225002Y-70845537D01*
X100285296Y-70867753D01*
X100473184Y-70999314D01*
X100691651Y-71103985D01*
X100924279Y-71171570D01*
X100965000Y-71176427D01*
X100965000Y-69977000D01*
X101473000Y-69977000D01*
X101473000Y-71175202D01*
X101473001Y-71175202D01*
X101643786Y-71138900D01*
X101643793Y-71138898D01*
X101869340Y-71050506D01*
X101869348Y-71050502D01*
X102077420Y-70926467D01*
X102077426Y-70926462D01*
X102262449Y-70770106D01*
X102262453Y-70770102D01*
X102419461Y-70585618D01*
X102419466Y-70585611D01*
X102544226Y-70377974D01*
X102544229Y-70377968D01*
X102567179Y-70320001D01*
X103332163Y-70320001D01*
X103332163Y-71919998D01*
X103401273Y-72177920D01*
X103516426Y-72315154D01*
X103671574Y-72404729D01*
X103848001Y-72435837D01*
X105447998Y-72435837D01*
X105705920Y-72366727D01*
X105843154Y-72251574D01*
X105867732Y-72209003D01*
X106418209Y-72209003D01*
X106593100Y-72309976D01*
X106593108Y-72309980D01*
X106808167Y-72388255D01*
X107033567Y-72428000D01*
X107262433Y-72428000D01*
X107487833Y-72388255D01*
X107702892Y-72309980D01*
X107702900Y-72309976D01*
X107877791Y-72209003D01*
X107148000Y-71479210D01*
X106418209Y-72209003D01*
X105867732Y-72209003D01*
X105932729Y-72096426D01*
X105932728Y-72096426D01*
X105957149Y-71957927D01*
X105988676Y-71894314D01*
X106049590Y-71857845D01*
X106051032Y-71857756D01*
X106788790Y-71120000D01*
X107507210Y-71120000D01*
X108237003Y-71849791D01*
X108337976Y-71674900D01*
X108337980Y-71674892D01*
X108416255Y-71459833D01*
X108456000Y-71234433D01*
X108456000Y-71005567D01*
X108416255Y-70780167D01*
X108337980Y-70565108D01*
X108337976Y-70565100D01*
X108237003Y-70390209D01*
X107507210Y-71120000D01*
X106788790Y-71120000D01*
X106046796Y-70378008D01*
X106024654Y-70374555D01*
X105971556Y-70327426D01*
X105956651Y-70293184D01*
X105894727Y-70062081D01*
X105868645Y-70030997D01*
X106418209Y-70030997D01*
X107148000Y-70760790D01*
X107877791Y-70030997D01*
X107702900Y-69930024D01*
X107702892Y-69930020D01*
X107487833Y-69851745D01*
X107262433Y-69812000D01*
X107033567Y-69812000D01*
X106808167Y-69851745D01*
X106593108Y-69930020D01*
X106593100Y-69930024D01*
X106418209Y-70030997D01*
X105868645Y-70030997D01*
X105779574Y-69924846D01*
X105624426Y-69835271D01*
X105447999Y-69804163D01*
X103848002Y-69804163D01*
X103590081Y-69873273D01*
X103452846Y-69988426D01*
X103363271Y-70143574D01*
X103332163Y-70320001D01*
X102567179Y-70320001D01*
X102633411Y-70152721D01*
X102671402Y-69977000D01*
X101473000Y-69977000D01*
X100965000Y-69977000D01*
X100965000Y-69595000D01*
X100985002Y-69526879D01*
X101038658Y-69480386D01*
X101091000Y-69469000D01*
X102670280Y-69469000D01*
X102652710Y-69362876D01*
X102574639Y-69133545D01*
X102574637Y-69133540D01*
X102460172Y-68920063D01*
X102460163Y-68920049D01*
X102352104Y-68779733D01*
X102326387Y-68713557D01*
X102340531Y-68643984D01*
X102390043Y-68593101D01*
X102451993Y-68576854D01*
X108382855Y-68579718D01*
X108450966Y-68599753D01*
X108507035Y-68684736D01*
X108582875Y-69133815D01*
X108584054Y-69137501D01*
X108589497Y-69164172D01*
X108589858Y-69168034D01*
X108591336Y-69174034D01*
X108709240Y-69640476D01*
X108709244Y-69640489D01*
X108710712Y-69644061D01*
X108718275Y-69670199D01*
X108718946Y-69674031D01*
X108720899Y-69679886D01*
X108875831Y-70135370D01*
X108877589Y-70138830D01*
X108887220Y-70164269D01*
X108888197Y-70168038D01*
X108890576Y-70173629D01*
X108890664Y-70173834D01*
X109081573Y-70615305D01*
X109081577Y-70615313D01*
X109083605Y-70618618D01*
X109095248Y-70643212D01*
X109096520Y-70646879D01*
X109099322Y-70652228D01*
X109099342Y-70652267D01*
X109325147Y-71077200D01*
X109325152Y-71077209D01*
X109327431Y-71080329D01*
X109341016Y-71103920D01*
X109342575Y-71107466D01*
X109342581Y-71107477D01*
X109345737Y-71112482D01*
X109345942Y-71112804D01*
X109604975Y-71518068D01*
X109607510Y-71521011D01*
X109622938Y-71543431D01*
X109624776Y-71546840D01*
X109624780Y-71546845D01*
X109628413Y-71551696D01*
X109628569Y-71551903D01*
X109919265Y-71935080D01*
X109919273Y-71935089D01*
X109922028Y-71937812D01*
X109939201Y-71958917D01*
X109941308Y-71962169D01*
X109941315Y-71962179D01*
X109945385Y-71966790D01*
X110265990Y-72325547D01*
X110268950Y-72328036D01*
X110287768Y-72347704D01*
X110290126Y-72350773D01*
X110290127Y-72350774D01*
X110294702Y-72355186D01*
X110642903Y-72686940D01*
X110646069Y-72689195D01*
X110666393Y-72707280D01*
X110668999Y-72710161D01*
X110673868Y-72714154D01*
X110673995Y-72714258D01*
X111047584Y-73016941D01*
X111047588Y-73016944D01*
X111050918Y-73018934D01*
X111072640Y-73035341D01*
X111075461Y-73037996D01*
X111080660Y-73041604D01*
X111244507Y-73153853D01*
X111289400Y-73208854D01*
X111297430Y-73279395D01*
X111266049Y-73343079D01*
X111173295Y-73383799D01*
X107747066Y-73383799D01*
X107719259Y-73380692D01*
X107711294Y-73378890D01*
X107636068Y-73383557D01*
X107628266Y-73383799D01*
X107604555Y-73383799D01*
X107604541Y-73383800D01*
X107588459Y-73386104D01*
X107578389Y-73387136D01*
X107511605Y-73391278D01*
X107511598Y-73391279D01*
X107496962Y-73396563D01*
X107472039Y-73402777D01*
X107456638Y-73404982D01*
X107395714Y-73432682D01*
X107386348Y-73436495D01*
X107323404Y-73459218D01*
X107311860Y-73467760D01*
X107289063Y-73481175D01*
X107274500Y-73487796D01*
X107215507Y-73538628D01*
X107208203Y-73544463D01*
X107194775Y-73554398D01*
X107194764Y-73554408D01*
X107182949Y-73566223D01*
X107176101Y-73572581D01*
X107122927Y-73618399D01*
X107115704Y-73629542D01*
X107099066Y-73650107D01*
X106829113Y-73920059D01*
X106740018Y-73956963D01*
X105333802Y-73956963D01*
X105075881Y-74026073D01*
X104938646Y-74141226D01*
X104849071Y-74296374D01*
X104817963Y-74472801D01*
X104817963Y-76403198D01*
X104887073Y-76661120D01*
X105002226Y-76798354D01*
X105157374Y-76887929D01*
X105333801Y-76919037D01*
X107264198Y-76919037D01*
X107522120Y-76849927D01*
X107659354Y-76734774D01*
X107723906Y-76622966D01*
X107775288Y-76573973D01*
X107845002Y-76560537D01*
X107905296Y-76582753D01*
X108093184Y-76714314D01*
X108311651Y-76818985D01*
X108544279Y-76886570D01*
X108784836Y-76915255D01*
X109026828Y-76904267D01*
X109026842Y-76904265D01*
X109263786Y-76853900D01*
X109263793Y-76853898D01*
X109489340Y-76765506D01*
X109489348Y-76765502D01*
X109697420Y-76641467D01*
X109697426Y-76641462D01*
X109882449Y-76485106D01*
X109882452Y-76485102D01*
X110014106Y-76330410D01*
X110073489Y-76291497D01*
X110144483Y-76290866D01*
X110211737Y-76337657D01*
X110261661Y-76405870D01*
X110434736Y-76575356D01*
X110434749Y-76575367D01*
X110633184Y-76714314D01*
X110851651Y-76818985D01*
X111084279Y-76886570D01*
X111125000Y-76891427D01*
X111125001Y-75310000D01*
X111145003Y-75241879D01*
X111198659Y-75195386D01*
X111251001Y-75184000D01*
X111507000Y-75184001D01*
X111575121Y-75204003D01*
X111621614Y-75257659D01*
X111633000Y-75310001D01*
X111632999Y-76890201D01*
X111803795Y-76853897D01*
X112029340Y-76765506D01*
X112029348Y-76765502D01*
X112060983Y-76746644D01*
X112129737Y-76728944D01*
X112197147Y-76751226D01*
X112241809Y-76806415D01*
X112251500Y-76854873D01*
X112251500Y-77560631D01*
X112231498Y-77628752D01*
X112200865Y-77660626D01*
X112201111Y-77660920D01*
X112198379Y-77663212D01*
X112197773Y-77663843D01*
X112196894Y-77664459D01*
X112021572Y-77811572D01*
X111874457Y-77986896D01*
X111874455Y-77986899D01*
X111760024Y-78185099D01*
X111760020Y-78185108D01*
X111681745Y-78400167D01*
X111642000Y-78625567D01*
X111642000Y-78854433D01*
X111681745Y-79079833D01*
X111760020Y-79294892D01*
X111760024Y-79294901D01*
X111874455Y-79493101D01*
X111874457Y-79493104D01*
X112021572Y-79668428D01*
X112196896Y-79815543D01*
X112196899Y-79815545D01*
X112395099Y-79929976D01*
X112395108Y-79929980D01*
X112610167Y-80008255D01*
X112835567Y-80048000D01*
X113064433Y-80048000D01*
X113289833Y-80008255D01*
X113504892Y-79929980D01*
X113504901Y-79929976D01*
X113703101Y-79815545D01*
X113703104Y-79815543D01*
X113878428Y-79668428D01*
X114025543Y-79493104D01*
X114025545Y-79493101D01*
X114139976Y-79294901D01*
X114139980Y-79294892D01*
X114218255Y-79079833D01*
X114258000Y-78854433D01*
X114258000Y-78625567D01*
X114218255Y-78400167D01*
X114139980Y-78185108D01*
X114139976Y-78185099D01*
X114025545Y-77986899D01*
X114025543Y-77986896D01*
X113878428Y-77811572D01*
X113703106Y-77664459D01*
X113702227Y-77663843D01*
X113701931Y-77663472D01*
X113698889Y-77660920D01*
X113699402Y-77660309D01*
X113657900Y-77608384D01*
X113648500Y-77560631D01*
X113648500Y-75094928D01*
X113651607Y-75067121D01*
X113653409Y-75059158D01*
X113653409Y-75059155D01*
X113648742Y-74983935D01*
X113648500Y-74976132D01*
X113648500Y-74952413D01*
X113646193Y-74936311D01*
X113645162Y-74926245D01*
X113641019Y-74859458D01*
X113641018Y-74859454D01*
X113635736Y-74844822D01*
X113629523Y-74819901D01*
X113627318Y-74804506D01*
X113627317Y-74804503D01*
X113599615Y-74743574D01*
X113595802Y-74734207D01*
X113573080Y-74671265D01*
X113573078Y-74671262D01*
X113564540Y-74659723D01*
X113551128Y-74636930D01*
X113544505Y-74622363D01*
X113493671Y-74563368D01*
X113487836Y-74556064D01*
X113477901Y-74542636D01*
X113477891Y-74542625D01*
X113466077Y-74530811D01*
X113459719Y-74523963D01*
X113413901Y-74470788D01*
X113413900Y-74470787D01*
X113402753Y-74463562D01*
X113382191Y-74446925D01*
X113277443Y-74342177D01*
X113243417Y-74279865D01*
X113248482Y-74209050D01*
X113291029Y-74152214D01*
X113386255Y-74131213D01*
X113386580Y-74128860D01*
X113394858Y-74130003D01*
X113421266Y-74136618D01*
X113424906Y-74137962D01*
X113424911Y-74137963D01*
X113430954Y-74139221D01*
X113431151Y-74139262D01*
X113902551Y-74234435D01*
X113906420Y-74234656D01*
X113933262Y-74239130D01*
X113937004Y-74240179D01*
X113937009Y-74240180D01*
X113943045Y-74240939D01*
X113943254Y-74240965D01*
X114420842Y-74298035D01*
X114424718Y-74297944D01*
X114451843Y-74300253D01*
X114455642Y-74300996D01*
X114455651Y-74300997D01*
X114461895Y-74301277D01*
X114461963Y-74301279D01*
X114813868Y-74314886D01*
X114881165Y-74337505D01*
X114925550Y-74392917D01*
X114935000Y-74440792D01*
X114935000Y-80968504D01*
X114914998Y-81036625D01*
X114861342Y-81083118D01*
X114791068Y-81093222D01*
X114734939Y-81070440D01*
X114694881Y-81041336D01*
X114465851Y-80924639D01*
X114221400Y-80845211D01*
X113967518Y-80805001D01*
X113710482Y-80805001D01*
X113456600Y-80845211D01*
X113212149Y-80924639D01*
X112983119Y-81041336D01*
X112775169Y-81192420D01*
X112593420Y-81374169D01*
X112442336Y-81582119D01*
X112325639Y-81811149D01*
X112246211Y-82055600D01*
X112206001Y-82309482D01*
X112206001Y-82566518D01*
X112246211Y-82820400D01*
X112325639Y-83064851D01*
X112442336Y-83293881D01*
X112593420Y-83501831D01*
X112775169Y-83683580D01*
X112983119Y-83834664D01*
X113212149Y-83951361D01*
X113456600Y-84030789D01*
X113710482Y-84070999D01*
X113967518Y-84070999D01*
X114221401Y-84030789D01*
X114221399Y-84030789D01*
X114465851Y-83951361D01*
X114694881Y-83834664D01*
X114734939Y-83805560D01*
X114801806Y-83781702D01*
X114870958Y-83797782D01*
X114920438Y-83848696D01*
X114935000Y-83907496D01*
X114935000Y-84679845D01*
X114914998Y-84747966D01*
X114861342Y-84794459D01*
X114791068Y-84804563D01*
X114728009Y-84776366D01*
X114672110Y-84729461D01*
X114672101Y-84729455D01*
X114473901Y-84615024D01*
X114473892Y-84615020D01*
X114258833Y-84536745D01*
X114033433Y-84497000D01*
X113804567Y-84497000D01*
X113579167Y-84536745D01*
X113364108Y-84615020D01*
X113364099Y-84615024D01*
X113165899Y-84729455D01*
X113165896Y-84729457D01*
X112990572Y-84876572D01*
X112843457Y-85051896D01*
X112843455Y-85051899D01*
X112729024Y-85250099D01*
X112729020Y-85250108D01*
X112650745Y-85465167D01*
X112611000Y-85690567D01*
X112611000Y-85789500D01*
X112590998Y-85857621D01*
X112537342Y-85904114D01*
X112485000Y-85915500D01*
X110211580Y-85915500D01*
X110143459Y-85895498D01*
X110100536Y-85849041D01*
X110080170Y-85811058D01*
X110080169Y-85811058D01*
X109932357Y-85619121D01*
X109932356Y-85619119D01*
X109755184Y-85453904D01*
X109553410Y-85319845D01*
X109553408Y-85319844D01*
X109332452Y-85220543D01*
X109332454Y-85220543D01*
X109098239Y-85158661D01*
X108857055Y-85135862D01*
X108615404Y-85152761D01*
X108615395Y-85152762D01*
X108379739Y-85208904D01*
X108156419Y-85302779D01*
X107951431Y-85431867D01*
X107770271Y-85592708D01*
X107617827Y-85780961D01*
X107617823Y-85780968D01*
X107498162Y-85991608D01*
X107414516Y-86218950D01*
X107414515Y-86218954D01*
X107369122Y-86456916D01*
X107363203Y-86699080D01*
X107363203Y-86699092D01*
X107396919Y-86938994D01*
X107469359Y-87170147D01*
X107469360Y-87170149D01*
X107578588Y-87386385D01*
X107679280Y-87523962D01*
X107703372Y-87590746D01*
X107666698Y-87687474D01*
X105758217Y-89595956D01*
X105695905Y-89629981D01*
X105636935Y-89628681D01*
X105542238Y-89603661D01*
X105301055Y-89580862D01*
X105059404Y-89597761D01*
X105059395Y-89597762D01*
X104823739Y-89653904D01*
X104600419Y-89747779D01*
X104395431Y-89876867D01*
X104214271Y-90037708D01*
X104110547Y-90165797D01*
X104052133Y-90206149D01*
X103981176Y-90208515D01*
X103912799Y-90163382D01*
X103836357Y-90064121D01*
X103836356Y-90064119D01*
X103659184Y-89898904D01*
X103457410Y-89764845D01*
X103457408Y-89764844D01*
X103236452Y-89665543D01*
X103236454Y-89665543D01*
X103002239Y-89603661D01*
X102761055Y-89580862D01*
X102519404Y-89597761D01*
X102519395Y-89597762D01*
X102283739Y-89653904D01*
X102060419Y-89747779D01*
X101855431Y-89876867D01*
X101674271Y-90037708D01*
X101521827Y-90225961D01*
X101521823Y-90225968D01*
X101402162Y-90436608D01*
X101367062Y-90532008D01*
X101324768Y-90589032D01*
X101248812Y-90614500D01*
X99315892Y-90614500D01*
X99243948Y-90590078D01*
X99243677Y-90590548D01*
X99241314Y-90589184D01*
X99239188Y-90588462D01*
X99236526Y-90586420D01*
X99029479Y-90466882D01*
X99029473Y-90466879D01*
X98798538Y-90405000D01*
X98559463Y-90405000D01*
X98470499Y-90428838D01*
X98399522Y-90427148D01*
X98340726Y-90387354D01*
X98312778Y-90322090D01*
X98324551Y-90252076D01*
X98348792Y-90218036D01*
X99947424Y-88619405D01*
X100036519Y-88582500D01*
X100293631Y-88582500D01*
X100361752Y-88602502D01*
X100393626Y-88633135D01*
X100393920Y-88632889D01*
X100396212Y-88635621D01*
X100396843Y-88636227D01*
X100397459Y-88637106D01*
X100544572Y-88812428D01*
X100719896Y-88959543D01*
X100719899Y-88959545D01*
X100918099Y-89073976D01*
X100918108Y-89073980D01*
X101133167Y-89152255D01*
X101358567Y-89192000D01*
X101587433Y-89192000D01*
X101812833Y-89152255D01*
X102027892Y-89073980D01*
X102027901Y-89073976D01*
X102226101Y-88959545D01*
X102226104Y-88959543D01*
X102401428Y-88812428D01*
X102548543Y-88637104D01*
X102548545Y-88637101D01*
X102662976Y-88438901D01*
X102662980Y-88438892D01*
X102741255Y-88223833D01*
X102781000Y-87998433D01*
X102781000Y-87769567D01*
X102741255Y-87544167D01*
X102662980Y-87329108D01*
X102662976Y-87329099D01*
X102548545Y-87130899D01*
X102548543Y-87130896D01*
X102401428Y-86955572D01*
X102226104Y-86808457D01*
X102226101Y-86808455D01*
X102027901Y-86694024D01*
X102027892Y-86694020D01*
X101812833Y-86615745D01*
X101587433Y-86576000D01*
X101358567Y-86576000D01*
X101133167Y-86615745D01*
X100918108Y-86694020D01*
X100918099Y-86694024D01*
X100719899Y-86808455D01*
X100719896Y-86808457D01*
X100544572Y-86955572D01*
X100397459Y-87130894D01*
X100396843Y-87131773D01*
X100396472Y-87132069D01*
X100393920Y-87135111D01*
X100393309Y-87134598D01*
X100341384Y-87176100D01*
X100293631Y-87185500D01*
X99787366Y-87185500D01*
X99759559Y-87182393D01*
X99751594Y-87180591D01*
X99676368Y-87185258D01*
X99668566Y-87185500D01*
X98784617Y-87185500D01*
X98695522Y-87148595D01*
X98213859Y-86666932D01*
X98179833Y-86604620D01*
X98184898Y-86533805D01*
X98227445Y-86476969D01*
X98302954Y-86451837D01*
X99397998Y-86451837D01*
X99655920Y-86382727D01*
X99793154Y-86267574D01*
X99882729Y-86112426D01*
X99882728Y-86112426D01*
X99913837Y-85935999D01*
X99913837Y-84589462D01*
X100311000Y-84589462D01*
X100311000Y-84828538D01*
X100372879Y-85059473D01*
X100372882Y-85059479D01*
X100492417Y-85266521D01*
X100492424Y-85266531D01*
X100661469Y-85435576D01*
X100661479Y-85435583D01*
X100868521Y-85555118D01*
X100868527Y-85555121D01*
X101099462Y-85617000D01*
X101338538Y-85617000D01*
X101569473Y-85555121D01*
X101569479Y-85555118D01*
X101776526Y-85435580D01*
X101779188Y-85433538D01*
X101781314Y-85432816D01*
X101783677Y-85431452D01*
X101783948Y-85431922D01*
X101855892Y-85407500D01*
X105571635Y-85407500D01*
X105599444Y-85410607D01*
X105607408Y-85412409D01*
X105641446Y-85410297D01*
X105703692Y-85422424D01*
X105771654Y-85454986D01*
X106004279Y-85522570D01*
X106244836Y-85551255D01*
X106486828Y-85540267D01*
X106486842Y-85540265D01*
X106723786Y-85489900D01*
X106723793Y-85489898D01*
X106949340Y-85401506D01*
X106949348Y-85401502D01*
X107157420Y-85277467D01*
X107157426Y-85277462D01*
X107342449Y-85121106D01*
X107342453Y-85121102D01*
X107499461Y-84936618D01*
X107499466Y-84936611D01*
X107624226Y-84728974D01*
X107624229Y-84728968D01*
X107713409Y-84503727D01*
X107764601Y-84266949D01*
X107764601Y-84266944D01*
X107772278Y-83952878D01*
X107772277Y-83952874D01*
X107731867Y-83708775D01*
X107733138Y-83708565D01*
X107735696Y-83643684D01*
X107766005Y-83594822D01*
X108362942Y-82997886D01*
X108425254Y-82963861D01*
X108487189Y-82965985D01*
X108544277Y-82982570D01*
X108784836Y-83011255D01*
X109026828Y-83000267D01*
X109026842Y-83000265D01*
X109263786Y-82949900D01*
X109263793Y-82949898D01*
X109489340Y-82861506D01*
X109489348Y-82861502D01*
X109697420Y-82737467D01*
X109697426Y-82737462D01*
X109882449Y-82581106D01*
X109882453Y-82581102D01*
X110039461Y-82396618D01*
X110039466Y-82396611D01*
X110164226Y-82188974D01*
X110164229Y-82188968D01*
X110253409Y-81963727D01*
X110304601Y-81726949D01*
X110304601Y-81726944D01*
X110312278Y-81412878D01*
X110312277Y-81412874D01*
X110272712Y-81173883D01*
X110272712Y-81173881D01*
X110194641Y-80944548D01*
X110194637Y-80944540D01*
X110080172Y-80731063D01*
X110080163Y-80731049D01*
X109932357Y-80539121D01*
X109932356Y-80539119D01*
X109755184Y-80373904D01*
X109755180Y-80373900D01*
X109593773Y-80266662D01*
X109548102Y-80212304D01*
X109537500Y-80161714D01*
X109537500Y-79721365D01*
X109540607Y-79693558D01*
X109542409Y-79685595D01*
X109542409Y-79685592D01*
X109537742Y-79610367D01*
X109537500Y-79602565D01*
X109537500Y-79578854D01*
X109537499Y-79578840D01*
X109535195Y-79562758D01*
X109534163Y-79552690D01*
X109530020Y-79485897D01*
X109530020Y-79485896D01*
X109524736Y-79471260D01*
X109518523Y-79446338D01*
X109516318Y-79430942D01*
X109516318Y-79430941D01*
X109488617Y-79370014D01*
X109484805Y-79360650D01*
X109462081Y-79297707D01*
X109462078Y-79297701D01*
X109453540Y-79286162D01*
X109440129Y-79263372D01*
X109433503Y-79248800D01*
X109433501Y-79248797D01*
X109382672Y-79189807D01*
X109376837Y-79182503D01*
X109366899Y-79169071D01*
X109366896Y-79169069D01*
X109355077Y-79157250D01*
X109348716Y-79150399D01*
X109302899Y-79097225D01*
X109294233Y-79091608D01*
X109247950Y-79037771D01*
X109238681Y-78963996D01*
X109258000Y-78854433D01*
X109258000Y-78625567D01*
X109218255Y-78400167D01*
X109139980Y-78185108D01*
X109139976Y-78185099D01*
X109025545Y-77986899D01*
X109025543Y-77986896D01*
X108878428Y-77811572D01*
X108703104Y-77664457D01*
X108703101Y-77664455D01*
X108504901Y-77550024D01*
X108504892Y-77550020D01*
X108289833Y-77471745D01*
X108064433Y-77432000D01*
X107835567Y-77432000D01*
X107610167Y-77471745D01*
X107395108Y-77550020D01*
X107395099Y-77550024D01*
X107196899Y-77664455D01*
X107196896Y-77664457D01*
X107021572Y-77811572D01*
X106874457Y-77986896D01*
X106874455Y-77986899D01*
X106760024Y-78185099D01*
X106760020Y-78185108D01*
X106681745Y-78400167D01*
X106642000Y-78625567D01*
X106642000Y-78854433D01*
X106681745Y-79079833D01*
X106760020Y-79294892D01*
X106760024Y-79294901D01*
X106874455Y-79493101D01*
X106874457Y-79493104D01*
X107021572Y-79668428D01*
X107196896Y-79815543D01*
X107196899Y-79815545D01*
X107395099Y-79929976D01*
X107395108Y-79929980D01*
X107610167Y-80008255D01*
X107835567Y-80048000D01*
X107997428Y-80048000D01*
X108065549Y-80068002D01*
X108112042Y-80121658D01*
X108122146Y-80191932D01*
X108092652Y-80256512D01*
X108064570Y-80280621D01*
X107951430Y-80351868D01*
X107770271Y-80512708D01*
X107617827Y-80700961D01*
X107617823Y-80700968D01*
X107498162Y-80911608D01*
X107414516Y-81138950D01*
X107414515Y-81138954D01*
X107369122Y-81376916D01*
X107363203Y-81619080D01*
X107363203Y-81619092D01*
X107396919Y-81858994D01*
X107404942Y-81884594D01*
X107406226Y-81955579D01*
X107373804Y-82011368D01*
X106774217Y-82610956D01*
X106711904Y-82644981D01*
X106652934Y-82643681D01*
X106558238Y-82618661D01*
X106317055Y-82595862D01*
X106075404Y-82612761D01*
X106075395Y-82612762D01*
X105839739Y-82668904D01*
X105637085Y-82754092D01*
X105566536Y-82762050D01*
X105502884Y-82730604D01*
X105466337Y-82669737D01*
X105463809Y-82618226D01*
X105471999Y-82566517D01*
X105471999Y-82309482D01*
X105431789Y-82055600D01*
X105352361Y-81811149D01*
X105235664Y-81582119D01*
X105084580Y-81374169D01*
X104902831Y-81192420D01*
X104694881Y-81041336D01*
X104465851Y-80924639D01*
X104221400Y-80845211D01*
X103967518Y-80805001D01*
X103710482Y-80805001D01*
X103456599Y-80845211D01*
X103456601Y-80845211D01*
X103212149Y-80924639D01*
X102983119Y-81041336D01*
X102775169Y-81192420D01*
X102593420Y-81374169D01*
X102442336Y-81582119D01*
X102325639Y-81811149D01*
X102246211Y-82055600D01*
X102206001Y-82309482D01*
X102206001Y-82566518D01*
X102246211Y-82820400D01*
X102325639Y-83064851D01*
X102442336Y-83293881D01*
X102593420Y-83501831D01*
X102775169Y-83683580D01*
X102911409Y-83782564D01*
X102954763Y-83838786D01*
X102960838Y-83909523D01*
X102927707Y-83972314D01*
X102837348Y-84010500D01*
X101855892Y-84010500D01*
X101783948Y-83986078D01*
X101783677Y-83986548D01*
X101781314Y-83985184D01*
X101779188Y-83984462D01*
X101776526Y-83982420D01*
X101569479Y-83862882D01*
X101569473Y-83862879D01*
X101338538Y-83801000D01*
X101099462Y-83801000D01*
X100868527Y-83862879D01*
X100868521Y-83862882D01*
X100661479Y-83982417D01*
X100661469Y-83982424D01*
X100492424Y-84151469D01*
X100492417Y-84151479D01*
X100372882Y-84358521D01*
X100372879Y-84358527D01*
X100311000Y-84589462D01*
X99913837Y-84589462D01*
X99913837Y-83736002D01*
X99844727Y-83478081D01*
X99729574Y-83340846D01*
X99574426Y-83251271D01*
X99397999Y-83220163D01*
X97695321Y-83220163D01*
X97627200Y-83200161D01*
X97580707Y-83146505D01*
X97575488Y-83055227D01*
X97651789Y-82820400D01*
X97691999Y-82566518D01*
X97691999Y-82309482D01*
X97651789Y-82055600D01*
X97572361Y-81811149D01*
X97455664Y-81582119D01*
X97304580Y-81374169D01*
X97122831Y-81192420D01*
X96914881Y-81041336D01*
X96685851Y-80924639D01*
X96441400Y-80845211D01*
X96187518Y-80805001D01*
X95930482Y-80805001D01*
X95676599Y-80845211D01*
X95676601Y-80845211D01*
X95432149Y-80924639D01*
X95203119Y-81041336D01*
X94995169Y-81192420D01*
X94893595Y-81293994D01*
X94831283Y-81328020D01*
X94760468Y-81322955D01*
X94703632Y-81280408D01*
X94678500Y-81204899D01*
X94678500Y-80384003D01*
X100997209Y-80384003D01*
X101172100Y-80484976D01*
X101172108Y-80484980D01*
X101387167Y-80563255D01*
X101612567Y-80603000D01*
X101841433Y-80603000D01*
X102066833Y-80563255D01*
X102281892Y-80484980D01*
X102281900Y-80484976D01*
X102456791Y-80384003D01*
X101727000Y-79654210D01*
X100997209Y-80384003D01*
X94678500Y-80384003D01*
X94678500Y-79792369D01*
X94698502Y-79724248D01*
X94729135Y-79692374D01*
X94728889Y-79692080D01*
X94731621Y-79689788D01*
X94732227Y-79689157D01*
X94733106Y-79688541D01*
X94908428Y-79541428D01*
X95055543Y-79366104D01*
X95055545Y-79366101D01*
X95162663Y-79180567D01*
X100419000Y-79180567D01*
X100419000Y-79409433D01*
X100458745Y-79634833D01*
X100537020Y-79849892D01*
X100537024Y-79849900D01*
X100637998Y-80024790D01*
X101367790Y-79295000D01*
X102086210Y-79295000D01*
X102816003Y-80024791D01*
X102916976Y-79849900D01*
X102916980Y-79849892D01*
X102995255Y-79634833D01*
X103035000Y-79409433D01*
X103035000Y-79180567D01*
X102995255Y-78955167D01*
X102916980Y-78740108D01*
X102916976Y-78740100D01*
X102816003Y-78565209D01*
X102086210Y-79295000D01*
X101367790Y-79295000D01*
X100637998Y-78565210D01*
X100537024Y-78740100D01*
X100537020Y-78740108D01*
X100458745Y-78955167D01*
X100419000Y-79180567D01*
X95162663Y-79180567D01*
X95169976Y-79167901D01*
X95169980Y-79167892D01*
X95248255Y-78952833D01*
X95288000Y-78727433D01*
X95288000Y-78498567D01*
X95248255Y-78273167D01*
X95223808Y-78205997D01*
X100997209Y-78205997D01*
X101727000Y-78935790D01*
X102456791Y-78205997D01*
X102281900Y-78105024D01*
X102281892Y-78105020D01*
X102066833Y-78026745D01*
X101841433Y-77987000D01*
X101612567Y-77987000D01*
X101387167Y-78026745D01*
X101172108Y-78105020D01*
X101172100Y-78105024D01*
X100997209Y-78205997D01*
X95223808Y-78205997D01*
X95169980Y-78058108D01*
X95169976Y-78058099D01*
X95055545Y-77859899D01*
X95055543Y-77859896D01*
X94908428Y-77684572D01*
X94733104Y-77537457D01*
X94733101Y-77537455D01*
X94534901Y-77423024D01*
X94534892Y-77423020D01*
X94319833Y-77344745D01*
X94094433Y-77305000D01*
X93865567Y-77305000D01*
X93640167Y-77344745D01*
X93425108Y-77423020D01*
X93425099Y-77423024D01*
X93226899Y-77537455D01*
X93226896Y-77537457D01*
X93051572Y-77684572D01*
X92904457Y-77859896D01*
X92904455Y-77859899D01*
X92790024Y-78058099D01*
X92790020Y-78058108D01*
X92711745Y-78273167D01*
X92672000Y-78498567D01*
X92672000Y-78727433D01*
X92711745Y-78952833D01*
X92790020Y-79167892D01*
X92790024Y-79167901D01*
X92904455Y-79366101D01*
X92904457Y-79366104D01*
X93051572Y-79541428D01*
X93226897Y-79688544D01*
X93227778Y-79689161D01*
X93228075Y-79689532D01*
X93231111Y-79692080D01*
X93230599Y-79692690D01*
X93272103Y-79744621D01*
X93281501Y-79792370D01*
X93281501Y-79916118D01*
X93261499Y-79984239D01*
X93207843Y-80030732D01*
X93112407Y-80034519D01*
X93049835Y-80011745D01*
X92824433Y-79972000D01*
X92595567Y-79972000D01*
X92370167Y-80011745D01*
X92155108Y-80090020D01*
X92155099Y-80090024D01*
X91956899Y-80204455D01*
X91956896Y-80204457D01*
X91781572Y-80351572D01*
X91634457Y-80526896D01*
X91634455Y-80526899D01*
X91520024Y-80725099D01*
X91520020Y-80725108D01*
X91441745Y-80940167D01*
X91402000Y-81165567D01*
X91402000Y-81394433D01*
X91441745Y-81619833D01*
X91520020Y-81834892D01*
X91520024Y-81834901D01*
X91634455Y-82033101D01*
X91634457Y-82033104D01*
X91781572Y-82208428D01*
X91956896Y-82355543D01*
X91956899Y-82355545D01*
X92155099Y-82469976D01*
X92155108Y-82469980D01*
X92370167Y-82548255D01*
X92595567Y-82588000D01*
X92824433Y-82588000D01*
X93049833Y-82548255D01*
X93112405Y-82525481D01*
X93183259Y-82520978D01*
X93245299Y-82555496D01*
X93281500Y-82643882D01*
X93281500Y-83328537D01*
X93278393Y-83356344D01*
X93276591Y-83364307D01*
X93276591Y-83364310D01*
X93281258Y-83439534D01*
X93281500Y-83447336D01*
X93281500Y-83471047D01*
X93281501Y-83471061D01*
X93283805Y-83487143D01*
X93284837Y-83497211D01*
X93288980Y-83564004D01*
X93288980Y-83564005D01*
X93294264Y-83578641D01*
X93300477Y-83603563D01*
X93302682Y-83618959D01*
X93302682Y-83618960D01*
X93330383Y-83679887D01*
X93334195Y-83689251D01*
X93356919Y-83752194D01*
X93356922Y-83752200D01*
X93365460Y-83763739D01*
X93378871Y-83786529D01*
X93385499Y-83801104D01*
X93385499Y-83801105D01*
X93436333Y-83860100D01*
X93442169Y-83867405D01*
X93452102Y-83880829D01*
X93452109Y-83880838D01*
X93463918Y-83892647D01*
X93470277Y-83899495D01*
X93516102Y-83952678D01*
X93527250Y-83959904D01*
X93547812Y-83976541D01*
X96032795Y-86461524D01*
X96066821Y-86523836D01*
X96061756Y-86594651D01*
X96019209Y-86651487D01*
X95986795Y-86669020D01*
X95918108Y-86694020D01*
X95918099Y-86694024D01*
X95719899Y-86808455D01*
X95719896Y-86808457D01*
X95544572Y-86955572D01*
X95397457Y-87130896D01*
X95397455Y-87130899D01*
X95283024Y-87329099D01*
X95283020Y-87329108D01*
X95204745Y-87544167D01*
X95165000Y-87769567D01*
X95165000Y-87998433D01*
X95204745Y-88223833D01*
X95283020Y-88438892D01*
X95283024Y-88438900D01*
X95355196Y-88563905D01*
X95371934Y-88632900D01*
X95335172Y-88716000D01*
X92353595Y-91697578D01*
X92291283Y-91731604D01*
X92220468Y-91726539D01*
X92163632Y-91683992D01*
X92138500Y-91608483D01*
X92138500Y-91024365D01*
X92141607Y-90996558D01*
X92143409Y-90988595D01*
X92143409Y-90988592D01*
X92138742Y-90913367D01*
X92138500Y-90905565D01*
X92138500Y-90881854D01*
X92138499Y-90881840D01*
X92136195Y-90865758D01*
X92135163Y-90855690D01*
X92131020Y-90788897D01*
X92131020Y-90788896D01*
X92125736Y-90774260D01*
X92119523Y-90749338D01*
X92117318Y-90733942D01*
X92117318Y-90733941D01*
X92089617Y-90673014D01*
X92085805Y-90663650D01*
X92063081Y-90600707D01*
X92063078Y-90600701D01*
X92054540Y-90589162D01*
X92041129Y-90566372D01*
X92034503Y-90551800D01*
X92034501Y-90551797D01*
X91983672Y-90492807D01*
X91977837Y-90485503D01*
X91967899Y-90472071D01*
X91967896Y-90472069D01*
X91956077Y-90460250D01*
X91949716Y-90453399D01*
X91903898Y-90400224D01*
X91892753Y-90393000D01*
X91872191Y-90376363D01*
X90731542Y-89235714D01*
X90697516Y-89173402D01*
X90696551Y-89124740D01*
X90716000Y-89014434D01*
X90716000Y-88785567D01*
X91402000Y-88785567D01*
X91402000Y-89014433D01*
X91441745Y-89239833D01*
X91520020Y-89454892D01*
X91520024Y-89454901D01*
X91634455Y-89653101D01*
X91634457Y-89653104D01*
X91781572Y-89828428D01*
X91956896Y-89975543D01*
X91956899Y-89975545D01*
X92155099Y-90089976D01*
X92155108Y-90089980D01*
X92370167Y-90168255D01*
X92595567Y-90208000D01*
X92824433Y-90208000D01*
X93049833Y-90168255D01*
X93264892Y-90089980D01*
X93264901Y-90089976D01*
X93463101Y-89975545D01*
X93463104Y-89975543D01*
X93638428Y-89828428D01*
X93785543Y-89653104D01*
X93785545Y-89653101D01*
X93899976Y-89454901D01*
X93899980Y-89454892D01*
X93978255Y-89239833D01*
X94018000Y-89014433D01*
X94018000Y-88785567D01*
X93978255Y-88560167D01*
X93899980Y-88345108D01*
X93899976Y-88345099D01*
X93785545Y-88146899D01*
X93785543Y-88146896D01*
X93638428Y-87971572D01*
X93463104Y-87824457D01*
X93463101Y-87824455D01*
X93264901Y-87710024D01*
X93264892Y-87710020D01*
X93049833Y-87631745D01*
X92824433Y-87592000D01*
X92595567Y-87592000D01*
X92370167Y-87631745D01*
X92155108Y-87710020D01*
X92155099Y-87710024D01*
X91956899Y-87824455D01*
X91956896Y-87824457D01*
X91781572Y-87971572D01*
X91634457Y-88146896D01*
X91634455Y-88146899D01*
X91520024Y-88345099D01*
X91520020Y-88345108D01*
X91441745Y-88560167D01*
X91402000Y-88785567D01*
X90716000Y-88785567D01*
X90676255Y-88560167D01*
X90597980Y-88345108D01*
X90597976Y-88345099D01*
X90483545Y-88146899D01*
X90483543Y-88146896D01*
X90336428Y-87971572D01*
X90161104Y-87824457D01*
X90161101Y-87824455D01*
X89962901Y-87710024D01*
X89962892Y-87710020D01*
X89747833Y-87631745D01*
X89522433Y-87592000D01*
X89293567Y-87592000D01*
X89068167Y-87631745D01*
X88853108Y-87710020D01*
X88853099Y-87710024D01*
X88654899Y-87824455D01*
X88654896Y-87824457D01*
X88479572Y-87971572D01*
X88332457Y-88146896D01*
X88332455Y-88146899D01*
X88218024Y-88345099D01*
X88218020Y-88345108D01*
X88139745Y-88560167D01*
X88100000Y-88785567D01*
X88100000Y-89014433D01*
X88139745Y-89239833D01*
X88218020Y-89454892D01*
X88218024Y-89454901D01*
X88332455Y-89653101D01*
X88332457Y-89653104D01*
X88479572Y-89828428D01*
X88654896Y-89975543D01*
X88654899Y-89975545D01*
X88853099Y-90089976D01*
X88853108Y-90089980D01*
X89068167Y-90168255D01*
X89293567Y-90208000D01*
X89522434Y-90208000D01*
X89632740Y-90188551D01*
X89703299Y-90196421D01*
X89743714Y-90223542D01*
X90704596Y-91184424D01*
X90741501Y-91273519D01*
X90741500Y-92228248D01*
X90721498Y-92296369D01*
X90682643Y-92334868D01*
X90552431Y-92416867D01*
X90371271Y-92577708D01*
X90267547Y-92705797D01*
X90209133Y-92746149D01*
X90138176Y-92748515D01*
X90069799Y-92703382D01*
X89993357Y-92604121D01*
X89993356Y-92604119D01*
X89816184Y-92438904D01*
X89614410Y-92304845D01*
X89614408Y-92304844D01*
X89393452Y-92205543D01*
X89393454Y-92205543D01*
X89159239Y-92143661D01*
X89154000Y-92143165D01*
X89154000Y-95051202D01*
X89154001Y-95051202D01*
X89324786Y-95014900D01*
X89324793Y-95014898D01*
X89550340Y-94926506D01*
X89550348Y-94926502D01*
X89758420Y-94802467D01*
X89758426Y-94802462D01*
X89943449Y-94646106D01*
X89943452Y-94646102D01*
X90075106Y-94491410D01*
X90134489Y-94452497D01*
X90205483Y-94451866D01*
X90272737Y-94498657D01*
X90322661Y-94566870D01*
X90495736Y-94736356D01*
X90495749Y-94736367D01*
X90694184Y-94875314D01*
X90912651Y-94979985D01*
X91145279Y-95047570D01*
X91385836Y-95076255D01*
X91627828Y-95065267D01*
X91627842Y-95065265D01*
X91864786Y-95014900D01*
X91864793Y-95014898D01*
X92081868Y-94929827D01*
X92152591Y-94923594D01*
X92215456Y-94956587D01*
X92250505Y-95018329D01*
X92246609Y-95089218D01*
X92216938Y-95136235D01*
X89391915Y-97961258D01*
X89302820Y-97998163D01*
X88227002Y-97998163D01*
X87969081Y-98067273D01*
X87831846Y-98182426D01*
X87742272Y-98337573D01*
X87732389Y-98393620D01*
X87700861Y-98457232D01*
X87639947Y-98493702D01*
X87568986Y-98491449D01*
X87511781Y-98452731D01*
X87455427Y-98385572D01*
X87280106Y-98238459D01*
X87279227Y-98237843D01*
X87278931Y-98237472D01*
X87275889Y-98234920D01*
X87276402Y-98234309D01*
X87234900Y-98182384D01*
X87225500Y-98134631D01*
X87225500Y-96274931D01*
X87254979Y-96193940D01*
X87308539Y-96130110D01*
X87308545Y-96130101D01*
X87422976Y-95931901D01*
X87422980Y-95931892D01*
X87501255Y-95716833D01*
X87541000Y-95491433D01*
X87541000Y-95262567D01*
X87501255Y-95037167D01*
X87422980Y-94822108D01*
X87422976Y-94822099D01*
X87308545Y-94623899D01*
X87308543Y-94623896D01*
X87161428Y-94448572D01*
X86986104Y-94301457D01*
X86986101Y-94301455D01*
X86787901Y-94187024D01*
X86787892Y-94187020D01*
X86572833Y-94108745D01*
X86347433Y-94069000D01*
X86118567Y-94069000D01*
X85893167Y-94108745D01*
X85678108Y-94187020D01*
X85678099Y-94187024D01*
X85479899Y-94301455D01*
X85479896Y-94301457D01*
X85300358Y-94452108D01*
X85299510Y-94451098D01*
X85242783Y-94482074D01*
X85171968Y-94477009D01*
X85115132Y-94434462D01*
X85090000Y-94358953D01*
X85090000Y-93853000D01*
X87447941Y-93853000D01*
X87457919Y-93923994D01*
X87530359Y-94155147D01*
X87530360Y-94155149D01*
X87639590Y-94371388D01*
X87782661Y-94566870D01*
X87955736Y-94736356D01*
X87955749Y-94736367D01*
X88154184Y-94875314D01*
X88372651Y-94979985D01*
X88605279Y-95047570D01*
X88646000Y-95052427D01*
X88646000Y-93853000D01*
X87447941Y-93853000D01*
X85090000Y-93853000D01*
X85090000Y-93345000D01*
X87448609Y-93345000D01*
X88646000Y-93345000D01*
X88646000Y-92145003D01*
X88440739Y-92193904D01*
X88217419Y-92287779D01*
X88012431Y-92416867D01*
X87831271Y-92577708D01*
X87678827Y-92765961D01*
X87678823Y-92765968D01*
X87559162Y-92976608D01*
X87475516Y-93203950D01*
X87475515Y-93203954D01*
X87448609Y-93345000D01*
X85090000Y-93345000D01*
X85090000Y-88775047D01*
X85110002Y-88706926D01*
X85163658Y-88660433D01*
X85233932Y-88650329D01*
X85299360Y-88683081D01*
X85300358Y-88681892D01*
X85479896Y-88832543D01*
X85479899Y-88832545D01*
X85678099Y-88946976D01*
X85678108Y-88946980D01*
X85893166Y-89025255D01*
X85979000Y-89040391D01*
X85979000Y-89040390D01*
X86486999Y-89040390D01*
X86572833Y-89025255D01*
X86572834Y-89025255D01*
X86787892Y-88946980D01*
X86787901Y-88946976D01*
X86986101Y-88832545D01*
X86986104Y-88832543D01*
X87161428Y-88685428D01*
X87308543Y-88510104D01*
X87308545Y-88510101D01*
X87422976Y-88311901D01*
X87422980Y-88311892D01*
X87501255Y-88096834D01*
X87516391Y-88011000D01*
X86487000Y-88010999D01*
X86486999Y-89040390D01*
X85979000Y-89040390D01*
X85979001Y-87958809D01*
X85979000Y-87958807D01*
X85979000Y-87503000D01*
X86486999Y-87503000D01*
X87516390Y-87503001D01*
X87501255Y-87417167D01*
X87501255Y-87417166D01*
X87422980Y-87202108D01*
X87422976Y-87202099D01*
X87308545Y-87003899D01*
X87308543Y-87003896D01*
X87161428Y-86828572D01*
X86986104Y-86681457D01*
X86986101Y-86681455D01*
X86787901Y-86567024D01*
X86787892Y-86567020D01*
X86572834Y-86488745D01*
X86487000Y-86473609D01*
X86486999Y-87503000D01*
X85979000Y-87503000D01*
X85979001Y-86473610D01*
X85893166Y-86488745D01*
X85678108Y-86567020D01*
X85678099Y-86567024D01*
X85479899Y-86681455D01*
X85479896Y-86681457D01*
X85300358Y-86832108D01*
X85299510Y-86831098D01*
X85242783Y-86862074D01*
X85171968Y-86857009D01*
X85115132Y-86814462D01*
X85090000Y-86738953D01*
X85090000Y-83982641D01*
X85110002Y-83914520D01*
X85163658Y-83868027D01*
X85233932Y-83857923D01*
X85273203Y-83870374D01*
X85432149Y-83951361D01*
X85676600Y-84030789D01*
X85930482Y-84070999D01*
X86187518Y-84070999D01*
X86441401Y-84030789D01*
X86441399Y-84030789D01*
X86685851Y-83951361D01*
X86914881Y-83834664D01*
X87122831Y-83683580D01*
X87304580Y-83501831D01*
X87455664Y-83293881D01*
X87572361Y-83064851D01*
X87651789Y-82820400D01*
X87691999Y-82566518D01*
X87691999Y-82309482D01*
X87651789Y-82055600D01*
X87572361Y-81811149D01*
X87455664Y-81582119D01*
X87304580Y-81374169D01*
X87122831Y-81192420D01*
X87085871Y-81165567D01*
X88100000Y-81165567D01*
X88100000Y-81394433D01*
X88139745Y-81619833D01*
X88218020Y-81834892D01*
X88218024Y-81834901D01*
X88332455Y-82033101D01*
X88332457Y-82033104D01*
X88479572Y-82208428D01*
X88654896Y-82355543D01*
X88654899Y-82355545D01*
X88853099Y-82469976D01*
X88853108Y-82469980D01*
X89068167Y-82548255D01*
X89293567Y-82588000D01*
X89522433Y-82588000D01*
X89747833Y-82548255D01*
X89962892Y-82469980D01*
X89962901Y-82469976D01*
X90161101Y-82355545D01*
X90161104Y-82355543D01*
X90336428Y-82208428D01*
X90483543Y-82033104D01*
X90483545Y-82033101D01*
X90597976Y-81834901D01*
X90597980Y-81834892D01*
X90676255Y-81619833D01*
X90716000Y-81394433D01*
X90716000Y-81165567D01*
X90676255Y-80940167D01*
X90597980Y-80725108D01*
X90597976Y-80725099D01*
X90483545Y-80526899D01*
X90483543Y-80526896D01*
X90336428Y-80351572D01*
X90161104Y-80204457D01*
X90161101Y-80204455D01*
X89962901Y-80090024D01*
X89962892Y-80090020D01*
X89747833Y-80011745D01*
X89522433Y-79972000D01*
X89293567Y-79972000D01*
X89068167Y-80011745D01*
X88853108Y-80090020D01*
X88853099Y-80090024D01*
X88654899Y-80204455D01*
X88654896Y-80204457D01*
X88479572Y-80351572D01*
X88332457Y-80526896D01*
X88332455Y-80526899D01*
X88218024Y-80725099D01*
X88218020Y-80725108D01*
X88139745Y-80940167D01*
X88100000Y-81165567D01*
X87085871Y-81165567D01*
X86914881Y-81041336D01*
X86685851Y-80924639D01*
X86441400Y-80845211D01*
X86187518Y-80805001D01*
X85930482Y-80805001D01*
X85676599Y-80845211D01*
X85676601Y-80845211D01*
X85432149Y-80924639D01*
X85273203Y-81005626D01*
X85203426Y-81018730D01*
X85137641Y-80992030D01*
X85096735Y-80934002D01*
X85090000Y-80893359D01*
X85090000Y-79480541D01*
X85110002Y-79412420D01*
X85163658Y-79365927D01*
X85233932Y-79355823D01*
X85312521Y-79399550D01*
X85431569Y-79541426D01*
X85606896Y-79688543D01*
X85606899Y-79688545D01*
X85805099Y-79802976D01*
X85805108Y-79802980D01*
X86020167Y-79881255D01*
X86245567Y-79921000D01*
X86474433Y-79921000D01*
X86699833Y-79881255D01*
X86914892Y-79802980D01*
X86914901Y-79802976D01*
X87113101Y-79688545D01*
X87113104Y-79688543D01*
X87288428Y-79541428D01*
X87435543Y-79366104D01*
X87435545Y-79366101D01*
X87549976Y-79167901D01*
X87549980Y-79167892D01*
X87628255Y-78952833D01*
X87668000Y-78727433D01*
X87668000Y-78498566D01*
X87648551Y-78388260D01*
X87656421Y-78317701D01*
X87683542Y-78277286D01*
X88947600Y-77013228D01*
X88969457Y-76995763D01*
X88976364Y-76991405D01*
X88976370Y-76991399D01*
X89002664Y-76961628D01*
X89097104Y-76919037D01*
X89484198Y-76919037D01*
X89742120Y-76849927D01*
X89879354Y-76734774D01*
X89943906Y-76622966D01*
X89995288Y-76573973D01*
X90065002Y-76560537D01*
X90125296Y-76582753D01*
X90313184Y-76714314D01*
X90531651Y-76818985D01*
X90764279Y-76886570D01*
X91004836Y-76915255D01*
X91246828Y-76904267D01*
X91246842Y-76904265D01*
X91483786Y-76853900D01*
X91483793Y-76853898D01*
X91709340Y-76765506D01*
X91709348Y-76765502D01*
X91917420Y-76641467D01*
X91917426Y-76641462D01*
X92102449Y-76485106D01*
X92102452Y-76485102D01*
X92234106Y-76330410D01*
X92293489Y-76291497D01*
X92364483Y-76290866D01*
X92431737Y-76337657D01*
X92481661Y-76405870D01*
X92654736Y-76575356D01*
X92654749Y-76575367D01*
X92853184Y-76714314D01*
X93071651Y-76818985D01*
X93304279Y-76886570D01*
X93345000Y-76891427D01*
X93345000Y-76890201D01*
X93852999Y-76890201D01*
X94023795Y-76853897D01*
X94249340Y-76765506D01*
X94249348Y-76765502D01*
X94457420Y-76641467D01*
X94457426Y-76641462D01*
X94642449Y-76485106D01*
X94642453Y-76485102D01*
X94799461Y-76300618D01*
X94799466Y-76300611D01*
X94924226Y-76092974D01*
X94924229Y-76092968D01*
X95013411Y-75867721D01*
X95051402Y-75692000D01*
X93853000Y-75691999D01*
X93852999Y-76890201D01*
X93345000Y-76890201D01*
X93345001Y-75639809D01*
X93345000Y-75639807D01*
X93345000Y-75184000D01*
X93852999Y-75184000D01*
X95050280Y-75184001D01*
X95032713Y-75077883D01*
X94954639Y-74848545D01*
X94954637Y-74848540D01*
X94840172Y-74635063D01*
X94840163Y-74635049D01*
X94692357Y-74443121D01*
X94692356Y-74443119D01*
X94515184Y-74277904D01*
X94313410Y-74143845D01*
X94313408Y-74143844D01*
X94092452Y-74044543D01*
X94092454Y-74044543D01*
X93858239Y-73982661D01*
X93853000Y-73982165D01*
X93853000Y-73982166D01*
X93852999Y-75184000D01*
X93345000Y-75184000D01*
X93345001Y-73984003D01*
X93139739Y-74032904D01*
X92916419Y-74126779D01*
X92711431Y-74255867D01*
X92530271Y-74416708D01*
X92426547Y-74544797D01*
X92368133Y-74585149D01*
X92297176Y-74587515D01*
X92228799Y-74542382D01*
X92152357Y-74443121D01*
X92152356Y-74443119D01*
X91975184Y-74277904D01*
X91975180Y-74277900D01*
X91813773Y-74170662D01*
X91768102Y-74116304D01*
X91757500Y-74065714D01*
X91757500Y-72858517D01*
X91794405Y-72769422D01*
X92039365Y-72524462D01*
X95993000Y-72524462D01*
X95993000Y-72763538D01*
X96054879Y-72994473D01*
X96054882Y-72994479D01*
X96174417Y-73201521D01*
X96174424Y-73201531D01*
X96343469Y-73370576D01*
X96343479Y-73370583D01*
X96550521Y-73490118D01*
X96550527Y-73490121D01*
X96781462Y-73552000D01*
X96879747Y-73552000D01*
X96947868Y-73572002D01*
X96994361Y-73625658D01*
X97004465Y-73695932D01*
X96981683Y-73752061D01*
X96922717Y-73833221D01*
X96807809Y-74058740D01*
X96807807Y-74058746D01*
X96729597Y-74299453D01*
X96690000Y-74549451D01*
X96690000Y-74802549D01*
X96729597Y-75052547D01*
X96807807Y-75293254D01*
X96807809Y-75293260D01*
X96922717Y-75518779D01*
X97071488Y-75723545D01*
X97250455Y-75902512D01*
X97455221Y-76051283D01*
X97680740Y-76166191D01*
X97680746Y-76166193D01*
X97921453Y-76244403D01*
X98171451Y-76284000D01*
X98424549Y-76284000D01*
X98674547Y-76244403D01*
X98915254Y-76166193D01*
X98915260Y-76166191D01*
X99140779Y-76051283D01*
X99345545Y-75902512D01*
X99524512Y-75723545D01*
X99673283Y-75518779D01*
X99788191Y-75293260D01*
X99788193Y-75293254D01*
X99866403Y-75052547D01*
X99906000Y-74802549D01*
X99906000Y-74549451D01*
X99866403Y-74299453D01*
X99788193Y-74058746D01*
X99788191Y-74058740D01*
X99673283Y-73833221D01*
X99545150Y-73656861D01*
X99521291Y-73589993D01*
X99537372Y-73520842D01*
X99588286Y-73471361D01*
X99647086Y-73456800D01*
X99687138Y-73456800D01*
X99776234Y-73493705D01*
X100382096Y-74099568D01*
X100419000Y-74188663D01*
X100419000Y-74409433D01*
X100458745Y-74634833D01*
X100537020Y-74849892D01*
X100537024Y-74849901D01*
X100651455Y-75048101D01*
X100651457Y-75048104D01*
X100798572Y-75223428D01*
X100973896Y-75370543D01*
X100973899Y-75370545D01*
X101172099Y-75484976D01*
X101172108Y-75484980D01*
X101387167Y-75563255D01*
X101612567Y-75603000D01*
X101841433Y-75603000D01*
X102066833Y-75563255D01*
X102281892Y-75484980D01*
X102281901Y-75484976D01*
X102480101Y-75370545D01*
X102480104Y-75370543D01*
X102655428Y-75223428D01*
X102802543Y-75048104D01*
X102802545Y-75048101D01*
X102916976Y-74849901D01*
X102916980Y-74849892D01*
X102995255Y-74634833D01*
X103035000Y-74409433D01*
X103035000Y-74180567D01*
X102995255Y-73955167D01*
X102916980Y-73740108D01*
X102916976Y-73740099D01*
X102802545Y-73541899D01*
X102802543Y-73541896D01*
X102655428Y-73366572D01*
X102480104Y-73219457D01*
X102480101Y-73219455D01*
X102281901Y-73105024D01*
X102281892Y-73105020D01*
X102066833Y-73026745D01*
X101841433Y-72987000D01*
X101620663Y-72987000D01*
X101531568Y-72950096D01*
X100694245Y-72112774D01*
X100683377Y-72100381D01*
X100655695Y-72064304D01*
X100485913Y-71934026D01*
X100485904Y-71934021D01*
X100288182Y-71852121D01*
X100125192Y-71830663D01*
X100125170Y-71830661D01*
X100076001Y-71824188D01*
X100076000Y-71824188D01*
X100030926Y-71830122D01*
X100014480Y-71831200D01*
X97342951Y-71831200D01*
X97279951Y-71814319D01*
X97251479Y-71797881D01*
X97020538Y-71736000D01*
X96781462Y-71736000D01*
X96550527Y-71797879D01*
X96550521Y-71797882D01*
X96343479Y-71917417D01*
X96343469Y-71917424D01*
X96221646Y-72039247D01*
X96208488Y-72046432D01*
X96204141Y-72056752D01*
X96174424Y-72086469D01*
X96174417Y-72086479D01*
X96054882Y-72293521D01*
X96054879Y-72293527D01*
X95993000Y-72524462D01*
X92039365Y-72524462D01*
X92091085Y-72472742D01*
X92180180Y-72435837D01*
X93255998Y-72435837D01*
X93513920Y-72366727D01*
X93651154Y-72251574D01*
X93675732Y-72209003D01*
X94226209Y-72209003D01*
X94401100Y-72309976D01*
X94401108Y-72309980D01*
X94616167Y-72388255D01*
X94841567Y-72428000D01*
X95070433Y-72428000D01*
X95295833Y-72388255D01*
X95510892Y-72309980D01*
X95510900Y-72309976D01*
X95685791Y-72209003D01*
X94956000Y-71479210D01*
X94226209Y-72209003D01*
X93675732Y-72209003D01*
X93740729Y-72096426D01*
X93740728Y-72096426D01*
X93765149Y-71957927D01*
X93796676Y-71894314D01*
X93857590Y-71857845D01*
X93859032Y-71857756D01*
X94596790Y-71120000D01*
X95315210Y-71120000D01*
X96045003Y-71849791D01*
X96145976Y-71674900D01*
X96145980Y-71674892D01*
X96224255Y-71459833D01*
X96264000Y-71234433D01*
X96264000Y-71005567D01*
X96224255Y-70780167D01*
X96145980Y-70565108D01*
X96145976Y-70565100D01*
X96045003Y-70390209D01*
X95315210Y-71120000D01*
X94596790Y-71120000D01*
X93854796Y-70378008D01*
X93832654Y-70374555D01*
X93779556Y-70327426D01*
X93764651Y-70293184D01*
X93702727Y-70062081D01*
X93676645Y-70030997D01*
X94226209Y-70030997D01*
X94956000Y-70760790D01*
X95685791Y-70030997D01*
X95510900Y-69930024D01*
X95510892Y-69930020D01*
X95295833Y-69851745D01*
X95070433Y-69812000D01*
X94841567Y-69812000D01*
X94616167Y-69851745D01*
X94401108Y-69930020D01*
X94401100Y-69930024D01*
X94226209Y-70030997D01*
X93676645Y-70030997D01*
X93587574Y-69924846D01*
X93432426Y-69835271D01*
X93255999Y-69804163D01*
X91656002Y-69804163D01*
X91499188Y-69846181D01*
X91428212Y-69844491D01*
X91369416Y-69804697D01*
X91341468Y-69739433D01*
X91347251Y-69684009D01*
X91358963Y-69649470D01*
X91359778Y-69645111D01*
X91367548Y-69619266D01*
X91369273Y-69615178D01*
X91369277Y-69615168D01*
X91370809Y-69609190D01*
X91487505Y-69142267D01*
X91487960Y-69137851D01*
X91493590Y-69111440D01*
X91494974Y-69107225D01*
X91496017Y-69101110D01*
X91496080Y-69100736D01*
X91565677Y-68677225D01*
X91596460Y-68613249D01*
X91690070Y-68571657D01*
X97080226Y-68574260D01*
G37*
%TD.AperFunction*%
%TA.AperFunction,Conductor*%
G36*
X112241077Y-89663906D02*
G01*
X112698480Y-90121309D01*
X112732506Y-90183621D01*
X112727786Y-90253499D01*
X112650745Y-90465167D01*
X112611000Y-90690567D01*
X112611000Y-90919433D01*
X112650745Y-91144833D01*
X112729020Y-91359892D01*
X112729024Y-91359901D01*
X112843455Y-91558101D01*
X112843457Y-91558104D01*
X112990572Y-91733428D01*
X113165896Y-91880543D01*
X113165899Y-91880545D01*
X113313705Y-91965881D01*
X113362698Y-92017263D01*
X113376134Y-92086977D01*
X113349748Y-92152888D01*
X113313705Y-92184119D01*
X113165899Y-92269455D01*
X113165896Y-92269457D01*
X112990572Y-92416572D01*
X112843457Y-92591896D01*
X112843455Y-92591899D01*
X112729024Y-92790099D01*
X112729020Y-92790108D01*
X112650745Y-93005167D01*
X112611000Y-93230567D01*
X112611000Y-93459434D01*
X112630449Y-93569739D01*
X112622579Y-93640298D01*
X112595459Y-93680713D01*
X112396578Y-93879595D01*
X112307482Y-93916500D01*
X108046133Y-93916500D01*
X107978012Y-93896498D01*
X107931519Y-93842842D01*
X107924426Y-93757888D01*
X107969000Y-93591537D01*
X107969000Y-93352462D01*
X107947390Y-93271812D01*
X107949080Y-93200836D01*
X107988874Y-93142040D01*
X108069097Y-93113201D01*
X108914934Y-93113201D01*
X108942741Y-93116308D01*
X108950704Y-93118110D01*
X108950707Y-93118110D01*
X109025931Y-93113443D01*
X109033733Y-93113201D01*
X109057448Y-93113201D01*
X109073543Y-93110895D01*
X109083610Y-93109864D01*
X109150405Y-93105721D01*
X109150402Y-93105721D01*
X109165036Y-93100438D01*
X109189960Y-93094224D01*
X109205355Y-93092019D01*
X109205361Y-93092017D01*
X109266293Y-93064314D01*
X109275658Y-93060501D01*
X109338598Y-93037779D01*
X109350137Y-93029241D01*
X109372930Y-93015829D01*
X109387498Y-93009205D01*
X109387504Y-93009201D01*
X109446500Y-92958366D01*
X109453803Y-92952531D01*
X109467230Y-92942596D01*
X109467238Y-92942589D01*
X109479043Y-92930784D01*
X109485891Y-92924426D01*
X109539073Y-92878602D01*
X109539074Y-92878601D01*
X109546301Y-92867451D01*
X109562938Y-92846889D01*
X109832885Y-92576942D01*
X109921980Y-92540037D01*
X111328198Y-92540037D01*
X111586120Y-92470927D01*
X111723354Y-92355774D01*
X111812929Y-92200626D01*
X111812928Y-92200626D01*
X111844037Y-92024199D01*
X111844037Y-90093802D01*
X111774927Y-89835881D01*
X111773342Y-89833992D01*
X111770163Y-89826729D01*
X111768556Y-89823641D01*
X111768765Y-89823532D01*
X111744878Y-89768952D01*
X111756095Y-89698847D01*
X111803434Y-89645936D01*
X111869864Y-89627001D01*
X112151982Y-89627001D01*
X112241077Y-89663906D01*
G37*
%TD.AperFunction*%
%TA.AperFunction,Conductor*%
G36*
X87088703Y-73957373D02*
G01*
X87147407Y-73997303D01*
X87175204Y-74062631D01*
X87159180Y-74140301D01*
X87069072Y-74296374D01*
X87037963Y-74472801D01*
X87037963Y-76403198D01*
X87107073Y-76661121D01*
X87131855Y-76690654D01*
X87160321Y-76755694D01*
X87149105Y-76825799D01*
X87124430Y-76860742D01*
X86695714Y-77289458D01*
X86633402Y-77323484D01*
X86584740Y-77324449D01*
X86474434Y-77305000D01*
X86245567Y-77305000D01*
X86020167Y-77344745D01*
X85805108Y-77423020D01*
X85805099Y-77423024D01*
X85606899Y-77537455D01*
X85606896Y-77537457D01*
X85431569Y-77684574D01*
X85312521Y-77826450D01*
X85253412Y-77865777D01*
X85182424Y-77866903D01*
X85122097Y-77829472D01*
X85090000Y-77745459D01*
X85090000Y-74332642D01*
X85110002Y-74264521D01*
X85163658Y-74218028D01*
X85214312Y-74206653D01*
X85569468Y-74201894D01*
X85573860Y-74201205D01*
X85600817Y-74199902D01*
X85605245Y-74200164D01*
X85605258Y-74200163D01*
X85611247Y-74199627D01*
X85611525Y-74199601D01*
X86090499Y-74153754D01*
X86090496Y-74153754D01*
X86094812Y-74152709D01*
X86121573Y-74149200D01*
X86126015Y-74149098D01*
X86126021Y-74149097D01*
X86132188Y-74148030D01*
X86132217Y-74148025D01*
X86605819Y-74063086D01*
X86605831Y-74063082D01*
X86610043Y-74061688D01*
X86636430Y-74055999D01*
X86640847Y-74055533D01*
X86646911Y-74053963D01*
X87017731Y-73955519D01*
X87088703Y-73957373D01*
G37*
%TD.AperFunction*%
%TD*%
M02*
