%TF.GenerationSoftware,KiCad,Pcbnew,(5.99.0-2965-g3673c2369)*%
%TF.CreationDate,2020-08-26T16:57:39+03:00*%
%TF.ProjectId,cara-de-pelusa,63617261-2d64-4652-9d70-656c7573612e,rev?*%
%TF.SameCoordinates,Original*%
%TF.FileFunction,Copper,L2,Bot*%
%TF.FilePolarity,Positive*%
%FSLAX46Y46*%
G04 Gerber Fmt 4.6, Leading zero omitted, Abs format (unit mm)*
G04 Created by KiCad (PCBNEW (5.99.0-2965-g3673c2369)) date 2020-08-26 16:57:39*
%MOMM*%
%LPD*%
G01*
G04 APERTURE LIST*
%TA.AperFunction,ComponentPad*%
%ADD10O,2.250000X2.250000*%
%TD*%
%TA.AperFunction,ComponentPad*%
%ADD11O,1.930400X1.930400*%
%TD*%
%TA.AperFunction,ComponentPad*%
%ADD12R,1.930400X1.930400*%
%TD*%
%TA.AperFunction,ComponentPad*%
%ADD13O,1.600000X1.600000*%
%TD*%
%TA.AperFunction,ComponentPad*%
%ADD14C,1.600000*%
%TD*%
%TA.AperFunction,ComponentPad*%
%ADD15C,1.800000*%
%TD*%
%TA.AperFunction,ComponentPad*%
%ADD16R,1.800000X1.800000*%
%TD*%
%TA.AperFunction,ComponentPad*%
%ADD17O,2.200000X2.200000*%
%TD*%
%TA.AperFunction,ComponentPad*%
%ADD18R,2.200000X2.200000*%
%TD*%
%TA.AperFunction,ComponentPad*%
%ADD19R,1.600000X1.600000*%
%TD*%
%TA.AperFunction,ViaPad*%
%ADD20C,0.800000*%
%TD*%
%TA.AperFunction,Conductor*%
%ADD21C,0.381000*%
%TD*%
%TA.AperFunction,Conductor*%
%ADD22C,0.609600*%
%TD*%
G04 APERTURE END LIST*
D10*
%TO.P,RV4,*%
%TO.N,*%
X103839000Y-82438000D03*
X113839000Y-82438000D03*
D11*
%TO.P,RV4,3,3*%
%TO.N,GND*%
X111379000Y-75438000D03*
%TO.P,RV4,2,2*%
%TO.N,OUT*%
X108839000Y-75438000D03*
D12*
%TO.P,RV4,1,1*%
%TO.N,Net-(C3-Pad2)*%
X106299000Y-75438000D03*
%TD*%
D10*
%TO.P,RV1,*%
%TO.N,*%
X86059000Y-82438000D03*
X96059000Y-82438000D03*
D11*
%TO.P,RV1,3,3*%
%TO.N,GND*%
X93599000Y-75438000D03*
%TO.P,RV1,2,2*%
%TO.N,Net-(C2-Pad1)*%
X91059000Y-75438000D03*
D12*
%TO.P,RV1,1,1*%
%TO.N,Net-(Q2-Pad1)*%
X88519000Y-75438000D03*
%TD*%
D11*
%TO.P,RV5,3,3*%
%TO.N,Net-(C3-Pad1)*%
X108839000Y-81534000D03*
%TO.P,RV5,2,2*%
X106299000Y-84074000D03*
%TO.P,RV5,1,1*%
%TO.N,Net-(C6-Pad2)*%
X108839000Y-86614000D03*
%TD*%
D13*
%TO.P,R6,2*%
%TO.N,+9V*%
X113919000Y-100965000D03*
D14*
%TO.P,R6,1*%
%TO.N,Net-(D2-Pad2)*%
X113919000Y-93345000D03*
%TD*%
D13*
%TO.P,R5,2*%
%TO.N,GND*%
X111252000Y-96647000D03*
D14*
%TO.P,R5,1*%
%TO.N,OUT*%
X103632000Y-96647000D03*
%TD*%
D13*
%TO.P,R4,2*%
%TO.N,Net-(C3-Pad1)*%
X92710000Y-88900000D03*
D14*
%TO.P,R4,1*%
%TO.N,VCC*%
X92710000Y-81280000D03*
%TD*%
D13*
%TO.P,R3,2*%
%TO.N,Net-(C4-Pad2)*%
X89408000Y-88900000D03*
D14*
%TO.P,R3,1*%
%TO.N,VCC*%
X89408000Y-81280000D03*
%TD*%
D13*
%TO.P,R2,2*%
%TO.N,Net-(Q2-Pad1)*%
X86360000Y-78613000D03*
D14*
%TO.P,R2,1*%
%TO.N,Net-(C1-Pad1)*%
X93980000Y-78613000D03*
%TD*%
D13*
%TO.P,R1,2*%
%TO.N,GND*%
X86233000Y-87757000D03*
D14*
%TO.P,R1,1*%
%TO.N,IN*%
X86233000Y-95377000D03*
%TD*%
D11*
%TO.P,Q2,1,E*%
%TO.N,Net-(Q2-Pad1)*%
X102743000Y-91059000D03*
%TO.P,Q2,3,C*%
%TO.N,Net-(C6-Pad2)*%
X105283000Y-91059000D03*
%TO.P,Q2,2,B*%
%TO.N,Net-(C4-Pad2)*%
X107823000Y-91059000D03*
D12*
%TO.P,Q2,1,E*%
%TO.N,Net-(Q2-Pad1)*%
X110363000Y-91059000D03*
%TD*%
D11*
%TO.P,Q1,1,E*%
%TO.N,GND*%
X88900000Y-93599000D03*
%TO.P,Q1,3,C*%
%TO.N,Net-(C4-Pad2)*%
X91440000Y-93599000D03*
%TO.P,Q1,2,B*%
%TO.N,Net-(C1-Pad1)*%
X93980000Y-93599000D03*
D12*
%TO.P,Q1,1,E*%
%TO.N,GND*%
X96520000Y-93599000D03*
%TD*%
D11*
%TO.P,J3,2,Pin_2*%
%TO.N,GND*%
X101219000Y-69723000D03*
D12*
%TO.P,J3,1,Pin_1*%
%TO.N,+9V*%
X98679000Y-69723000D03*
%TD*%
D11*
%TO.P,J2,4,Pin_4*%
%TO.N,OUT*%
X103862500Y-100711000D03*
%TO.P,J2,3,Pin_3*%
%TO.N,LED-*%
X101322500Y-100711000D03*
%TO.P,J2,2,Pin_2*%
%TO.N,GND*%
X98782500Y-100711000D03*
D12*
%TO.P,J2,1,Pin_1*%
%TO.N,IN*%
X96242500Y-100711000D03*
%TD*%
D11*
%TO.P,J1,2,Pin_2*%
%TO.N,GND*%
X109855000Y-100711000D03*
D12*
%TO.P,J1,1,Pin_1*%
%TO.N,+9V*%
X107315000Y-100711000D03*
%TD*%
D15*
%TO.P,D2,2,A*%
%TO.N,Net-(D2-Pad2)*%
X101346000Y-94615000D03*
D16*
%TO.P,D2,1,K*%
%TO.N,LED-*%
X98806000Y-94615000D03*
%TD*%
D17*
%TO.P,D1,2,A*%
%TO.N,+9V*%
X98298000Y-74676000D03*
D18*
%TO.P,D1,1,K*%
%TO.N,VCC*%
X98298000Y-84836000D03*
%TD*%
D14*
%TO.P,C7,2*%
%TO.N,GND*%
X101727000Y-79295000D03*
%TO.P,C7,1*%
%TO.N,VCC*%
X101727000Y-74295000D03*
%TD*%
%TO.P,C6,2*%
%TO.N,Net-(C6-Pad2)*%
X113919000Y-85805000D03*
%TO.P,C6,1*%
%TO.N,Net-(C4-Pad2)*%
X113919000Y-90805000D03*
%TD*%
%TO.P,C5,2*%
%TO.N,GND*%
X107148000Y-71120000D03*
D19*
%TO.P,C5,1*%
%TO.N,VCC*%
X104648000Y-71120000D03*
%TD*%
D14*
%TO.P,C4,2*%
%TO.N,Net-(C4-Pad2)*%
X96473000Y-87884000D03*
%TO.P,C4,1*%
%TO.N,Net-(C1-Pad1)*%
X101473000Y-87884000D03*
%TD*%
%TO.P,C3,2*%
%TO.N,Net-(C3-Pad2)*%
X112950000Y-78740000D03*
%TO.P,C3,1*%
%TO.N,Net-(C3-Pad1)*%
X107950000Y-78740000D03*
%TD*%
%TO.P,C2,2*%
%TO.N,GND*%
X94956000Y-71120000D03*
D19*
%TO.P,C2,1*%
%TO.N,Net-(C2-Pad1)*%
X92456000Y-71120000D03*
%TD*%
D14*
%TO.P,C1,2*%
%TO.N,IN*%
X86527000Y-99314000D03*
D19*
%TO.P,C1,1*%
%TO.N,Net-(C1-Pad1)*%
X89027000Y-99314000D03*
%TD*%
D20*
%TO.N,GND*%
X112522000Y-90170000D03*
X100838000Y-83439000D03*
X85979000Y-75692000D03*
X85471000Y-101346000D03*
X112268000Y-93599000D03*
%TO.N,Net-(C4-Pad2)*%
X107061000Y-93472000D03*
X100076000Y-92710000D03*
%TO.N,Net-(C3-Pad1)*%
X101219000Y-84709000D03*
%TO.N,Net-(Q2-Pad1)*%
X98679000Y-91313000D03*
%TO.N,VCC*%
X96901000Y-72644000D03*
%TD*%
D21*
%TO.N,OUT*%
X111718701Y-87544299D02*
X111547299Y-87544299D01*
X111718701Y-87544299D02*
X111718701Y-92724357D01*
X110744000Y-83947000D02*
X110934500Y-84137500D01*
X111547299Y-87544299D02*
X110934500Y-86931500D01*
X110934500Y-86931500D02*
X110934500Y-84137500D01*
X111718701Y-92724357D02*
X109701058Y-94742000D01*
X110194701Y-76793701D02*
X110194701Y-83397701D01*
X108839000Y-75438000D02*
X110194701Y-76793701D01*
X110194701Y-83397701D02*
X110744000Y-83947000D01*
X109701058Y-94742000D02*
X105537000Y-94742000D01*
X105537000Y-94742000D02*
X103632000Y-96647000D01*
%TO.N,Net-(C4-Pad2)*%
X107061000Y-93472000D02*
X107061000Y-91821000D01*
X107061000Y-91821000D02*
X107823000Y-91059000D01*
X96473000Y-87884000D02*
X100076000Y-91487000D01*
X100076000Y-91487000D02*
X100076000Y-92710000D01*
%TO.N,Net-(C3-Pad1)*%
X101219000Y-84709000D02*
X99234501Y-86693499D01*
X99234501Y-86693499D02*
X94916501Y-86693499D01*
X94916501Y-86693499D02*
X92710000Y-88900000D01*
D22*
%TO.N,+9V*%
X101526894Y-81026000D02*
X101526894Y-82730894D01*
X99914199Y-78647801D02*
X99914199Y-76292199D01*
X99914199Y-78647801D02*
X99914199Y-79413305D01*
X99914199Y-79413305D02*
X101526894Y-81026000D01*
X101526894Y-82730894D02*
X102777801Y-83981801D01*
X102777801Y-88848597D02*
X101083699Y-90542699D01*
X102734699Y-93226301D02*
X101401199Y-91892801D01*
X102777801Y-83981801D02*
X102777801Y-88848597D01*
X101083699Y-91575301D02*
X101401199Y-91892801D01*
X101083699Y-90542699D02*
X101083699Y-91575301D01*
D21*
%TO.N,Net-(Q2-Pad1)*%
X98679000Y-91313000D02*
X93218000Y-91313000D01*
X93218000Y-91313000D02*
X90598501Y-88693501D01*
X90598501Y-84232443D02*
X86360000Y-79993942D01*
X90598501Y-88693501D02*
X90598501Y-84232443D01*
X86360000Y-79993942D02*
X86360000Y-78613000D01*
D22*
%TO.N,+9V*%
X107315000Y-100711000D02*
X105844999Y-99240999D01*
X105844999Y-99240999D02*
X104294893Y-99240999D01*
X104294893Y-99240999D02*
X102327199Y-97273305D01*
X102327199Y-97273305D02*
X102327199Y-95712907D01*
X102327199Y-95712907D02*
X102750801Y-95289305D01*
X102750801Y-95289305D02*
X102750801Y-93242403D01*
X102750801Y-93242403D02*
X102734699Y-93226301D01*
%TO.N,VCC*%
X92710000Y-81280000D02*
X93841370Y-81280000D01*
X93841370Y-81280000D02*
X96501001Y-78620369D01*
X96501001Y-78620369D02*
X96501001Y-73043999D01*
X96501001Y-73043999D02*
X96901000Y-72644000D01*
X89408000Y-81280000D02*
X92710000Y-81280000D01*
X98298000Y-84836000D02*
X95134630Y-84836000D01*
X95134630Y-84836000D02*
X92710000Y-82411370D01*
X92710000Y-82411370D02*
X92710000Y-81280000D01*
%TO.N,+9V*%
X98298000Y-74676000D02*
X98298000Y-70104000D01*
X98298000Y-70104000D02*
X98679000Y-69723000D01*
X99914199Y-76292199D02*
X98298000Y-74676000D01*
X107315000Y-100711000D02*
X108785001Y-99240999D01*
X108785001Y-99240999D02*
X112194999Y-99240999D01*
X112194999Y-99240999D02*
X113919000Y-100965000D01*
%TO.N,VCC*%
X101727000Y-74295000D02*
X101727000Y-74041000D01*
X101727000Y-74041000D02*
X104648000Y-71120000D01*
%TD*%
%TA.AperFunction,Conductor*%
%TO.N,GND*%
G36*
X111895233Y-100090704D02*
G01*
X112574096Y-100769569D01*
X112611000Y-100858664D01*
X112611000Y-101079433D01*
X112650745Y-101304833D01*
X112729020Y-101519892D01*
X112729022Y-101519895D01*
X112739474Y-101537999D01*
X112756212Y-101606995D01*
X112732992Y-101674087D01*
X112677185Y-101717974D01*
X112630355Y-101727000D01*
X111186004Y-101727000D01*
X111117883Y-101706998D01*
X111071390Y-101653342D01*
X111061286Y-101583068D01*
X111078001Y-101536105D01*
X111180229Y-101365968D01*
X111269411Y-101140721D01*
X111307402Y-100965000D01*
X109727000Y-100965000D01*
X109658879Y-100944998D01*
X109612386Y-100891342D01*
X109601000Y-100839000D01*
X109601000Y-100583000D01*
X109621002Y-100514879D01*
X109674658Y-100468386D01*
X109727000Y-100457000D01*
X111306280Y-100457000D01*
X111288710Y-100350876D01*
X111244294Y-100220405D01*
X111241276Y-100149472D01*
X111277086Y-100088168D01*
X111363572Y-100053799D01*
X111806137Y-100053799D01*
X111895233Y-100090704D01*
G37*
%TD.AperFunction*%
%TA.AperFunction,Conductor*%
G36*
X87849543Y-82491905D02*
G01*
X87901417Y-82523187D01*
X89863097Y-84484868D01*
X89900002Y-84573963D01*
X89900001Y-87508415D01*
X89879999Y-87576536D01*
X89826343Y-87623029D01*
X89752121Y-87632501D01*
X89522433Y-87592000D01*
X89293567Y-87592000D01*
X89068167Y-87631745D01*
X88853108Y-87710020D01*
X88853099Y-87710024D01*
X88654899Y-87824455D01*
X88654896Y-87824457D01*
X88479572Y-87971572D01*
X88332457Y-88146896D01*
X88332455Y-88146899D01*
X88218024Y-88345099D01*
X88218020Y-88345108D01*
X88139745Y-88560167D01*
X88100000Y-88785567D01*
X88100000Y-89014433D01*
X88139745Y-89239833D01*
X88218020Y-89454892D01*
X88218024Y-89454901D01*
X88332455Y-89653101D01*
X88332457Y-89653104D01*
X88479572Y-89828428D01*
X88654896Y-89975543D01*
X88654899Y-89975545D01*
X88853099Y-90089976D01*
X88853108Y-90089980D01*
X89068167Y-90168255D01*
X89293567Y-90208000D01*
X89522433Y-90208000D01*
X89747833Y-90168255D01*
X89962892Y-90089980D01*
X89962901Y-90089976D01*
X90161101Y-89975545D01*
X90161104Y-89975543D01*
X90336427Y-89828429D01*
X90434729Y-89711277D01*
X90493839Y-89671950D01*
X90564827Y-89670824D01*
X90620346Y-89703173D01*
X92658769Y-91741597D01*
X92676236Y-91763457D01*
X92680596Y-91770367D01*
X92680598Y-91770370D01*
X92737102Y-91820272D01*
X92742793Y-91825620D01*
X92759541Y-91842369D01*
X92759546Y-91842373D01*
X92772556Y-91852124D01*
X92780397Y-91858508D01*
X92830565Y-91902815D01*
X92844650Y-91909428D01*
X92866661Y-91922653D01*
X92879111Y-91931983D01*
X92879116Y-91931986D01*
X92941767Y-91955472D01*
X92951088Y-91959399D01*
X93011682Y-91987848D01*
X93025881Y-91989970D01*
X93051484Y-91996603D01*
X93066463Y-92002218D01*
X93144107Y-92007988D01*
X93153397Y-92009027D01*
X93169933Y-92011499D01*
X93169949Y-92011500D01*
X93186672Y-92011500D01*
X93196010Y-92011846D01*
X93265996Y-92017047D01*
X93278976Y-92014276D01*
X93305281Y-92011500D01*
X93329769Y-92011500D01*
X93397890Y-92031502D01*
X93444383Y-92085158D01*
X93454487Y-92155432D01*
X93424993Y-92220012D01*
X93378596Y-92253655D01*
X93297419Y-92287779D01*
X93092431Y-92416867D01*
X92911271Y-92577708D01*
X92807547Y-92705797D01*
X92749133Y-92746149D01*
X92678176Y-92748515D01*
X92609799Y-92703382D01*
X92533357Y-92604121D01*
X92533356Y-92604119D01*
X92356184Y-92438904D01*
X92154410Y-92304845D01*
X92154408Y-92304844D01*
X91933452Y-92205543D01*
X91933454Y-92205543D01*
X91699239Y-92143661D01*
X91458055Y-92120862D01*
X91216404Y-92137761D01*
X91216395Y-92137762D01*
X90980739Y-92193904D01*
X90757419Y-92287779D01*
X90552431Y-92416867D01*
X90371271Y-92577708D01*
X90267547Y-92705797D01*
X90209133Y-92746149D01*
X90138176Y-92748515D01*
X90069799Y-92703382D01*
X89993357Y-92604121D01*
X89993356Y-92604119D01*
X89816184Y-92438904D01*
X89614410Y-92304845D01*
X89614408Y-92304844D01*
X89393452Y-92205543D01*
X89393454Y-92205543D01*
X89159239Y-92143661D01*
X89154000Y-92143165D01*
X89154000Y-95051202D01*
X89154001Y-95051202D01*
X89324786Y-95014900D01*
X89324793Y-95014898D01*
X89550340Y-94926506D01*
X89550348Y-94926502D01*
X89758420Y-94802467D01*
X89758426Y-94802462D01*
X89943449Y-94646106D01*
X89943452Y-94646102D01*
X90075106Y-94491410D01*
X90134489Y-94452497D01*
X90205483Y-94451866D01*
X90272737Y-94498657D01*
X90322661Y-94566870D01*
X90495736Y-94736356D01*
X90495749Y-94736367D01*
X90694184Y-94875314D01*
X90912651Y-94979985D01*
X91145279Y-95047570D01*
X91385836Y-95076255D01*
X91627828Y-95065267D01*
X91627842Y-95065265D01*
X91864786Y-95014900D01*
X91864793Y-95014898D01*
X92090340Y-94926506D01*
X92090348Y-94926502D01*
X92298420Y-94802467D01*
X92298426Y-94802462D01*
X92483449Y-94646106D01*
X92483452Y-94646102D01*
X92615106Y-94491410D01*
X92674489Y-94452497D01*
X92745483Y-94451866D01*
X92812737Y-94498657D01*
X92862661Y-94566870D01*
X93035736Y-94736356D01*
X93035749Y-94736367D01*
X93234184Y-94875314D01*
X93452651Y-94979985D01*
X93685279Y-95047570D01*
X93925836Y-95076255D01*
X94167828Y-95065267D01*
X94167842Y-95065265D01*
X94404786Y-95014900D01*
X94404793Y-95014898D01*
X94630340Y-94926506D01*
X94630348Y-94926502D01*
X94838420Y-94802467D01*
X94838426Y-94802462D01*
X94902346Y-94748446D01*
X94967287Y-94719754D01*
X95037431Y-94730727D01*
X95090507Y-94777880D01*
X95105381Y-94812074D01*
X95108073Y-94822120D01*
X95223226Y-94959354D01*
X95378374Y-95048929D01*
X95554801Y-95080037D01*
X96266000Y-95080037D01*
X96266000Y-93471000D01*
X96286002Y-93402879D01*
X96339658Y-93356386D01*
X96392000Y-93345000D01*
X96648000Y-93345000D01*
X96716121Y-93365002D01*
X96762614Y-93418658D01*
X96774000Y-93471000D01*
X96774000Y-95080037D01*
X97264163Y-95080037D01*
X97332284Y-95100039D01*
X97378777Y-95153695D01*
X97390163Y-95206037D01*
X97390163Y-95514998D01*
X97459273Y-95772920D01*
X97574426Y-95910154D01*
X97729574Y-95999729D01*
X97906001Y-96030837D01*
X99705998Y-96030837D01*
X99963920Y-95961727D01*
X100101154Y-95846574D01*
X100195102Y-95683850D01*
X100246484Y-95634857D01*
X100316198Y-95621421D01*
X100396221Y-95660757D01*
X100399539Y-95664302D01*
X100399544Y-95664307D01*
X100589868Y-95808770D01*
X100589870Y-95808772D01*
X100801817Y-95919105D01*
X101029321Y-95992148D01*
X101265888Y-96025817D01*
X101384883Y-96022494D01*
X101453535Y-96040587D01*
X101501508Y-96092924D01*
X101514400Y-96148445D01*
X101514399Y-97211784D01*
X101513321Y-97228230D01*
X101507387Y-97273305D01*
X101507387Y-97273307D01*
X101513860Y-97322477D01*
X101513861Y-97322485D01*
X101535320Y-97485486D01*
X101572575Y-97575428D01*
X101617222Y-97683214D01*
X101647400Y-97722542D01*
X101747506Y-97853002D01*
X101783589Y-97880690D01*
X101795978Y-97891556D01*
X103144570Y-99240148D01*
X103178596Y-99302460D01*
X103173531Y-99373275D01*
X103122618Y-99435863D01*
X102974931Y-99528867D01*
X102793771Y-99689708D01*
X102690047Y-99817797D01*
X102631633Y-99858149D01*
X102560676Y-99860515D01*
X102492299Y-99815382D01*
X102415857Y-99716121D01*
X102415856Y-99716119D01*
X102238684Y-99550904D01*
X102036910Y-99416845D01*
X102036908Y-99416844D01*
X101815952Y-99317543D01*
X101815954Y-99317543D01*
X101581739Y-99255661D01*
X101340555Y-99232862D01*
X101098904Y-99249761D01*
X101098895Y-99249762D01*
X100863239Y-99305904D01*
X100639919Y-99399779D01*
X100434931Y-99528867D01*
X100253771Y-99689708D01*
X100150047Y-99817797D01*
X100091633Y-99858149D01*
X100020676Y-99860515D01*
X99952299Y-99815382D01*
X99875857Y-99716121D01*
X99875856Y-99716119D01*
X99698684Y-99550904D01*
X99496910Y-99416845D01*
X99496908Y-99416844D01*
X99275952Y-99317543D01*
X99275954Y-99317543D01*
X99041739Y-99255661D01*
X99036500Y-99255165D01*
X99036500Y-100839000D01*
X99016498Y-100907121D01*
X98962842Y-100953614D01*
X98910500Y-100965000D01*
X98654500Y-100965000D01*
X98586379Y-100944998D01*
X98539886Y-100891342D01*
X98528500Y-100839000D01*
X98528500Y-99257003D01*
X98323239Y-99305904D01*
X98099919Y-99399779D01*
X97894931Y-99528867D01*
X97894925Y-99528872D01*
X97862077Y-99558035D01*
X97797856Y-99588304D01*
X97727465Y-99579048D01*
X97673253Y-99533205D01*
X97656716Y-99496423D01*
X97654427Y-99487881D01*
X97539274Y-99350646D01*
X97384126Y-99261071D01*
X97207699Y-99229963D01*
X95277302Y-99229963D01*
X95019381Y-99299073D01*
X94882146Y-99414226D01*
X94792571Y-99569374D01*
X94761463Y-99745801D01*
X94761463Y-101601000D01*
X94741461Y-101669121D01*
X94687805Y-101715614D01*
X94635463Y-101727000D01*
X85216000Y-101727000D01*
X85147879Y-101706998D01*
X85101386Y-101653342D01*
X85090000Y-101601000D01*
X85090000Y-99904791D01*
X85110002Y-99836670D01*
X85163658Y-99790177D01*
X85233932Y-99780073D01*
X85298512Y-99809567D01*
X85334401Y-99861696D01*
X85337020Y-99868892D01*
X85337024Y-99868901D01*
X85451455Y-100067101D01*
X85451457Y-100067104D01*
X85598572Y-100242428D01*
X85773896Y-100389543D01*
X85773899Y-100389545D01*
X85972099Y-100503976D01*
X85972108Y-100503980D01*
X86187167Y-100582255D01*
X86412567Y-100622000D01*
X86641433Y-100622000D01*
X86866833Y-100582255D01*
X87081892Y-100503980D01*
X87081901Y-100503976D01*
X87280101Y-100389545D01*
X87280104Y-100389543D01*
X87455427Y-100242428D01*
X87519765Y-100165754D01*
X87578875Y-100126427D01*
X87649863Y-100125301D01*
X87710190Y-100162732D01*
X87737994Y-100214134D01*
X87780273Y-100371920D01*
X87895426Y-100509154D01*
X88050574Y-100598729D01*
X88227001Y-100629837D01*
X89826998Y-100629837D01*
X90084920Y-100560727D01*
X90222154Y-100445574D01*
X90311729Y-100290426D01*
X90311728Y-100290426D01*
X90342837Y-100113999D01*
X90342837Y-98514000D01*
X90273727Y-98256081D01*
X90158574Y-98118846D01*
X90003426Y-98029271D01*
X89826999Y-97998163D01*
X88227002Y-97998163D01*
X87969081Y-98067273D01*
X87831846Y-98182426D01*
X87742272Y-98337573D01*
X87732389Y-98393620D01*
X87700861Y-98457232D01*
X87639947Y-98493702D01*
X87568986Y-98491449D01*
X87511781Y-98452731D01*
X87455427Y-98385572D01*
X87280104Y-98238457D01*
X87280101Y-98238455D01*
X87081901Y-98124024D01*
X87081892Y-98124020D01*
X86866833Y-98045745D01*
X86641433Y-98006000D01*
X86412567Y-98006000D01*
X86187167Y-98045745D01*
X85972108Y-98124020D01*
X85972099Y-98124024D01*
X85773899Y-98238455D01*
X85773896Y-98238457D01*
X85598572Y-98385572D01*
X85451457Y-98560896D01*
X85451455Y-98560899D01*
X85337024Y-98759099D01*
X85337020Y-98759108D01*
X85334401Y-98766304D01*
X85292306Y-98823475D01*
X85225985Y-98848813D01*
X85156493Y-98834272D01*
X85105895Y-98784469D01*
X85090000Y-98723209D01*
X85090000Y-96395047D01*
X85110002Y-96326926D01*
X85163658Y-96280433D01*
X85233932Y-96270329D01*
X85299360Y-96303081D01*
X85300358Y-96301892D01*
X85479896Y-96452543D01*
X85479899Y-96452545D01*
X85678099Y-96566976D01*
X85678108Y-96566980D01*
X85893167Y-96645255D01*
X86118567Y-96685000D01*
X86347433Y-96685000D01*
X86572833Y-96645255D01*
X86787892Y-96566980D01*
X86787901Y-96566976D01*
X86986101Y-96452545D01*
X86986104Y-96452543D01*
X87161428Y-96305428D01*
X87308543Y-96130104D01*
X87308545Y-96130101D01*
X87422976Y-95931901D01*
X87422980Y-95931892D01*
X87501255Y-95716833D01*
X87541000Y-95491433D01*
X87541000Y-95262567D01*
X87501255Y-95037167D01*
X87422980Y-94822108D01*
X87422976Y-94822099D01*
X87308545Y-94623899D01*
X87308543Y-94623896D01*
X87161428Y-94448572D01*
X86986104Y-94301457D01*
X86986101Y-94301455D01*
X86787901Y-94187024D01*
X86787892Y-94187020D01*
X86572833Y-94108745D01*
X86347433Y-94069000D01*
X86118567Y-94069000D01*
X85893167Y-94108745D01*
X85678108Y-94187020D01*
X85678099Y-94187024D01*
X85479899Y-94301455D01*
X85479896Y-94301457D01*
X85300358Y-94452108D01*
X85299510Y-94451098D01*
X85242783Y-94482074D01*
X85171968Y-94477009D01*
X85115132Y-94434462D01*
X85090000Y-94358953D01*
X85090000Y-93853000D01*
X87447941Y-93853000D01*
X87457919Y-93923994D01*
X87530359Y-94155147D01*
X87530360Y-94155149D01*
X87639590Y-94371388D01*
X87782661Y-94566870D01*
X87955736Y-94736356D01*
X87955749Y-94736367D01*
X88154184Y-94875314D01*
X88372651Y-94979985D01*
X88605279Y-95047570D01*
X88646000Y-95052427D01*
X88646000Y-93853000D01*
X87447941Y-93853000D01*
X85090000Y-93853000D01*
X85090000Y-93345000D01*
X87448609Y-93345000D01*
X88646000Y-93345000D01*
X88646000Y-92145003D01*
X88440739Y-92193904D01*
X88217419Y-92287779D01*
X88012431Y-92416867D01*
X87831271Y-92577708D01*
X87678827Y-92765961D01*
X87678823Y-92765968D01*
X87559162Y-92976608D01*
X87475516Y-93203950D01*
X87475515Y-93203954D01*
X87448609Y-93345000D01*
X85090000Y-93345000D01*
X85090000Y-88775047D01*
X85110002Y-88706926D01*
X85163658Y-88660433D01*
X85233932Y-88650329D01*
X85299360Y-88683081D01*
X85300358Y-88681892D01*
X85479896Y-88832543D01*
X85479899Y-88832545D01*
X85678099Y-88946976D01*
X85678108Y-88946980D01*
X85893166Y-89025255D01*
X85979000Y-89040391D01*
X85979000Y-89040390D01*
X86486999Y-89040390D01*
X86572833Y-89025255D01*
X86572834Y-89025255D01*
X86787892Y-88946980D01*
X86787901Y-88946976D01*
X86986101Y-88832545D01*
X86986104Y-88832543D01*
X87161428Y-88685428D01*
X87308543Y-88510104D01*
X87308545Y-88510101D01*
X87422976Y-88311901D01*
X87422980Y-88311892D01*
X87501255Y-88096834D01*
X87516391Y-88011000D01*
X86487000Y-88010999D01*
X86486999Y-89040390D01*
X85979000Y-89040390D01*
X85979001Y-87958809D01*
X85979000Y-87958807D01*
X85979000Y-87503000D01*
X86486999Y-87503000D01*
X87516390Y-87503001D01*
X87501255Y-87417167D01*
X87501255Y-87417166D01*
X87422980Y-87202108D01*
X87422976Y-87202099D01*
X87308545Y-87003899D01*
X87308543Y-87003896D01*
X87161428Y-86828572D01*
X86986104Y-86681457D01*
X86986101Y-86681455D01*
X86787901Y-86567024D01*
X86787892Y-86567020D01*
X86572834Y-86488745D01*
X86487000Y-86473609D01*
X86486999Y-87503000D01*
X85979000Y-87503000D01*
X85979001Y-86473610D01*
X85893166Y-86488745D01*
X85678108Y-86567020D01*
X85678099Y-86567024D01*
X85479899Y-86681455D01*
X85479896Y-86681457D01*
X85300358Y-86832108D01*
X85299510Y-86831098D01*
X85242783Y-86862074D01*
X85171968Y-86857009D01*
X85115132Y-86814462D01*
X85090000Y-86738953D01*
X85090000Y-83982641D01*
X85110002Y-83914520D01*
X85163658Y-83868027D01*
X85233932Y-83857923D01*
X85273203Y-83870374D01*
X85432149Y-83951361D01*
X85676600Y-84030789D01*
X85930482Y-84070999D01*
X86187518Y-84070999D01*
X86441401Y-84030789D01*
X86441399Y-84030789D01*
X86685851Y-83951361D01*
X86914881Y-83834664D01*
X87122831Y-83683580D01*
X87304580Y-83501831D01*
X87455664Y-83293881D01*
X87572361Y-83064851D01*
X87651788Y-82820401D01*
X87687873Y-82592571D01*
X87718285Y-82528418D01*
X87778554Y-82490891D01*
X87849543Y-82491905D01*
G37*
%TD.AperFunction*%
%TA.AperFunction,Conductor*%
G36*
X112625713Y-91122534D02*
G01*
X112661602Y-91174663D01*
X112729020Y-91359892D01*
X112729024Y-91359901D01*
X112843455Y-91558101D01*
X112843457Y-91558104D01*
X112990572Y-91733428D01*
X113165896Y-91880543D01*
X113165899Y-91880545D01*
X113313705Y-91965881D01*
X113362698Y-92017263D01*
X113376134Y-92086977D01*
X113349748Y-92152888D01*
X113313705Y-92184119D01*
X113165899Y-92269455D01*
X113165896Y-92269457D01*
X112990572Y-92416572D01*
X112843457Y-92591896D01*
X112843455Y-92591899D01*
X112729024Y-92790099D01*
X112729020Y-92790108D01*
X112650745Y-93005167D01*
X112611000Y-93230567D01*
X112611000Y-93459433D01*
X112650745Y-93684833D01*
X112729020Y-93899892D01*
X112729024Y-93899901D01*
X112843455Y-94098101D01*
X112843457Y-94098104D01*
X112990572Y-94273428D01*
X113165896Y-94420543D01*
X113165899Y-94420545D01*
X113364099Y-94534976D01*
X113364108Y-94534980D01*
X113579167Y-94613255D01*
X113804567Y-94653000D01*
X114033433Y-94653000D01*
X114258833Y-94613255D01*
X114473892Y-94534980D01*
X114473901Y-94534976D01*
X114672101Y-94420545D01*
X114672104Y-94420543D01*
X114728009Y-94373633D01*
X114793050Y-94345168D01*
X114863155Y-94356385D01*
X114916066Y-94403723D01*
X114935001Y-94470154D01*
X114935001Y-99839846D01*
X114914999Y-99907967D01*
X114861343Y-99954460D01*
X114791069Y-99964564D01*
X114728009Y-99936367D01*
X114672104Y-99889457D01*
X114672101Y-99889455D01*
X114473901Y-99775024D01*
X114473892Y-99775020D01*
X114258833Y-99696745D01*
X114033433Y-99657000D01*
X113812664Y-99657000D01*
X113723569Y-99620096D01*
X112813244Y-98709773D01*
X112802376Y-98697380D01*
X112774694Y-98661303D01*
X112604912Y-98531025D01*
X112604903Y-98531020D01*
X112407181Y-98449120D01*
X112244191Y-98427662D01*
X112244169Y-98427660D01*
X112195000Y-98421187D01*
X112194999Y-98421187D01*
X112149925Y-98427121D01*
X112133479Y-98428199D01*
X108846520Y-98428199D01*
X108830074Y-98427121D01*
X108785000Y-98421187D01*
X108784998Y-98421187D01*
X108735828Y-98427660D01*
X108735820Y-98427661D01*
X108572819Y-98449120D01*
X108416185Y-98514000D01*
X108375097Y-98531020D01*
X108375086Y-98531026D01*
X108247928Y-98628598D01*
X108205307Y-98661302D01*
X108177625Y-98697378D01*
X108166759Y-98709768D01*
X107683470Y-99193058D01*
X107594374Y-99229963D01*
X107035626Y-99229963D01*
X106946531Y-99193059D01*
X106463244Y-98709773D01*
X106452376Y-98697380D01*
X106424694Y-98661303D01*
X106254912Y-98531025D01*
X106254903Y-98531020D01*
X106057181Y-98449120D01*
X105894191Y-98427662D01*
X105894169Y-98427660D01*
X105845000Y-98421187D01*
X105844999Y-98421187D01*
X105799925Y-98427121D01*
X105783479Y-98428199D01*
X104683757Y-98428199D01*
X104594662Y-98391295D01*
X104210098Y-98006732D01*
X104176073Y-97944419D01*
X104181137Y-97873604D01*
X104236193Y-97808517D01*
X104385101Y-97722545D01*
X104385104Y-97722543D01*
X104560428Y-97575428D01*
X104707543Y-97400104D01*
X104707545Y-97400101D01*
X104821976Y-97201901D01*
X104821980Y-97201892D01*
X104900255Y-96986833D01*
X104915390Y-96901000D01*
X109968609Y-96901000D01*
X109983745Y-96986834D01*
X110062020Y-97201892D01*
X110062024Y-97201901D01*
X110176455Y-97400101D01*
X110176457Y-97400104D01*
X110323572Y-97575428D01*
X110498896Y-97722543D01*
X110498899Y-97722545D01*
X110697099Y-97836976D01*
X110697108Y-97836980D01*
X110912166Y-97915255D01*
X110998000Y-97930391D01*
X110998000Y-96901000D01*
X111506000Y-96901000D01*
X111506000Y-97930391D01*
X111591834Y-97915255D01*
X111806892Y-97836980D01*
X111806901Y-97836976D01*
X112005101Y-97722545D01*
X112005104Y-97722543D01*
X112180428Y-97575428D01*
X112327543Y-97400104D01*
X112327545Y-97400101D01*
X112441976Y-97201901D01*
X112441980Y-97201892D01*
X112520255Y-96986834D01*
X112535391Y-96901000D01*
X111506000Y-96901000D01*
X110998000Y-96901000D01*
X109968609Y-96901000D01*
X104915390Y-96901000D01*
X104940000Y-96761433D01*
X104940000Y-96532566D01*
X104920551Y-96422260D01*
X104923814Y-96393000D01*
X109968609Y-96393000D01*
X110998000Y-96393000D01*
X111506000Y-96393000D01*
X112535391Y-96393000D01*
X112520255Y-96307166D01*
X112441980Y-96092108D01*
X112441976Y-96092099D01*
X112327545Y-95893899D01*
X112327543Y-95893896D01*
X112180428Y-95718572D01*
X112005104Y-95571457D01*
X112005101Y-95571455D01*
X111806901Y-95457024D01*
X111806892Y-95457020D01*
X111591834Y-95378745D01*
X111506000Y-95363609D01*
X111506000Y-96393000D01*
X110998000Y-96393000D01*
X110998000Y-95363609D01*
X110912166Y-95378745D01*
X110697108Y-95457020D01*
X110697099Y-95457024D01*
X110498899Y-95571455D01*
X110498896Y-95571457D01*
X110323572Y-95718572D01*
X110176457Y-95893896D01*
X110176455Y-95893899D01*
X110062024Y-96092099D01*
X110062020Y-96092108D01*
X109983745Y-96307166D01*
X109968609Y-96393000D01*
X104923814Y-96393000D01*
X104928421Y-96351701D01*
X104955542Y-96311286D01*
X105789423Y-95477405D01*
X105878518Y-95440500D01*
X109608693Y-95440500D01*
X109636500Y-95443607D01*
X109644463Y-95445409D01*
X109644466Y-95445409D01*
X109719690Y-95440742D01*
X109727492Y-95440500D01*
X109751207Y-95440500D01*
X109767302Y-95438194D01*
X109777369Y-95437163D01*
X109844164Y-95433020D01*
X109844161Y-95433020D01*
X109858795Y-95427737D01*
X109883719Y-95421523D01*
X109899114Y-95419318D01*
X109899120Y-95419316D01*
X109960052Y-95391613D01*
X109969417Y-95387800D01*
X110032357Y-95365078D01*
X110043896Y-95356540D01*
X110066689Y-95343128D01*
X110081257Y-95336504D01*
X110081263Y-95336500D01*
X110140259Y-95285665D01*
X110147562Y-95279830D01*
X110160989Y-95269895D01*
X110160997Y-95269888D01*
X110172802Y-95258083D01*
X110179650Y-95251725D01*
X110232832Y-95205901D01*
X110232833Y-95205900D01*
X110240060Y-95194750D01*
X110256697Y-95174188D01*
X112147298Y-93283588D01*
X112169158Y-93266121D01*
X112176068Y-93261761D01*
X112176071Y-93261759D01*
X112225973Y-93205255D01*
X112231321Y-93199564D01*
X112248070Y-93182816D01*
X112248074Y-93182811D01*
X112257825Y-93169801D01*
X112264209Y-93161960D01*
X112308516Y-93111792D01*
X112315129Y-93097707D01*
X112328354Y-93075696D01*
X112337684Y-93063246D01*
X112337687Y-93063241D01*
X112361173Y-93000590D01*
X112365100Y-92991269D01*
X112393549Y-92930676D01*
X112393549Y-92930675D01*
X112395671Y-92916476D01*
X112402304Y-92890873D01*
X112407919Y-92875894D01*
X112413689Y-92798250D01*
X112414728Y-92788960D01*
X112417200Y-92772424D01*
X112417201Y-92772408D01*
X112417201Y-92755685D01*
X112417547Y-92746347D01*
X112422748Y-92676361D01*
X112419977Y-92663381D01*
X112417201Y-92637076D01*
X112417201Y-91217758D01*
X112437203Y-91149637D01*
X112490859Y-91103144D01*
X112561133Y-91093040D01*
X112625713Y-91122534D01*
G37*
%TD.AperFunction*%
%TA.AperFunction,Conductor*%
G36*
X108382855Y-68579718D02*
G01*
X108450966Y-68599753D01*
X108507035Y-68684736D01*
X108582875Y-69133815D01*
X108584054Y-69137501D01*
X108589497Y-69164172D01*
X108589858Y-69168034D01*
X108591336Y-69174034D01*
X108709240Y-69640476D01*
X108709244Y-69640489D01*
X108710712Y-69644061D01*
X108718275Y-69670199D01*
X108718946Y-69674031D01*
X108720899Y-69679886D01*
X108875831Y-70135370D01*
X108877589Y-70138830D01*
X108887220Y-70164269D01*
X108888197Y-70168038D01*
X108890576Y-70173629D01*
X108890664Y-70173834D01*
X109081573Y-70615305D01*
X109081577Y-70615313D01*
X109083605Y-70618618D01*
X109095248Y-70643212D01*
X109096520Y-70646879D01*
X109099322Y-70652228D01*
X109099342Y-70652267D01*
X109325147Y-71077200D01*
X109325152Y-71077209D01*
X109327431Y-71080329D01*
X109341016Y-71103920D01*
X109342575Y-71107466D01*
X109342581Y-71107477D01*
X109345737Y-71112482D01*
X109345942Y-71112804D01*
X109604975Y-71518068D01*
X109607510Y-71521011D01*
X109622938Y-71543431D01*
X109624776Y-71546840D01*
X109624780Y-71546845D01*
X109628413Y-71551696D01*
X109628569Y-71551903D01*
X109919265Y-71935080D01*
X109919273Y-71935089D01*
X109922028Y-71937812D01*
X109939201Y-71958917D01*
X109941308Y-71962169D01*
X109941315Y-71962179D01*
X109945385Y-71966790D01*
X110265990Y-72325547D01*
X110268950Y-72328036D01*
X110287768Y-72347704D01*
X110290126Y-72350773D01*
X110290127Y-72350774D01*
X110294702Y-72355186D01*
X110642903Y-72686940D01*
X110646069Y-72689195D01*
X110666393Y-72707280D01*
X110668999Y-72710161D01*
X110673868Y-72714154D01*
X110673995Y-72714258D01*
X111047584Y-73016941D01*
X111047588Y-73016944D01*
X111050918Y-73018934D01*
X111072640Y-73035341D01*
X111075461Y-73037996D01*
X111080660Y-73041604D01*
X111477438Y-73313429D01*
X111480911Y-73315143D01*
X111503882Y-73329757D01*
X111506910Y-73332180D01*
X111512208Y-73335258D01*
X111929685Y-73574488D01*
X111933286Y-73575919D01*
X111957343Y-73588637D01*
X111960561Y-73590813D01*
X111966268Y-73593542D01*
X112401398Y-73798432D01*
X112401402Y-73798434D01*
X112405108Y-73799571D01*
X112430112Y-73810321D01*
X112433489Y-73812229D01*
X112439327Y-73814465D01*
X112439373Y-73814483D01*
X112889563Y-73983827D01*
X112893340Y-73984662D01*
X112919141Y-73993377D01*
X112922653Y-73995005D01*
X112922656Y-73995006D01*
X112928505Y-73996723D01*
X112928870Y-73996829D01*
X113391017Y-74129472D01*
X113391026Y-74129474D01*
X113394858Y-74130003D01*
X113421266Y-74136618D01*
X113424906Y-74137962D01*
X113424911Y-74137963D01*
X113430954Y-74139221D01*
X113431151Y-74139262D01*
X113902551Y-74234435D01*
X113906420Y-74234656D01*
X113933262Y-74239130D01*
X113937004Y-74240179D01*
X113937009Y-74240180D01*
X113943045Y-74240939D01*
X113943254Y-74240965D01*
X114420842Y-74298035D01*
X114424718Y-74297944D01*
X114451843Y-74300253D01*
X114455642Y-74300996D01*
X114455651Y-74300997D01*
X114461895Y-74301277D01*
X114461963Y-74301279D01*
X114813868Y-74314886D01*
X114881165Y-74337505D01*
X114925550Y-74392917D01*
X114935000Y-74440792D01*
X114935000Y-80968504D01*
X114914998Y-81036625D01*
X114861342Y-81083118D01*
X114791068Y-81093222D01*
X114734939Y-81070440D01*
X114694881Y-81041336D01*
X114465851Y-80924639D01*
X114221400Y-80845211D01*
X113967518Y-80805001D01*
X113710482Y-80805001D01*
X113456599Y-80845211D01*
X113456601Y-80845211D01*
X113212149Y-80924639D01*
X112983119Y-81041336D01*
X112775169Y-81192420D01*
X112593420Y-81374169D01*
X112442336Y-81582119D01*
X112325639Y-81811149D01*
X112246211Y-82055600D01*
X112206001Y-82309482D01*
X112206001Y-82566518D01*
X112246211Y-82820400D01*
X112325639Y-83064851D01*
X112442336Y-83293881D01*
X112593420Y-83501831D01*
X112775169Y-83683580D01*
X112983119Y-83834664D01*
X113212149Y-83951361D01*
X113456600Y-84030789D01*
X113710482Y-84070999D01*
X113967518Y-84070999D01*
X114221401Y-84030789D01*
X114221399Y-84030789D01*
X114465851Y-83951361D01*
X114694881Y-83834664D01*
X114734939Y-83805560D01*
X114801806Y-83781702D01*
X114870958Y-83797782D01*
X114920438Y-83848696D01*
X114935000Y-83907496D01*
X114935000Y-84679845D01*
X114914998Y-84747966D01*
X114861342Y-84794459D01*
X114791068Y-84804563D01*
X114728009Y-84776366D01*
X114672110Y-84729461D01*
X114672101Y-84729455D01*
X114473901Y-84615024D01*
X114473892Y-84615020D01*
X114258833Y-84536745D01*
X114033433Y-84497000D01*
X113804567Y-84497000D01*
X113579167Y-84536745D01*
X113364108Y-84615020D01*
X113364099Y-84615024D01*
X113165899Y-84729455D01*
X113165896Y-84729457D01*
X112990572Y-84876572D01*
X112843457Y-85051896D01*
X112843455Y-85051899D01*
X112729024Y-85250099D01*
X112729020Y-85250108D01*
X112650745Y-85465167D01*
X112611000Y-85690567D01*
X112611000Y-85919433D01*
X112650745Y-86144833D01*
X112729020Y-86359892D01*
X112729024Y-86359901D01*
X112843455Y-86558101D01*
X112843457Y-86558104D01*
X112990572Y-86733428D01*
X113165896Y-86880543D01*
X113165899Y-86880545D01*
X113364099Y-86994976D01*
X113364108Y-86994980D01*
X113579167Y-87073255D01*
X113804567Y-87113000D01*
X114033433Y-87113000D01*
X114258833Y-87073255D01*
X114473892Y-86994980D01*
X114473901Y-86994976D01*
X114672101Y-86880545D01*
X114672110Y-86880539D01*
X114728009Y-86833634D01*
X114793049Y-86805169D01*
X114863154Y-86816386D01*
X114916065Y-86863724D01*
X114935000Y-86930155D01*
X114935001Y-89679846D01*
X114914999Y-89747967D01*
X114861343Y-89794460D01*
X114791069Y-89804564D01*
X114728009Y-89776367D01*
X114672104Y-89729457D01*
X114672101Y-89729455D01*
X114473901Y-89615024D01*
X114473892Y-89615020D01*
X114258833Y-89536745D01*
X114033433Y-89497000D01*
X113804567Y-89497000D01*
X113579167Y-89536745D01*
X113364108Y-89615020D01*
X113364099Y-89615024D01*
X113165899Y-89729455D01*
X113165896Y-89729457D01*
X112990572Y-89876572D01*
X112843457Y-90051896D01*
X112843455Y-90051899D01*
X112729024Y-90250099D01*
X112729020Y-90250108D01*
X112661602Y-90435337D01*
X112619508Y-90492508D01*
X112553186Y-90517846D01*
X112483695Y-90503305D01*
X112433096Y-90453503D01*
X112417201Y-90392242D01*
X112417201Y-87555885D01*
X112417203Y-87555116D01*
X112417853Y-87448527D01*
X112417853Y-87448525D01*
X112405809Y-87406385D01*
X112402230Y-87389620D01*
X112396017Y-87346236D01*
X112396018Y-87346236D01*
X112379974Y-87310951D01*
X112373525Y-87293423D01*
X112362872Y-87256149D01*
X112362870Y-87256143D01*
X112339481Y-87219075D01*
X112331341Y-87203989D01*
X112313204Y-87164099D01*
X112287903Y-87134735D01*
X112276794Y-87119722D01*
X112256106Y-87086933D01*
X112223252Y-87057918D01*
X112211206Y-87045724D01*
X112182598Y-87012523D01*
X112150075Y-86991443D01*
X112135199Y-86980152D01*
X112106137Y-86954486D01*
X112106132Y-86954483D01*
X112066460Y-86935857D01*
X112051474Y-86927533D01*
X112014702Y-86903698D01*
X112014701Y-86903697D01*
X111977558Y-86892589D01*
X111960112Y-86885927D01*
X111925021Y-86869452D01*
X111925019Y-86869451D01*
X111889998Y-86864218D01*
X111819525Y-86828697D01*
X111669905Y-86679077D01*
X111633000Y-86589982D01*
X111633000Y-84229865D01*
X111636107Y-84202058D01*
X111637909Y-84194095D01*
X111637909Y-84194092D01*
X111633242Y-84118867D01*
X111633000Y-84111065D01*
X111633000Y-84087354D01*
X111632999Y-84087340D01*
X111630695Y-84071258D01*
X111629663Y-84061190D01*
X111625520Y-83994397D01*
X111625520Y-83994396D01*
X111620236Y-83979760D01*
X111614023Y-83954838D01*
X111611818Y-83939443D01*
X111611817Y-83939440D01*
X111584115Y-83878512D01*
X111580302Y-83869144D01*
X111557581Y-83806204D01*
X111549042Y-83794665D01*
X111535625Y-83771864D01*
X111529004Y-83757300D01*
X111478172Y-83698307D01*
X111472337Y-83691003D01*
X111462402Y-83677575D01*
X111462392Y-83677564D01*
X111450577Y-83665749D01*
X111444219Y-83658901D01*
X111398401Y-83605726D01*
X111398400Y-83605725D01*
X111387256Y-83598502D01*
X111366694Y-83581866D01*
X111276299Y-83491472D01*
X111276295Y-83491467D01*
X110930106Y-83145279D01*
X110893201Y-83056183D01*
X110893201Y-78625567D01*
X111642000Y-78625567D01*
X111642000Y-78854433D01*
X111681745Y-79079833D01*
X111760020Y-79294892D01*
X111760024Y-79294901D01*
X111874455Y-79493101D01*
X111874457Y-79493104D01*
X112021572Y-79668428D01*
X112196896Y-79815543D01*
X112196899Y-79815545D01*
X112395099Y-79929976D01*
X112395108Y-79929980D01*
X112610167Y-80008255D01*
X112835567Y-80048000D01*
X113064433Y-80048000D01*
X113289833Y-80008255D01*
X113504892Y-79929980D01*
X113504901Y-79929976D01*
X113703101Y-79815545D01*
X113703104Y-79815543D01*
X113878428Y-79668428D01*
X114025543Y-79493104D01*
X114025545Y-79493101D01*
X114139976Y-79294901D01*
X114139980Y-79294892D01*
X114218255Y-79079833D01*
X114258000Y-78854433D01*
X114258000Y-78625567D01*
X114218255Y-78400167D01*
X114139980Y-78185108D01*
X114139976Y-78185099D01*
X114025545Y-77986899D01*
X114025543Y-77986896D01*
X113878428Y-77811572D01*
X113703104Y-77664457D01*
X113703101Y-77664455D01*
X113504901Y-77550024D01*
X113504892Y-77550020D01*
X113289833Y-77471745D01*
X113064433Y-77432000D01*
X112835567Y-77432000D01*
X112610167Y-77471745D01*
X112395108Y-77550020D01*
X112395099Y-77550024D01*
X112196899Y-77664455D01*
X112196896Y-77664457D01*
X112021572Y-77811572D01*
X111874457Y-77986896D01*
X111874455Y-77986899D01*
X111760024Y-78185099D01*
X111760020Y-78185108D01*
X111681745Y-78400167D01*
X111642000Y-78625567D01*
X110893201Y-78625567D01*
X110893201Y-76998874D01*
X110913203Y-76930753D01*
X110966859Y-76884260D01*
X111054353Y-76877877D01*
X111084273Y-76886569D01*
X111084277Y-76886570D01*
X111125000Y-76891427D01*
X111125000Y-76890201D01*
X111632999Y-76890201D01*
X111803795Y-76853897D01*
X112029340Y-76765506D01*
X112029348Y-76765502D01*
X112237420Y-76641467D01*
X112237426Y-76641462D01*
X112422449Y-76485106D01*
X112422453Y-76485102D01*
X112579461Y-76300618D01*
X112579466Y-76300611D01*
X112704226Y-76092974D01*
X112704229Y-76092968D01*
X112793411Y-75867721D01*
X112831402Y-75692000D01*
X111633000Y-75691999D01*
X111632999Y-76890201D01*
X111125000Y-76890201D01*
X111125001Y-75639809D01*
X111125000Y-75639807D01*
X111125000Y-75184000D01*
X111632999Y-75184000D01*
X112830280Y-75184001D01*
X112812713Y-75077883D01*
X112734639Y-74848545D01*
X112734637Y-74848540D01*
X112620172Y-74635063D01*
X112620163Y-74635049D01*
X112472357Y-74443121D01*
X112472356Y-74443119D01*
X112295184Y-74277904D01*
X112093410Y-74143845D01*
X112093408Y-74143844D01*
X111872452Y-74044543D01*
X111872454Y-74044543D01*
X111638239Y-73982661D01*
X111633000Y-73982165D01*
X111633000Y-73982166D01*
X111632999Y-75184000D01*
X111125000Y-75184000D01*
X111125001Y-73984003D01*
X110919739Y-74032904D01*
X110696419Y-74126779D01*
X110491431Y-74255867D01*
X110310271Y-74416708D01*
X110206547Y-74544797D01*
X110148133Y-74585149D01*
X110077176Y-74587515D01*
X110008799Y-74542382D01*
X109932357Y-74443121D01*
X109932356Y-74443119D01*
X109755184Y-74277904D01*
X109553410Y-74143845D01*
X109553408Y-74143844D01*
X109332452Y-74044543D01*
X109332454Y-74044543D01*
X109098239Y-73982661D01*
X108857055Y-73959862D01*
X108615404Y-73976761D01*
X108615395Y-73976762D01*
X108379739Y-74032904D01*
X108156419Y-74126779D01*
X107951431Y-74255867D01*
X107951425Y-74255872D01*
X107918577Y-74285035D01*
X107854356Y-74315304D01*
X107783965Y-74306048D01*
X107729753Y-74260205D01*
X107713216Y-74223423D01*
X107710927Y-74214881D01*
X107595774Y-74077646D01*
X107440626Y-73988071D01*
X107264199Y-73956963D01*
X105333802Y-73956963D01*
X105075881Y-74026073D01*
X104938646Y-74141226D01*
X104849071Y-74296374D01*
X104817963Y-74472801D01*
X104817963Y-76403198D01*
X104887073Y-76661120D01*
X105002226Y-76798354D01*
X105157374Y-76887929D01*
X105333801Y-76919037D01*
X107264198Y-76919037D01*
X107522120Y-76849927D01*
X107659354Y-76734774D01*
X107723906Y-76622966D01*
X107775288Y-76573973D01*
X107845002Y-76560537D01*
X107905296Y-76582753D01*
X108093184Y-76714314D01*
X108311651Y-76818985D01*
X108544279Y-76886570D01*
X108784836Y-76915255D01*
X109026828Y-76904267D01*
X109026830Y-76904267D01*
X109199579Y-76867547D01*
X109270370Y-76872949D01*
X109314871Y-76901699D01*
X109459296Y-77046124D01*
X109496201Y-77135219D01*
X109496201Y-78536287D01*
X109476199Y-78604408D01*
X109422543Y-78650901D01*
X109352269Y-78661005D01*
X109287689Y-78631511D01*
X109246115Y-78558167D01*
X109218255Y-78400167D01*
X109139980Y-78185108D01*
X109139976Y-78185099D01*
X109025545Y-77986899D01*
X109025543Y-77986896D01*
X108878428Y-77811572D01*
X108703104Y-77664457D01*
X108703101Y-77664455D01*
X108504901Y-77550024D01*
X108504892Y-77550020D01*
X108289833Y-77471745D01*
X108064433Y-77432000D01*
X107835567Y-77432000D01*
X107610167Y-77471745D01*
X107395108Y-77550020D01*
X107395099Y-77550024D01*
X107196899Y-77664455D01*
X107196896Y-77664457D01*
X107021572Y-77811572D01*
X106874457Y-77986896D01*
X106874455Y-77986899D01*
X106760024Y-78185099D01*
X106760020Y-78185108D01*
X106681745Y-78400167D01*
X106642000Y-78625567D01*
X106642000Y-78854433D01*
X106681745Y-79079833D01*
X106760020Y-79294892D01*
X106760024Y-79294901D01*
X106874455Y-79493101D01*
X106874457Y-79493104D01*
X107021572Y-79668428D01*
X107196896Y-79815543D01*
X107196899Y-79815545D01*
X107395099Y-79929976D01*
X107395108Y-79929980D01*
X107610167Y-80008255D01*
X107835567Y-80048000D01*
X107997426Y-80048000D01*
X108065547Y-80068002D01*
X108112040Y-80121658D01*
X108122144Y-80191932D01*
X108092650Y-80256512D01*
X108064569Y-80280620D01*
X107951431Y-80351867D01*
X107770271Y-80512708D01*
X107617827Y-80700961D01*
X107617823Y-80700968D01*
X107498162Y-80911608D01*
X107414516Y-81138950D01*
X107414515Y-81138954D01*
X107369122Y-81376916D01*
X107363203Y-81619080D01*
X107363203Y-81619092D01*
X107396919Y-81858994D01*
X107469359Y-82090147D01*
X107469360Y-82090149D01*
X107578590Y-82306388D01*
X107721661Y-82501870D01*
X107894736Y-82671356D01*
X107894749Y-82671367D01*
X108093184Y-82810314D01*
X108311651Y-82914985D01*
X108544279Y-82982570D01*
X108784836Y-83011255D01*
X109026828Y-83000267D01*
X109026842Y-83000265D01*
X109263786Y-82949900D01*
X109263793Y-82949898D01*
X109324227Y-82926214D01*
X109394950Y-82919981D01*
X109457815Y-82952974D01*
X109496202Y-83043527D01*
X109496202Y-83305331D01*
X109493095Y-83333139D01*
X109491292Y-83341107D01*
X109491292Y-83341109D01*
X109495960Y-83416349D01*
X109496202Y-83424151D01*
X109496202Y-83447845D01*
X109496203Y-83447862D01*
X109498505Y-83463934D01*
X109499536Y-83473994D01*
X109503681Y-83540801D01*
X109503682Y-83540804D01*
X109508966Y-83555442D01*
X109515179Y-83580362D01*
X109517385Y-83595761D01*
X109545084Y-83656685D01*
X109548896Y-83666049D01*
X109571622Y-83728998D01*
X109571624Y-83729001D01*
X109580160Y-83740537D01*
X109593576Y-83763336D01*
X109600198Y-83777901D01*
X109651030Y-83836894D01*
X109656865Y-83844198D01*
X109666800Y-83857626D01*
X109666810Y-83857637D01*
X109678625Y-83869452D01*
X109684983Y-83876300D01*
X109730801Y-83929475D01*
X109730802Y-83929476D01*
X109741946Y-83936699D01*
X109762509Y-83953336D01*
X110199097Y-84389925D01*
X110236001Y-84479020D01*
X110236000Y-85643286D01*
X110215998Y-85711407D01*
X110162342Y-85757900D01*
X110092068Y-85768003D01*
X110010172Y-85720164D01*
X109932362Y-85619126D01*
X109932356Y-85619119D01*
X109755184Y-85453904D01*
X109553410Y-85319845D01*
X109553408Y-85319844D01*
X109332452Y-85220543D01*
X109332454Y-85220543D01*
X109098239Y-85158661D01*
X108857055Y-85135862D01*
X108615404Y-85152761D01*
X108615395Y-85152762D01*
X108379739Y-85208904D01*
X108156419Y-85302779D01*
X107951431Y-85431867D01*
X107770271Y-85592708D01*
X107617827Y-85780961D01*
X107617823Y-85780968D01*
X107498162Y-85991608D01*
X107414516Y-86218950D01*
X107414515Y-86218954D01*
X107369122Y-86456916D01*
X107363203Y-86699080D01*
X107363203Y-86699092D01*
X107396919Y-86938994D01*
X107469359Y-87170147D01*
X107469360Y-87170149D01*
X107578590Y-87386388D01*
X107721661Y-87581870D01*
X107894736Y-87751356D01*
X107894749Y-87751367D01*
X108093184Y-87890314D01*
X108311651Y-87994985D01*
X108544279Y-88062570D01*
X108784836Y-88091255D01*
X109026828Y-88080267D01*
X109026842Y-88080265D01*
X109263786Y-88029900D01*
X109263793Y-88029898D01*
X109489340Y-87941506D01*
X109489348Y-87941502D01*
X109697420Y-87817467D01*
X109697426Y-87817462D01*
X109882449Y-87661106D01*
X109882453Y-87661102D01*
X110039461Y-87476618D01*
X110039466Y-87476611D01*
X110131583Y-87323301D01*
X110183812Y-87275212D01*
X110253749Y-87262994D01*
X110335038Y-87305946D01*
X110390832Y-87370697D01*
X110396669Y-87378003D01*
X110406602Y-87391427D01*
X110406609Y-87391436D01*
X110418419Y-87403246D01*
X110424777Y-87410093D01*
X110470604Y-87463277D01*
X110481745Y-87470499D01*
X110502307Y-87487135D01*
X110983297Y-87968126D01*
X111020201Y-88057221D01*
X111020201Y-89451963D01*
X111000199Y-89520084D01*
X110946543Y-89566577D01*
X110894201Y-89577963D01*
X109397802Y-89577963D01*
X109139881Y-89647073D01*
X109002646Y-89762226D01*
X108938350Y-89873590D01*
X108886968Y-89922583D01*
X108817254Y-89936019D01*
X108743301Y-89902742D01*
X108739191Y-89898910D01*
X108739185Y-89898905D01*
X108537410Y-89764845D01*
X108537408Y-89764844D01*
X108316452Y-89665543D01*
X108316454Y-89665543D01*
X108082239Y-89603661D01*
X107841055Y-89580862D01*
X107599404Y-89597761D01*
X107599395Y-89597762D01*
X107363739Y-89653904D01*
X107140419Y-89747779D01*
X106935431Y-89876867D01*
X106754271Y-90037708D01*
X106650547Y-90165797D01*
X106592133Y-90206149D01*
X106521176Y-90208515D01*
X106452799Y-90163382D01*
X106376357Y-90064121D01*
X106376356Y-90064119D01*
X106199184Y-89898904D01*
X105997410Y-89764845D01*
X105997408Y-89764844D01*
X105776452Y-89665543D01*
X105776454Y-89665543D01*
X105542239Y-89603661D01*
X105301055Y-89580862D01*
X105059404Y-89597761D01*
X105059395Y-89597762D01*
X104823739Y-89653904D01*
X104600419Y-89747779D01*
X104395431Y-89876867D01*
X104214271Y-90037708D01*
X104110547Y-90165797D01*
X104052133Y-90206149D01*
X103981176Y-90208515D01*
X103912799Y-90163382D01*
X103836357Y-90064121D01*
X103836356Y-90064119D01*
X103659184Y-89898904D01*
X103457410Y-89764845D01*
X103457408Y-89764844D01*
X103316031Y-89701307D01*
X103262096Y-89655139D01*
X103241683Y-89587140D01*
X103278586Y-89497285D01*
X103309032Y-89466839D01*
X103321424Y-89455971D01*
X103357495Y-89428293D01*
X103407043Y-89363722D01*
X103487777Y-89258508D01*
X103531789Y-89152256D01*
X103569680Y-89060779D01*
X103591139Y-88897778D01*
X103591140Y-88897770D01*
X103597613Y-88848600D01*
X103597613Y-88848598D01*
X103591679Y-88803524D01*
X103590601Y-88787078D01*
X103590601Y-84196999D01*
X103610603Y-84128878D01*
X103664259Y-84082385D01*
X103716601Y-84070999D01*
X103967518Y-84070999D01*
X104221401Y-84030789D01*
X104221399Y-84030789D01*
X104465851Y-83951361D01*
X104644521Y-83860324D01*
X104714298Y-83847220D01*
X104780083Y-83873920D01*
X104820989Y-83931948D01*
X104827686Y-83975670D01*
X104823203Y-84159080D01*
X104823203Y-84159092D01*
X104856919Y-84398994D01*
X104929359Y-84630147D01*
X104929360Y-84630149D01*
X105038590Y-84846388D01*
X105181661Y-85041870D01*
X105354736Y-85211356D01*
X105354749Y-85211367D01*
X105553184Y-85350314D01*
X105771651Y-85454985D01*
X106004279Y-85522570D01*
X106244836Y-85551255D01*
X106486828Y-85540267D01*
X106486842Y-85540265D01*
X106723786Y-85489900D01*
X106723793Y-85489898D01*
X106949340Y-85401506D01*
X106949348Y-85401502D01*
X107157420Y-85277467D01*
X107157426Y-85277462D01*
X107342449Y-85121106D01*
X107342453Y-85121102D01*
X107499461Y-84936618D01*
X107499466Y-84936611D01*
X107624226Y-84728974D01*
X107624229Y-84728968D01*
X107713409Y-84503727D01*
X107764601Y-84266949D01*
X107764601Y-84266944D01*
X107772278Y-83952878D01*
X107772277Y-83952874D01*
X107732712Y-83713883D01*
X107732712Y-83713881D01*
X107654641Y-83484548D01*
X107654637Y-83484540D01*
X107540172Y-83271063D01*
X107540163Y-83271049D01*
X107392357Y-83079121D01*
X107392356Y-83079119D01*
X107215184Y-82913904D01*
X107013410Y-82779845D01*
X107013408Y-82779844D01*
X106792452Y-82680543D01*
X106792454Y-82680543D01*
X106558239Y-82618661D01*
X106317055Y-82595862D01*
X106075404Y-82612761D01*
X106075395Y-82612762D01*
X105839739Y-82668904D01*
X105637085Y-82754092D01*
X105566536Y-82762050D01*
X105502884Y-82730604D01*
X105466337Y-82669737D01*
X105463809Y-82618226D01*
X105471999Y-82566517D01*
X105471999Y-82309482D01*
X105431789Y-82055600D01*
X105352361Y-81811149D01*
X105235664Y-81582119D01*
X105084580Y-81374169D01*
X104902831Y-81192420D01*
X104694881Y-81041336D01*
X104465851Y-80924639D01*
X104221400Y-80845211D01*
X103967518Y-80805001D01*
X103710482Y-80805001D01*
X103456599Y-80845211D01*
X103456601Y-80845211D01*
X103212149Y-80924639D01*
X102983119Y-81041336D01*
X102775169Y-81192420D01*
X102593423Y-81374166D01*
X102593420Y-81374170D01*
X102567630Y-81409666D01*
X102511407Y-81453020D01*
X102440671Y-81459095D01*
X102377879Y-81425963D01*
X102339694Y-81335605D01*
X102339694Y-81087519D01*
X102340772Y-81071073D01*
X102346706Y-81025999D01*
X102346706Y-81025997D01*
X102340233Y-80976827D01*
X102340232Y-80976819D01*
X102318773Y-80813820D01*
X102244019Y-80633349D01*
X102236430Y-80562759D01*
X102268209Y-80499272D01*
X102297428Y-80476011D01*
X102456791Y-80384002D01*
X101456885Y-79384095D01*
X101422859Y-79321783D01*
X101424774Y-79295000D01*
X102086210Y-79295000D01*
X102816003Y-80024791D01*
X102916976Y-79849900D01*
X102916980Y-79849892D01*
X102995255Y-79634833D01*
X103035000Y-79409433D01*
X103035000Y-79180567D01*
X102995255Y-78955167D01*
X102916980Y-78740108D01*
X102916976Y-78740100D01*
X102816003Y-78565209D01*
X102086210Y-79295000D01*
X101424774Y-79295000D01*
X101427924Y-79250967D01*
X101456885Y-79205905D01*
X101727000Y-78935790D01*
X102456791Y-78205998D01*
X102281900Y-78105024D01*
X102281892Y-78105020D01*
X102066833Y-78026745D01*
X101841433Y-77987000D01*
X101612567Y-77987000D01*
X101387167Y-78026745D01*
X101172108Y-78105020D01*
X101172099Y-78105024D01*
X100973899Y-78219455D01*
X100973897Y-78219456D01*
X100933990Y-78252942D01*
X100868950Y-78281406D01*
X100798845Y-78270189D01*
X100745934Y-78222850D01*
X100726999Y-78156420D01*
X100726999Y-76353719D01*
X100728077Y-76337273D01*
X100734011Y-76292199D01*
X100734011Y-76292198D01*
X100727538Y-76243029D01*
X100727537Y-76243018D01*
X100706078Y-76080017D01*
X100632554Y-75902514D01*
X100624177Y-75882291D01*
X100524092Y-75751858D01*
X100493896Y-75712505D01*
X100457820Y-75684823D01*
X100445430Y-75673957D01*
X99906005Y-75134533D01*
X99871980Y-75072220D01*
X99870651Y-75025726D01*
X99906000Y-74802549D01*
X99906000Y-74549451D01*
X99866403Y-74299453D01*
X99827775Y-74180567D01*
X100419000Y-74180567D01*
X100419000Y-74409433D01*
X100458745Y-74634833D01*
X100537020Y-74849892D01*
X100537024Y-74849901D01*
X100651455Y-75048101D01*
X100651457Y-75048104D01*
X100798572Y-75223428D01*
X100973896Y-75370543D01*
X100973899Y-75370545D01*
X101172099Y-75484976D01*
X101172108Y-75484980D01*
X101387167Y-75563255D01*
X101612567Y-75603000D01*
X101841433Y-75603000D01*
X102066833Y-75563255D01*
X102281892Y-75484980D01*
X102281901Y-75484976D01*
X102480101Y-75370545D01*
X102480104Y-75370543D01*
X102655428Y-75223428D01*
X102802543Y-75048104D01*
X102802545Y-75048101D01*
X102916976Y-74849901D01*
X102916980Y-74849892D01*
X102995255Y-74634833D01*
X103035000Y-74409433D01*
X103035000Y-74180567D01*
X103001706Y-73991749D01*
X103009575Y-73921190D01*
X103036697Y-73880774D01*
X104444730Y-72472742D01*
X104533825Y-72435837D01*
X105447998Y-72435837D01*
X105705920Y-72366727D01*
X105843154Y-72251574D01*
X105867732Y-72209003D01*
X106418209Y-72209003D01*
X106593100Y-72309976D01*
X106593108Y-72309980D01*
X106808167Y-72388255D01*
X107033567Y-72428000D01*
X107262433Y-72428000D01*
X107487833Y-72388255D01*
X107702892Y-72309980D01*
X107702900Y-72309976D01*
X107877791Y-72209003D01*
X107148000Y-71479210D01*
X106418209Y-72209003D01*
X105867732Y-72209003D01*
X105932729Y-72096426D01*
X105932728Y-72096426D01*
X105957149Y-71957927D01*
X105988676Y-71894314D01*
X106049590Y-71857845D01*
X106051032Y-71857756D01*
X106788790Y-71120000D01*
X107507210Y-71120000D01*
X108237003Y-71849791D01*
X108337976Y-71674900D01*
X108337980Y-71674892D01*
X108416255Y-71459833D01*
X108456000Y-71234433D01*
X108456000Y-71005567D01*
X108416255Y-70780167D01*
X108337980Y-70565108D01*
X108337976Y-70565100D01*
X108237003Y-70390209D01*
X107507210Y-71120000D01*
X106788790Y-71120000D01*
X106046796Y-70378008D01*
X106024654Y-70374555D01*
X105971556Y-70327426D01*
X105956651Y-70293184D01*
X105894727Y-70062081D01*
X105868645Y-70030997D01*
X106418209Y-70030997D01*
X107148000Y-70760790D01*
X107877791Y-70030997D01*
X107702900Y-69930024D01*
X107702892Y-69930020D01*
X107487833Y-69851745D01*
X107262433Y-69812000D01*
X107033567Y-69812000D01*
X106808167Y-69851745D01*
X106593108Y-69930020D01*
X106593100Y-69930024D01*
X106418209Y-70030997D01*
X105868645Y-70030997D01*
X105779574Y-69924846D01*
X105624426Y-69835271D01*
X105447999Y-69804163D01*
X103848002Y-69804163D01*
X103590081Y-69873273D01*
X103452846Y-69988426D01*
X103363271Y-70143574D01*
X103332163Y-70320001D01*
X103332163Y-71234175D01*
X103295258Y-71323270D01*
X101663681Y-72954848D01*
X101596466Y-72989839D01*
X101387167Y-73026745D01*
X101172108Y-73105020D01*
X101172099Y-73105024D01*
X100973899Y-73219455D01*
X100973896Y-73219457D01*
X100798572Y-73366572D01*
X100651457Y-73541896D01*
X100651455Y-73541899D01*
X100537024Y-73740099D01*
X100537020Y-73740108D01*
X100458745Y-73955167D01*
X100419000Y-74180567D01*
X99827775Y-74180567D01*
X99788193Y-74058746D01*
X99788191Y-74058740D01*
X99673283Y-73833221D01*
X99524512Y-73628455D01*
X99345545Y-73449488D01*
X99162739Y-73316672D01*
X99119385Y-73260450D01*
X99110800Y-73214736D01*
X99110800Y-71330037D01*
X99130802Y-71261916D01*
X99184458Y-71215423D01*
X99236800Y-71204037D01*
X99644198Y-71204037D01*
X99902120Y-71134927D01*
X100039354Y-71019774D01*
X100103906Y-70907966D01*
X100155288Y-70858973D01*
X100225002Y-70845537D01*
X100285296Y-70867753D01*
X100473184Y-70999314D01*
X100691651Y-71103985D01*
X100924279Y-71171570D01*
X100965000Y-71176427D01*
X100965000Y-69977000D01*
X101473000Y-69977000D01*
X101473000Y-71175202D01*
X101473001Y-71175202D01*
X101643786Y-71138900D01*
X101643793Y-71138898D01*
X101869340Y-71050506D01*
X101869348Y-71050502D01*
X102077420Y-70926467D01*
X102077426Y-70926462D01*
X102262449Y-70770106D01*
X102262453Y-70770102D01*
X102419461Y-70585618D01*
X102419466Y-70585611D01*
X102544226Y-70377974D01*
X102544229Y-70377968D01*
X102633411Y-70152721D01*
X102671402Y-69977000D01*
X101473000Y-69977000D01*
X100965000Y-69977000D01*
X100965000Y-69595000D01*
X100985002Y-69526879D01*
X101038658Y-69480386D01*
X101091000Y-69469000D01*
X102670280Y-69469000D01*
X102652710Y-69362876D01*
X102574639Y-69133545D01*
X102574637Y-69133540D01*
X102460172Y-68920063D01*
X102460163Y-68920049D01*
X102352104Y-68779733D01*
X102326387Y-68713557D01*
X102340531Y-68643984D01*
X102390043Y-68593101D01*
X102451993Y-68576854D01*
X108382855Y-68579718D01*
G37*
%TD.AperFunction*%
%TA.AperFunction,Conductor*%
G36*
X97497004Y-76072572D02*
G01*
X97680740Y-76166191D01*
X97680746Y-76166193D01*
X97921453Y-76244403D01*
X98171451Y-76284000D01*
X98424549Y-76284000D01*
X98647726Y-76248651D01*
X98718137Y-76257750D01*
X98756533Y-76284005D01*
X99064496Y-76591969D01*
X99101400Y-76681064D01*
X99101399Y-78594531D01*
X99101399Y-79351785D01*
X99100321Y-79368231D01*
X99094387Y-79413305D01*
X99094387Y-79413306D01*
X99100860Y-79462475D01*
X99100861Y-79462486D01*
X99111254Y-79541429D01*
X99122321Y-79625486D01*
X99204220Y-79823209D01*
X99204225Y-79823218D01*
X99301796Y-79950374D01*
X99334504Y-79992999D01*
X99370581Y-80020682D01*
X99382973Y-80031550D01*
X100677189Y-81325767D01*
X100714094Y-81414862D01*
X100714095Y-82669367D01*
X100713017Y-82685814D01*
X100707082Y-82730893D01*
X100735016Y-82943076D01*
X100816917Y-83140803D01*
X100895301Y-83242953D01*
X100947201Y-83310590D01*
X100983272Y-83338268D01*
X100995664Y-83349136D01*
X101232433Y-83585905D01*
X101266459Y-83648217D01*
X101261394Y-83719032D01*
X101218847Y-83775868D01*
X101143338Y-83801000D01*
X101099462Y-83801000D01*
X100868527Y-83862879D01*
X100868521Y-83862882D01*
X100661479Y-83982417D01*
X100661469Y-83982424D01*
X100492424Y-84151469D01*
X100492417Y-84151479D01*
X100372882Y-84358521D01*
X100372879Y-84358527D01*
X100311000Y-84589463D01*
X100310562Y-84592787D01*
X100309570Y-84594799D01*
X100308863Y-84597437D01*
X100308338Y-84597296D01*
X100274735Y-84665437D01*
X100128932Y-84811240D01*
X100066620Y-84845266D01*
X99995805Y-84840201D01*
X99938969Y-84797654D01*
X99913837Y-84722145D01*
X99913837Y-83736002D01*
X99844727Y-83478081D01*
X99729574Y-83340846D01*
X99574426Y-83251271D01*
X99397999Y-83220163D01*
X97695321Y-83220163D01*
X97627200Y-83200161D01*
X97580707Y-83146505D01*
X97575488Y-83055227D01*
X97651789Y-82820400D01*
X97691999Y-82566518D01*
X97691999Y-82309482D01*
X97651789Y-82055600D01*
X97572361Y-81811149D01*
X97455664Y-81582119D01*
X97304580Y-81374169D01*
X97122831Y-81192420D01*
X96914881Y-81041336D01*
X96685851Y-80924639D01*
X96441400Y-80845211D01*
X96187518Y-80805001D01*
X95930483Y-80805001D01*
X95761413Y-80831779D01*
X95691002Y-80822679D01*
X95636688Y-80776957D01*
X95615715Y-80709129D01*
X95652607Y-80618235D01*
X97032225Y-79238617D01*
X97044616Y-79227750D01*
X97080696Y-79200064D01*
X97189931Y-79057707D01*
X97189931Y-79057706D01*
X97210979Y-79030277D01*
X97222110Y-79003402D01*
X97222112Y-79003399D01*
X97292880Y-78832552D01*
X97314339Y-78669550D01*
X97314340Y-78669542D01*
X97320813Y-78620372D01*
X97320813Y-78620370D01*
X97314879Y-78575296D01*
X97313801Y-78558850D01*
X97313801Y-76184839D01*
X97333803Y-76116718D01*
X97387459Y-76070225D01*
X97457733Y-76060121D01*
X97497004Y-76072572D01*
G37*
%TD.AperFunction*%
%TA.AperFunction,Conductor*%
G36*
X97080226Y-68574260D02*
G01*
X97148337Y-68594295D01*
X97194804Y-68647973D01*
X97204251Y-68722139D01*
X97197963Y-68757801D01*
X97197963Y-70688198D01*
X97267073Y-70946120D01*
X97382225Y-71083353D01*
X97382228Y-71083355D01*
X97422199Y-71106432D01*
X97471193Y-71157814D01*
X97485201Y-71215552D01*
X97485201Y-71714583D01*
X97465199Y-71782704D01*
X97411543Y-71829197D01*
X97341269Y-71839301D01*
X97296201Y-71823702D01*
X97251479Y-71797882D01*
X97251473Y-71797879D01*
X97020538Y-71736000D01*
X96781462Y-71736000D01*
X96550527Y-71797879D01*
X96550521Y-71797882D01*
X96343479Y-71917417D01*
X96343469Y-71917424D01*
X96221646Y-72039247D01*
X96208488Y-72046432D01*
X96204141Y-72056752D01*
X96174424Y-72086469D01*
X96174417Y-72086479D01*
X96054882Y-72293521D01*
X96054878Y-72293529D01*
X96046367Y-72325290D01*
X96013756Y-72381773D01*
X95969775Y-72425754D01*
X95957383Y-72436622D01*
X95921307Y-72464304D01*
X95888599Y-72506930D01*
X95888598Y-72506932D01*
X95791024Y-72634091D01*
X95791022Y-72634095D01*
X95727421Y-72787640D01*
X95709123Y-72831816D01*
X95691117Y-72968590D01*
X95691117Y-72968591D01*
X95681189Y-73043999D01*
X95687124Y-73089080D01*
X95688202Y-73105526D01*
X95688201Y-78231507D01*
X95651296Y-78320602D01*
X95486931Y-78484967D01*
X95424619Y-78518993D01*
X95353804Y-78513928D01*
X95296968Y-78471381D01*
X95273750Y-78417752D01*
X95248255Y-78273167D01*
X95169980Y-78058108D01*
X95169976Y-78058099D01*
X95055545Y-77859899D01*
X95055543Y-77859896D01*
X94908428Y-77684572D01*
X94733104Y-77537457D01*
X94733101Y-77537455D01*
X94534901Y-77423024D01*
X94534892Y-77423020D01*
X94319833Y-77344745D01*
X94094433Y-77305000D01*
X93865567Y-77305000D01*
X93640167Y-77344745D01*
X93425108Y-77423020D01*
X93425099Y-77423024D01*
X93226899Y-77537455D01*
X93226896Y-77537457D01*
X93051572Y-77684572D01*
X92904457Y-77859896D01*
X92904455Y-77859899D01*
X92790024Y-78058099D01*
X92790020Y-78058108D01*
X92711745Y-78273167D01*
X92672000Y-78498567D01*
X92672000Y-78727433D01*
X92711745Y-78952833D01*
X92790020Y-79167892D01*
X92790024Y-79167901D01*
X92904455Y-79366101D01*
X92904457Y-79366104D01*
X93051572Y-79541428D01*
X93226896Y-79688543D01*
X93226899Y-79688545D01*
X93425099Y-79802976D01*
X93425108Y-79802980D01*
X93640167Y-79881255D01*
X93784753Y-79906750D01*
X93848365Y-79938278D01*
X93884835Y-79999191D01*
X93882582Y-80070152D01*
X93851968Y-80119931D01*
X93710227Y-80261672D01*
X93647915Y-80295698D01*
X93577100Y-80290633D01*
X93540141Y-80269098D01*
X93463110Y-80204461D01*
X93463101Y-80204455D01*
X93264901Y-80090024D01*
X93264892Y-80090020D01*
X93049833Y-80011745D01*
X92824433Y-79972000D01*
X92595567Y-79972000D01*
X92370167Y-80011745D01*
X92155108Y-80090020D01*
X92155099Y-80090024D01*
X91956899Y-80204455D01*
X91956896Y-80204457D01*
X91781572Y-80351572D01*
X91722314Y-80422192D01*
X91663204Y-80461518D01*
X91625793Y-80467200D01*
X90492207Y-80467200D01*
X90424086Y-80447198D01*
X90395686Y-80422192D01*
X90336428Y-80351572D01*
X90161104Y-80204457D01*
X90161101Y-80204455D01*
X89962901Y-80090024D01*
X89962892Y-80090020D01*
X89747833Y-80011745D01*
X89522433Y-79972000D01*
X89293567Y-79972000D01*
X89068167Y-80011745D01*
X88853108Y-80090020D01*
X88853099Y-80090024D01*
X88654899Y-80204455D01*
X88654896Y-80204457D01*
X88479572Y-80351572D01*
X88332457Y-80526896D01*
X88332455Y-80526899D01*
X88249235Y-80671040D01*
X88197853Y-80720033D01*
X88128139Y-80733469D01*
X88051021Y-80697136D01*
X87171905Y-79818021D01*
X87137880Y-79755708D01*
X87142944Y-79684893D01*
X87180008Y-79632404D01*
X87288428Y-79541428D01*
X87435543Y-79366104D01*
X87435545Y-79366101D01*
X87549976Y-79167901D01*
X87549980Y-79167892D01*
X87628255Y-78952833D01*
X87668000Y-78727433D01*
X87668000Y-78498567D01*
X87628255Y-78273167D01*
X87549980Y-78058108D01*
X87549976Y-78058099D01*
X87435545Y-77859899D01*
X87435543Y-77859896D01*
X87288428Y-77684572D01*
X87113104Y-77537457D01*
X87113101Y-77537455D01*
X86914901Y-77423024D01*
X86914892Y-77423020D01*
X86699833Y-77344745D01*
X86474433Y-77305000D01*
X86245567Y-77305000D01*
X86020167Y-77344745D01*
X85805108Y-77423020D01*
X85805099Y-77423024D01*
X85606899Y-77537455D01*
X85606896Y-77537457D01*
X85431569Y-77684574D01*
X85312521Y-77826450D01*
X85253412Y-77865777D01*
X85182424Y-77866903D01*
X85122097Y-77829472D01*
X85090000Y-77745459D01*
X85090000Y-74332642D01*
X85110002Y-74264521D01*
X85163658Y-74218028D01*
X85214312Y-74206653D01*
X85569468Y-74201894D01*
X85573860Y-74201205D01*
X85600817Y-74199902D01*
X85605245Y-74200164D01*
X85605258Y-74200163D01*
X85611247Y-74199627D01*
X85611525Y-74199601D01*
X86090499Y-74153754D01*
X86090496Y-74153754D01*
X86094812Y-74152709D01*
X86121573Y-74149200D01*
X86126015Y-74149098D01*
X86126021Y-74149097D01*
X86132188Y-74148030D01*
X86132217Y-74148025D01*
X86605819Y-74063086D01*
X86605831Y-74063082D01*
X86610043Y-74061688D01*
X86636430Y-74055999D01*
X86640847Y-74055533D01*
X86646911Y-74053963D01*
X87017731Y-73955519D01*
X87088703Y-73957373D01*
X87147407Y-73997303D01*
X87175204Y-74062631D01*
X87159180Y-74140301D01*
X87069072Y-74296374D01*
X87037963Y-74472801D01*
X87037963Y-76403198D01*
X87107073Y-76661120D01*
X87222226Y-76798354D01*
X87377374Y-76887929D01*
X87553801Y-76919037D01*
X89484198Y-76919037D01*
X89742120Y-76849927D01*
X89879354Y-76734774D01*
X89943906Y-76622966D01*
X89995288Y-76573973D01*
X90065002Y-76560537D01*
X90125296Y-76582753D01*
X90313184Y-76714314D01*
X90531651Y-76818985D01*
X90764279Y-76886570D01*
X91004836Y-76915255D01*
X91246828Y-76904267D01*
X91246842Y-76904265D01*
X91483786Y-76853900D01*
X91483793Y-76853898D01*
X91709340Y-76765506D01*
X91709348Y-76765502D01*
X91917420Y-76641467D01*
X91917426Y-76641462D01*
X92102449Y-76485106D01*
X92102452Y-76485102D01*
X92234106Y-76330410D01*
X92293489Y-76291497D01*
X92364483Y-76290866D01*
X92431737Y-76337657D01*
X92481661Y-76405870D01*
X92654736Y-76575356D01*
X92654749Y-76575367D01*
X92853184Y-76714314D01*
X93071651Y-76818985D01*
X93304279Y-76886570D01*
X93345000Y-76891427D01*
X93345000Y-76890201D01*
X93852999Y-76890201D01*
X94023795Y-76853897D01*
X94249340Y-76765506D01*
X94249348Y-76765502D01*
X94457420Y-76641467D01*
X94457426Y-76641462D01*
X94642449Y-76485106D01*
X94642453Y-76485102D01*
X94799461Y-76300618D01*
X94799466Y-76300611D01*
X94924226Y-76092974D01*
X94924229Y-76092968D01*
X95013411Y-75867721D01*
X95051402Y-75692000D01*
X93853000Y-75691999D01*
X93852999Y-76890201D01*
X93345000Y-76890201D01*
X93345001Y-75639809D01*
X93345000Y-75639807D01*
X93345000Y-75184000D01*
X93852999Y-75184000D01*
X95050280Y-75184001D01*
X95032713Y-75077883D01*
X94954639Y-74848545D01*
X94954637Y-74848540D01*
X94840172Y-74635063D01*
X94840163Y-74635049D01*
X94692357Y-74443121D01*
X94692356Y-74443119D01*
X94515184Y-74277904D01*
X94313410Y-74143845D01*
X94313408Y-74143844D01*
X94092452Y-74044543D01*
X94092454Y-74044543D01*
X93858239Y-73982661D01*
X93853000Y-73982165D01*
X93853000Y-73982166D01*
X93852999Y-75184000D01*
X93345000Y-75184000D01*
X93345001Y-73984003D01*
X93139739Y-74032904D01*
X92916419Y-74126779D01*
X92711431Y-74255867D01*
X92530271Y-74416708D01*
X92426547Y-74544797D01*
X92368133Y-74585149D01*
X92297176Y-74587515D01*
X92228799Y-74542382D01*
X92152357Y-74443121D01*
X92152356Y-74443119D01*
X91975184Y-74277904D01*
X91773410Y-74143845D01*
X91773408Y-74143844D01*
X91552452Y-74044543D01*
X91552454Y-74044543D01*
X91318239Y-73982661D01*
X91077055Y-73959862D01*
X90835404Y-73976761D01*
X90835395Y-73976762D01*
X90599739Y-74032904D01*
X90376419Y-74126779D01*
X90171431Y-74255867D01*
X90171425Y-74255872D01*
X90138577Y-74285035D01*
X90074356Y-74315304D01*
X90003965Y-74306048D01*
X89949753Y-74260205D01*
X89933216Y-74223423D01*
X89930927Y-74214881D01*
X89815774Y-74077646D01*
X89660626Y-73988071D01*
X89484199Y-73956963D01*
X87752036Y-73956963D01*
X87683915Y-73936961D01*
X87637422Y-73883305D01*
X87627318Y-73813031D01*
X87656812Y-73748451D01*
X87700250Y-73716097D01*
X88083325Y-73543390D01*
X88087072Y-73541011D01*
X88111281Y-73529063D01*
X88115449Y-73527536D01*
X88115456Y-73527533D01*
X88120997Y-73524510D01*
X88541940Y-73291485D01*
X88541952Y-73291478D01*
X88545492Y-73288799D01*
X88568639Y-73274909D01*
X88572671Y-73273045D01*
X88577765Y-73269696D01*
X88578084Y-73269485D01*
X88978381Y-73002846D01*
X88978390Y-73002838D01*
X88981692Y-72999884D01*
X89003627Y-72984141D01*
X89007486Y-72981956D01*
X89007495Y-72981950D01*
X89012279Y-72978209D01*
X89389707Y-72679411D01*
X89392757Y-72676194D01*
X89413325Y-72658708D01*
X89417001Y-72656208D01*
X89417003Y-72656206D01*
X89421647Y-72651917D01*
X89773139Y-72323368D01*
X89775914Y-72319914D01*
X89794992Y-72300791D01*
X89798440Y-72298007D01*
X89802737Y-72293331D01*
X90126109Y-71937104D01*
X90128592Y-71933433D01*
X90146041Y-71912809D01*
X90149250Y-71909752D01*
X90153213Y-71904657D01*
X90446242Y-71523218D01*
X90446245Y-71523213D01*
X90448426Y-71519341D01*
X90464115Y-71497373D01*
X90467068Y-71494057D01*
X90467069Y-71494055D01*
X90470433Y-71488911D01*
X90470525Y-71488769D01*
X90470526Y-71488769D01*
X90731390Y-71084483D01*
X90733240Y-71080457D01*
X90747084Y-71057264D01*
X90749753Y-71053720D01*
X90752665Y-71048353D01*
X90752774Y-71048149D01*
X90903048Y-70767091D01*
X90952807Y-70716449D01*
X91022046Y-70700748D01*
X91088782Y-70724972D01*
X91131827Y-70781431D01*
X91140163Y-70826501D01*
X91140163Y-71919998D01*
X91209273Y-72177920D01*
X91324426Y-72315154D01*
X91479574Y-72404729D01*
X91656001Y-72435837D01*
X93255998Y-72435837D01*
X93513920Y-72366727D01*
X93651154Y-72251574D01*
X93675732Y-72209003D01*
X94226209Y-72209003D01*
X94401100Y-72309976D01*
X94401108Y-72309980D01*
X94616167Y-72388255D01*
X94841567Y-72428000D01*
X95070433Y-72428000D01*
X95295833Y-72388255D01*
X95510892Y-72309980D01*
X95510900Y-72309976D01*
X95685791Y-72209003D01*
X94956000Y-71479210D01*
X94226209Y-72209003D01*
X93675732Y-72209003D01*
X93740729Y-72096426D01*
X93740728Y-72096426D01*
X93765149Y-71957927D01*
X93796676Y-71894314D01*
X93857590Y-71857845D01*
X93859032Y-71857756D01*
X94596790Y-71120000D01*
X95315210Y-71120000D01*
X96045003Y-71849791D01*
X96145976Y-71674900D01*
X96145980Y-71674892D01*
X96224255Y-71459833D01*
X96264000Y-71234433D01*
X96264000Y-71005567D01*
X96224255Y-70780167D01*
X96145980Y-70565108D01*
X96145976Y-70565100D01*
X96045003Y-70390209D01*
X95315210Y-71120000D01*
X94596790Y-71120000D01*
X93854796Y-70378008D01*
X93832654Y-70374555D01*
X93779556Y-70327426D01*
X93764651Y-70293184D01*
X93702727Y-70062081D01*
X93676645Y-70030997D01*
X94226209Y-70030997D01*
X94956000Y-70760790D01*
X95685791Y-70030997D01*
X95510900Y-69930024D01*
X95510892Y-69930020D01*
X95295833Y-69851745D01*
X95070433Y-69812000D01*
X94841567Y-69812000D01*
X94616167Y-69851745D01*
X94401108Y-69930020D01*
X94401100Y-69930024D01*
X94226209Y-70030997D01*
X93676645Y-70030997D01*
X93587574Y-69924846D01*
X93432426Y-69835271D01*
X93255999Y-69804163D01*
X91656002Y-69804163D01*
X91499188Y-69846181D01*
X91428212Y-69844491D01*
X91369416Y-69804697D01*
X91341468Y-69739433D01*
X91347251Y-69684009D01*
X91358963Y-69649470D01*
X91359778Y-69645111D01*
X91367548Y-69619266D01*
X91369273Y-69615178D01*
X91369277Y-69615168D01*
X91370809Y-69609190D01*
X91487505Y-69142267D01*
X91487960Y-69137851D01*
X91493590Y-69111440D01*
X91494974Y-69107225D01*
X91496017Y-69101110D01*
X91496080Y-69100736D01*
X91565677Y-68677225D01*
X91596460Y-68613249D01*
X91690070Y-68571657D01*
X97080226Y-68574260D01*
G37*
%TD.AperFunction*%
%TD*%
M02*
