M48
; DRILL file {KiCad (5.99.0-2965-g3673c2369)} date Wed Aug 26 16:55:07 2020
; FORMAT={-:-/ absolute / inch / decimal}
; #@! TF.CreationDate,2020-08-26T16:55:07+03:00
; #@! TF.GenerationSoftware,Kicad,Pcbnew,(5.99.0-2965-g3673c2369)
; #@! TF.FileFunction,Plated,1,2,PTH
FMAT,2
INCH
T1C0.0157
T2C0.0315
T3C0.0354
T4C0.0394
T5C0.0433
T6C0.0591
%
G90
G05
T1
X3.365Y-3.99
X3.385Y-2.98
X3.815Y-2.86
X3.885Y-3.595
X3.94Y-3.65
X3.97Y-3.285
X3.985Y-3.335
X4.215Y-3.68
X4.42Y-3.685
X4.43Y-3.55
T2
X4.12Y-2.8
X4.2184Y-2.8
X4.485Y-3.3781
X4.485Y-3.575
X3.65Y-3.2
X4.25Y-3.1
X4.4469Y-3.1
X4.485Y-3.675
X4.485Y-3.975
X3.505Y-3.91
X3.64Y-2.8
X3.7384Y-2.8
X3.4Y-3.095
X3.7Y-3.095
X4.005Y-2.925
X4.005Y-3.1219
X3.4066Y-3.91
X4.08Y-3.805
X4.38Y-3.805
X3.52Y-3.2
X3.52Y-3.5
X3.7981Y-3.46
X3.995Y-3.46
X3.65Y-3.5
X3.395Y-3.455
X3.395Y-3.755
T3
X3.89Y-3.725
X3.99Y-3.725
T4
X4.185Y-3.31
X4.285Y-3.21
X3.5Y-3.685
X3.6Y-3.685
X3.7Y-3.685
X3.8Y-3.685
X4.285Y-3.41
X4.045Y-3.585
X4.145Y-3.585
X4.245Y-3.585
X4.345Y-3.585
T5
X3.87Y-2.94
X3.87Y-3.34
X3.885Y-2.745
X3.985Y-2.745
X3.485Y-2.97
X3.585Y-2.97
X3.685Y-2.97
X3.7891Y-3.965
X4.225Y-3.965
X4.325Y-3.965
X3.8891Y-3.965
X3.9891Y-3.965
X4.0891Y-3.965
X4.185Y-2.97
X4.285Y-2.97
X4.385Y-2.97
T6
X4.0881Y-3.2456
X4.4819Y-3.2456
X3.3881Y-3.2456
X3.7819Y-3.2456
T0
M30
