%TF.GenerationSoftware,KiCad,Pcbnew,(5.99.0-2965-g3673c2369)*%
%TF.CreationDate,2020-08-26T16:57:39+03:00*%
%TF.ProjectId,cara-de-pelusa,63617261-2d64-4652-9d70-656c7573612e,rev?*%
%TF.SameCoordinates,Original*%
%TF.FileFunction,Soldermask,Top*%
%TF.FilePolarity,Negative*%
%FSLAX46Y46*%
G04 Gerber Fmt 4.6, Leading zero omitted, Abs format (unit mm)*
G04 Created by KiCad (PCBNEW (5.99.0-2965-g3673c2369)) date 2020-08-26 16:57:39*
%MOMM*%
%LPD*%
G01*
G04 APERTURE LIST*
%ADD10O,2.250000X2.250000*%
%ADD11O,1.930400X1.930400*%
%ADD12R,1.930400X1.930400*%
%ADD13O,1.600000X1.600000*%
%ADD14C,1.600000*%
%ADD15C,1.800000*%
%ADD16R,1.800000X1.800000*%
%ADD17O,2.200000X2.200000*%
%ADD18R,2.200000X2.200000*%
%ADD19R,1.600000X1.600000*%
G04 APERTURE END LIST*
D10*
%TO.C,RV4*%
X103839000Y-82438000D03*
X113839000Y-82438000D03*
D11*
X111379000Y-75438000D03*
X108839000Y-75438000D03*
D12*
X106299000Y-75438000D03*
%TD*%
D10*
%TO.C,RV1*%
X86059000Y-82438000D03*
X96059000Y-82438000D03*
D11*
X93599000Y-75438000D03*
X91059000Y-75438000D03*
D12*
X88519000Y-75438000D03*
%TD*%
D11*
%TO.C,RV5*%
X108839000Y-81534000D03*
X106299000Y-84074000D03*
X108839000Y-86614000D03*
%TD*%
D13*
%TO.C,R6*%
X113919000Y-100965000D03*
D14*
X113919000Y-93345000D03*
%TD*%
D13*
%TO.C,R5*%
X111252000Y-96647000D03*
D14*
X103632000Y-96647000D03*
%TD*%
D13*
%TO.C,R4*%
X92710000Y-88900000D03*
D14*
X92710000Y-81280000D03*
%TD*%
D13*
%TO.C,R3*%
X89408000Y-88900000D03*
D14*
X89408000Y-81280000D03*
%TD*%
D13*
%TO.C,R2*%
X86360000Y-78613000D03*
D14*
X93980000Y-78613000D03*
%TD*%
D13*
%TO.C,R1*%
X86233000Y-87757000D03*
D14*
X86233000Y-95377000D03*
%TD*%
D11*
%TO.C,Q2*%
X102743000Y-91059000D03*
X105283000Y-91059000D03*
X107823000Y-91059000D03*
D12*
X110363000Y-91059000D03*
%TD*%
D11*
%TO.C,Q1*%
X88900000Y-93599000D03*
X91440000Y-93599000D03*
X93980000Y-93599000D03*
D12*
X96520000Y-93599000D03*
%TD*%
D11*
%TO.C,J3*%
X101219000Y-69723000D03*
D12*
X98679000Y-69723000D03*
%TD*%
D11*
%TO.C,J2*%
X103862500Y-100711000D03*
X101322500Y-100711000D03*
X98782500Y-100711000D03*
D12*
X96242500Y-100711000D03*
%TD*%
D11*
%TO.C,J1*%
X109855000Y-100711000D03*
D12*
X107315000Y-100711000D03*
%TD*%
D15*
%TO.C,D2*%
X101346000Y-94615000D03*
D16*
X98806000Y-94615000D03*
%TD*%
D17*
%TO.C,D1*%
X98298000Y-74676000D03*
D18*
X98298000Y-84836000D03*
%TD*%
D14*
%TO.C,C7*%
X101727000Y-79295000D03*
X101727000Y-74295000D03*
%TD*%
%TO.C,C6*%
X113919000Y-85805000D03*
X113919000Y-90805000D03*
%TD*%
%TO.C,C5*%
X107148000Y-71120000D03*
D19*
X104648000Y-71120000D03*
%TD*%
D14*
%TO.C,C4*%
X96473000Y-87884000D03*
X101473000Y-87884000D03*
%TD*%
%TO.C,C3*%
X112950000Y-78740000D03*
X107950000Y-78740000D03*
%TD*%
%TO.C,C2*%
X94956000Y-71120000D03*
D19*
X92456000Y-71120000D03*
%TD*%
D14*
%TO.C,C1*%
X86527000Y-99314000D03*
D19*
X89027000Y-99314000D03*
%TD*%
M02*
